<svg version="1.1" xmlns="http://www.w3.org/2000/svg" width="16px" height="16px" fill="currentColor" viewBox="0 0 159 181"><path d="M0 0 C0.99515625 -0.03351563 1.9903125 -0.06703125 3.015625 -0.1015625 C12.99032187 1.8391212 22.05634625 8.45293139 30.625 13.6875 C32.80936522 15.01259384 34.99427241 16.33679463 37.1796875 17.66015625 C38.27120117 18.32160645 39.36271484 18.98305664 40.48730469 19.66455078 C43.62587596 21.55041784 46.78023658 23.4051202 49.9453125 25.24609375 C50.92387207 25.81642334 51.90243164 26.38675293 52.91064453 26.97436523 C54.73942832 28.03751288 56.57093719 29.09599365 58.40576172 30.14868164 C62.56009433 32.57117434 66.63358065 35.10011967 70.5625 37.875 C71.59310547 38.59429687 71.59310547 38.59429687 72.64453125 39.328125 C80.77175846 48.19419105 80.49230945 58.18957355 80.4140625 69.53125 C80.41743777 71.2642043 80.42229629 72.99715627 80.42855835 74.73010254 C80.43589625 78.34780597 80.42532467 81.96488873 80.40185547 85.58251953 C80.37336902 90.19579739 80.38978972 94.80762041 80.41971779 99.42084503 C80.43787486 102.9950842 80.43199451 106.56898429 80.41907883 110.14323425 C80.41576797 111.84311602 80.41974926 113.54302961 80.43147659 115.24287415 C80.52763207 133.09320467 80.52763207 133.09320467 74.75 140.625 C68.93367984 146.23438374 61.86399761 150.09934099 54.875 154.0625 C52.7623782 155.27622585 50.65042599 156.49111779 48.5390625 157.70703125 C47.43852539 158.33947754 46.33798828 158.97192383 45.20410156 159.62353516 C41.60786108 161.70736181 38.03102479 163.82103776 34.4609375 165.94921875 C33.85734406 166.30880173 33.25375061 166.6683847 32.63186646 167.03886414 C29.69814156 168.78763632 26.76642034 170.53965668 23.83642578 172.29467773 C5.2685864 183.35681544 5.2685864 183.35681544 -6.25 181.625 C-13.02230572 179.26980182 -18.9954384 175.18973045 -25.109375 171.50390625 C-30.52031529 168.24877216 -35.95073694 165.02912939 -41.3984375 161.8359375 C-43.45221515 160.62864495 -45.50568422 159.42082908 -47.55908203 158.21289062 C-48.94591418 157.39868806 -50.33395418 156.58653964 -51.72314453 155.77636719 C-75.68986302 141.7887932 -75.68986302 141.7887932 -79.25 130.625 C-79.96833123 124.65065995 -79.95552724 118.72894778 -79.9140625 112.71875 C-79.91743777 110.9857957 -79.92229629 109.25284373 -79.92855835 107.51989746 C-79.93589625 103.90219403 -79.92532467 100.28511127 -79.90185547 96.66748047 C-79.87336902 92.05420261 -79.88978972 87.44237959 -79.91971779 82.82915497 C-79.93787486 79.2549158 -79.93199451 75.68101571 -79.91907883 72.10676575 C-79.91576797 70.40688398 -79.91974926 68.70697039 -79.93147659 67.00712585 C-80.02737585 49.2043604 -80.02737585 49.2043604 -74.25 41.625 C-67.73516019 35.23697033 -59.42519589 31.01220349 -51.5625 26.5 C-50.2786508 25.75696032 -48.99520839 25.01321736 -47.7121582 24.26879883 C-45.76800443 23.14095813 -43.8235846 22.01361013 -41.87767029 20.8888092 C-34.98199513 16.90154387 -28.13819709 12.82738846 -21.30395508 8.73583984 C-6.69534077 0.05150262 -6.69534077 0.05150262 0 0 Z M-21.25 14.625 C-23.51991044 15.9807131 -25.79073983 17.33488877 -28.0625 18.6875 C-29.27877631 19.42556628 -30.49491234 20.16386376 -31.7109375 20.90234375 C-34.83408871 22.78927814 -37.97838473 24.63719436 -41.13380432 26.46965027 C-43.54775186 27.87205342 -45.95786063 29.28099536 -48.36801147 30.68991089 C-49.56515176 31.38740107 -50.76402586 32.08192533 -51.9647522 32.77322388 C-65.52934787 40.31584729 -65.52934787 40.31584729 -74.25 52.625 C-74.52844223 55.2594833 -74.66134473 57.65142995 -74.63818359 60.27929688 C-74.64344055 61.02156021 -74.64869751 61.76382355 -74.65411377 62.52857971 C-74.66725141 64.96718777 -74.65859821 67.40513601 -74.6484375 69.84375 C-74.65046004 71.5471611 -74.65337297 73.25057135 -74.65713501 74.95397949 C-74.66154991 78.51806917 -74.65515429 82.08193277 -74.64111328 85.64599609 C-74.62402181 90.20565539 -74.63386748 94.76478486 -74.65183067 99.32442474 C-74.66269113 102.84010787 -74.65921182 106.35566618 -74.6514473 109.87135315 C-74.64945154 111.55221113 -74.65188256 113.23308059 -74.65888596 114.91392517 C-74.66653787 117.26648817 -74.65484479 119.618203 -74.63818359 121.97070312 C-74.64425629 122.65971207 -74.65032898 123.34872101 -74.65658569 124.05860901 C-74.57913024 129.9868555 -72.80528454 133.84903319 -68.9375 138.265625 C-66.15823936 140.70555731 -63.4463567 142.51558096 -60.25 144.375 C-59.63189453 144.73787109 -59.01378906 145.10074219 -58.37695312 145.47460938 C-56.90300652 146.33864704 -55.42689385 147.19899503 -53.94921875 148.05664062 C-50.74242228 149.91992395 -47.5427735 151.79529326 -44.34375 153.671875 C-40.53562565 155.90547231 -36.72731952 158.13874334 -32.91674805 160.36816406 C-25.14942198 164.91380762 -17.40602996 169.49562214 -9.70703125 174.15625 C-5.87404521 176.44751034 -3.73516243 176.72250353 0.75 176.625 C0.26349724 175.85910049 0.26349724 175.85910049 -0.23283386 175.07772827 C-1.6090492 171.7592121 -1.51198213 168.97279209 -1.5246582 165.38134766 C-1.52976913 164.65888351 -1.53488007 163.93641937 -1.54014587 163.19206238 C-1.55402706 160.80764442 -1.55308605 158.42351603 -1.55078125 156.0390625 C-1.5546694 154.3776336 -1.55900431 152.71620568 -1.56376648 151.05477905 C-1.57122581 147.57294493 -1.5709398 144.0912122 -1.56567383 140.609375 C-1.55988385 136.15505383 -1.57679998 131.70114909 -1.6000185 127.24689674 C-1.61477684 123.81529324 -1.61562462 120.3837895 -1.61250877 116.95215988 C-1.61302107 115.31036938 -1.61824164 113.66857315 -1.62832069 112.02681351 C-1.64070688 109.72675071 -1.63388067 107.42749208 -1.62231445 105.12744141 C-1.62294388 103.82046295 -1.6235733 102.5134845 -1.6242218 101.16690063 C-1.08114517 96.0268381 0.76056983 91.96974425 4.7734375 88.66015625 C9.33660473 84.98407255 14.34303087 82.04412504 19.375 79.0625 C21.42888871 77.83026559 23.48226278 76.59717302 25.53515625 75.36328125 C26.57043457 74.74275879 27.60571289 74.12223633 28.67236328 73.48291016 C32.52193753 71.15899614 36.34041952 68.78757495 40.15527344 66.40722656 C43.57139603 64.27670101 46.99761619 62.16289803 50.42724609 60.05419922 C51.92177235 59.13461159 53.41444417 58.21199969 54.90478516 57.28564453 C56.80220947 56.1116161 58.71069201 54.9587263 60.625 53.8125 C61.65367187 53.18730469 62.68234375 52.56210937 63.7421875 51.91796875 C67.27294369 50.40020213 69.94533537 50.38184474 73.75 50.625 C71.58777129 45.16252746 69.02097794 42.89955349 63.97265625 39.90234375 C63.40118866 39.56017319 62.82972107 39.21800262 62.24093628 38.86546326 C60.4158502 37.77620804 58.58363614 36.69978882 56.75 35.625 C55.57022659 34.92752899 54.39061871 34.22977789 53.21118164 33.53173828 C49.60654007 31.40422688 45.99121913 29.29525104 42.375 27.1875 C39.82097352 25.6964078 37.26767568 24.20407383 34.71484375 22.7109375 C33.79536705 22.17320961 33.79536705 22.17320961 32.85731506 21.62461853 C28.81291383 19.25611195 24.78737547 16.85897588 20.77954102 14.42919922 C18.11228369 12.8122297 15.43115012 11.21879479 12.75 9.625 C11.986875 9.15578125 11.22375 8.6865625 10.4375 8.203125 C-1.71286749 1.27361854 -10.79605237 8.1505932 -21.25 14.625 Z M19.75 102.625 C19.605625 103.718125 19.46125 104.81125 19.3125 105.9375 C18.67983952 110.08494091 17.48287588 111.55051464 14.75 114.625 C13.49790426 118.38128722 13.17604175 121.69748569 13.75 125.625 C16.0830043 128.51792533 17.8199494 128.63782406 21.5 129.3125 C22.5725 129.415625 23.645 129.51875 24.75 129.625 C25.06364861 133.07513471 25.19797604 134.9799145 23.1875 137.875 C20.17654932 140.03670818 17.33925469 140.79671046 13.75 141.625 C13.75 143.275 13.75 144.925 13.75 146.625 C16.72 146.13 16.72 146.13 19.75 145.625 C19.75 147.275 19.75 148.925 19.75 150.625 C21.73 150.13 21.73 150.13 23.75 149.625 C23.8325 148.573125 23.915 147.52125 24 146.4375 C24.82113 142.26342252 26.01584565 140.77342016 28.75 137.625 C30.67844656 133.86452921 31.19831064 130.83911999 30.75 126.625 C29.94887923 124.22169834 29.94887923 124.22169834 27.75 122.625 C24.78699018 121.70037282 21.81271083 121.11297908 18.75 120.625 C18.5 118.3125 18.5 118.3125 18.75 115.625 C21.56522017 112.70150214 24.91900109 111.75688604 28.75 110.625 C29.08 108.975 29.41 107.325 29.75 105.625 C28.1 105.625 26.45 105.625 24.75 105.625 C24.42 103.975 24.09 102.325 23.75 100.625 C22.28774984 100.53254997 22.28774984 100.53254997 19.75 102.625 Z M45.125 136.625 C44.51398438 137.0065625 43.90296875 137.388125 43.2734375 137.78125 C41.76313263 138.72519054 40.25623872 139.67458458 38.75 140.625 C39.08 141.945 39.41 143.265 39.75 144.625 C41.90563731 143.38978085 44.04840734 142.13829661 46.1875 140.875 C46.79916016 140.52695313 47.41082031 140.17890625 48.04101562 139.8203125 C51.58424444 137.76042695 51.58424444 137.76042695 53.66015625 134.359375 C53.68980469 133.78703125 53.71945313 133.2146875 53.75 132.625 C50.40996383 132.625 47.87674749 134.88457851 45.125 136.625 Z " fill="#C1C9F2" transform="translate(79.25,-0.625)"></path></svg>