<svg version="1.1" xmlns="http://www.w3.org/2000/svg" width="16px" height="16px" fill="currentColor" viewBox="0 0 455 455"><path d="M0 0 C0.33 1.65 0.66 3.3 1 5 C-0.32 5.66 -1.64 6.32 -3 7 C-2.65066406 7.54269531 -2.30132812 8.08539063 -1.94140625 8.64453125 C-1.48636719 9.35996094 -1.03132813 10.07539063 -0.5625 10.8125 C-0.11003906 11.52019531 0.34242188 12.22789063 0.80859375 12.95703125 C3.30995715 17.24625439 2.97836865 20.92397621 2.640625 25.69140625 C2.5910968 26.44837296 2.5415686 27.20533966 2.49053955 27.98524475 C2.33454672 30.32408811 2.16883011 32.66205104 2 35 C1.95174072 35.68149109 1.90348145 36.36298218 1.85375977 37.06512451 C-5.62632152 141.43948228 -5.62632152 141.43948228 -24 169 C-24.66 169 -25.32 169 -26 169 C-26.24282715 169.58845703 -26.4856543 170.17691406 -26.73583984 170.78320312 C-28.23563083 173.41319581 -29.80457239 174.66052056 -32.2265625 176.46875 C-33.08556152 177.11618164 -33.94456055 177.76361328 -34.82958984 178.43066406 C-35.7520752 179.11354492 -36.67456055 179.79642578 -37.625 180.5 C-38.57197754 181.21124023 -39.51895508 181.92248047 -40.49462891 182.65527344 C-43.32394382 184.77809444 -46.16077748 186.89045563 -49 189 C-51.79317028 191.08132435 -54.58478903 193.16471029 -57.375 195.25 C-58.01566406 195.72816162 -58.65632813 196.20632324 -59.31640625 196.69897461 C-65.09838278 201.03324903 -70.73587302 205.5372767 -76.359375 210.07421875 C-79.27333153 212.42380909 -82.21181948 214.73924874 -85.16381836 217.04077148 C-96.82582363 226.13377459 -108.20180592 235.57942464 -119.46240234 245.16357422 C-122.83481143 248.0300688 -126.24789743 250.83964351 -129.6875 253.625 C-134.08657833 257.20283215 -138.29550378 260.9455852 -142.484375 264.765625 C-145.01330295 267.01181566 -147.61049914 269.13531218 -150.25 271.25 C-156.01234335 275.9089159 -161.38492006 280.93327716 -166.78515625 286 C-169.780417 288.80767877 -172.84555799 291.52052442 -175.953125 294.203125 C-179.1633631 297.02127295 -182.2969006 299.92293194 -185.44018555 302.81518555 C-188.58784528 305.70996566 -191.75238101 308.58384055 -194.9375 311.4375 C-205.41750171 320.84947606 -215.69749843 330.48374603 -225.98046875 340.10986328 C-227.36787279 341.40837417 -228.75592936 342.70618811 -230.14453125 344.00341797 C-238.02810738 351.37064087 -245.88018974 358.74222474 -253.41015625 366.47265625 C-255.36693665 368.38221419 -257.32262748 370.13839301 -259.40234375 371.90234375 C-266.11882169 377.72486516 -272.25163953 384.18578479 -278.5 390.5 C-281.04906624 393.07593219 -283.60161354 395.64834314 -286.15625 398.21875 C-287.00817932 399.08312683 -287.00817932 399.08312683 -287.87731934 399.96496582 C-290.77820211 402.8831396 -293.7357382 405.66982183 -296.85668945 408.35229492 C-301.5207475 412.38626181 -305.81810834 416.74686974 -310.13671875 421.14453125 C-311.86494736 422.89025814 -313.59347163 424.63569238 -315.32226562 426.38085938 C-318.0180374 429.10769922 -320.71139378 431.83680245 -323.3996582 434.57104492 C-326.01363087 437.22727417 -328.63689897 439.87402636 -331.26171875 442.51953125 C-332.06389328 443.34032669 -332.86606781 444.16112213 -333.69255066 445.00679016 C-334.4471608 445.76485458 -335.20177094 446.52291901 -335.97924805 447.30395508 C-336.96564522 448.30486931 -336.96564522 448.30486931 -337.9719696 449.32600403 C-340.22005185 451.18163727 -342.25840798 452.04938757 -345 453 C-345.78117187 453.32742188 -346.56234375 453.65484375 -347.3671875 453.9921875 C-351.74504575 454.00517818 -354.05676009 451.01141829 -357.125 448.125 C-358.46765552 446.91024751 -359.8114117 445.69671051 -361.15625 444.484375 C-362.14044922 443.5862207 -362.14044922 443.5862207 -363.14453125 442.66992188 C-365.57107994 440.48602806 -368.0833956 438.42323413 -370.625 436.375 C-374.62738911 433.13270852 -378.57595635 429.83606872 -382.5 426.5 C-386.46899152 423.12711398 -390.4601718 419.78823226 -394.5 416.5 C-398.53983295 413.21176388 -402.53087671 409.87273558 -406.5 406.5 C-411.35952108 402.37151309 -416.26590428 398.30729475 -421.2109375 394.28125 C-426.17108335 390.22421194 -431.0836079 386.10986355 -436 382 C-435.6875 379.625 -435.6875 379.625 -435 377 C-434.01 376.34 -433.02 375.68 -432 375 C-433.67488528 373.26352052 -433.67488528 373.26352052 -436 372 C-438.49552484 372.78130071 -438.49552484 372.78130071 -441 374 C-443.75 374.1875 -443.75 374.1875 -446 374 C-447 373 -447 373 -447.3125 370.8125 C-446.89783919 367.08055267 -445.10770268 365.06574935 -443 362 C-442.91178986 361.24149246 -442.82357971 360.48298492 -442.73269653 359.70149231 C-441.66663072 355.77084916 -439.05393131 353.53685289 -436.21435547 350.77612305 C-435.61097855 350.17376831 -435.00760162 349.57141357 -434.38594055 348.95080566 C-432.38887238 346.96162072 -430.37811847 344.98687995 -428.3671875 343.01171875 C-426.9719659 341.62650524 -425.57770255 340.24032595 -424.18435669 338.85322571 C-420.50979644 335.19961066 -416.823846 331.55771131 -413.13494873 327.9185791 C-407.24923531 322.10805251 -401.38183383 316.27902327 -395.51266861 310.45179176 C-393.46914936 308.42584135 -391.4213937 306.40425807 -389.37277222 304.38346863 C-381.04623961 296.16815455 -381.04623961 296.16815455 -373.23757935 287.46394348 C-371.60016749 285.52703461 -369.82365698 283.76077225 -368 282 C-364.89753998 278.93882747 -362.01893576 275.76857732 -359.1796875 272.46484375 C-356.18656709 269.08015024 -353.09173886 265.79449566 -350 262.5 C-345.82115184 258.04332313 -341.67849326 253.57510648 -337.6953125 248.94140625 C-335.54844949 246.48290184 -333.33462868 244.089711 -331.125 241.6875 C-327.83567762 238.08608829 -324.67982364 234.42692725 -321.625 230.625 C-317.75845816 225.8293951 -313.65148017 221.33121333 -309.4440918 216.83862305 C-305.52107276 212.62588877 -301.88096281 208.23595547 -298.27734375 203.74609375 C-295.78173374 200.73680758 -293.16231533 197.86064611 -290.5 195 C-286.18998228 190.36757057 -282.14938376 185.578772 -278.1796875 180.6484375 C-276.02242601 178.02724881 -273.78689 175.50845719 -271.5 173 C-268.47717579 169.68010514 -265.57487839 166.30235888 -262.75 162.8125 C-257.54785365 156.3911006 -252.12391332 150.17213142 -246.69384766 143.94384766 C-243.93653295 140.7795727 -241.18674532 137.60878583 -238.4375 134.4375 C-237.90189453 133.82011963 -237.36628906 133.20273926 -236.81445312 132.56665039 C-232.59944789 127.70372189 -228.41684916 122.81363026 -224.24023438 117.91772461 C-221.3632836 114.55602864 -218.43090592 111.25925014 -215.4375 108 C-211.52807391 103.69050697 -207.93424936 99.18911334 -204.36914062 94.59594727 C-200.79100714 89.98780129 -197.13151654 85.45313076 -193.4375 80.9375 C-188.66545117 75.09161768 -183.99447847 69.18484215 -179.4296875 63.17578125 C-177.70604354 60.92285112 -175.96668183 58.69498435 -174.1953125 56.48046875 C-173.73406982 55.8980542 -173.27282715 55.31563965 -172.79760742 54.71557617 C-171.91683735 53.60461381 -171.0293699 52.498915 -170.1340332 51.3996582 C-167.70805912 48.31846882 -166.41073668 45.92001326 -166 42 C-164.081875 41.6596875 -164.081875 41.6596875 -162.125 41.3125 C-159.91079627 40.82528274 -159.91079627 40.82528274 -158 40 C-157.30341637 38.34561387 -156.63903117 36.67745682 -156 35 C-151.19441532 31.79344412 -145.64840834 30.08988484 -140.11328125 28.625 C-138.98250656 28.31626701 -138.98250656 28.31626701 -137.82888794 28.001297 C-135.32623316 27.32319225 -132.81989921 26.66033242 -130.3125 26 C-129.43385284 25.7662265 -128.55520569 25.532453 -127.64993286 25.29159546 C-92.61997496 15.99648272 -57.13380208 8.3740562 -21.5703125 1.42578125 C-20.89989426 1.29409546 -20.22947601 1.16240967 -19.53874207 1.0267334 C-12.70633808 -0.29193741 -6.90639559 -1.26852164 0 0 Z M-107.5 83.25 C-109.07414157 84.91705664 -109.07414157 84.91705664 -109.859375 86.9375 C-111.19245805 89.34800633 -112.46451435 90.24405985 -114.75 91.75 C-121.22782728 96.42581351 -125.5966337 102.00081211 -127 110 C-128.00637587 117.36170838 -126.21067565 122.90920871 -122 129 C-115.9938204 135.73696952 -109.71921058 139.91099307 -100.625 140.4375 C-93.09562512 140.13892134 -86.03483744 136.94947663 -80.53515625 131.83984375 C-74.85356853 125.03061266 -72.26765037 116.78819551 -73 108 C-76.03141075 98.38609735 -81.45658294 91.15752513 -90.26171875 86.25390625 C-98.94288002 82.07083727 -98.94288002 82.07083727 -107.5 83.25 Z M-185 96 C-184 98 -184 98 -184 98 Z M-188 100 C-187 102 -187 102 -187 102 Z M-190 103 C-199.20419528 114.23140876 -199.20419528 114.23140876 -208.125 125.6875 C-212.36103643 131.24171956 -216.80869025 136.57506013 -221.34765625 141.8828125 C-223.77352276 144.72187125 -226.14414924 147.60242955 -228.5 150.5 C-236.48275753 160.2976651 -244.72872251 169.87621937 -252.96484375 179.4609375 C-254.98571106 181.81374412 -256.99811559 184.17339211 -259.00390625 186.5390625 C-264.95924598 193.55030666 -271.0626011 200.38561433 -277.33203125 207.1171875 C-279.42838631 209.38235593 -281.48264678 211.66514567 -283.5 214 C-287.52539176 218.65069533 -291.72216244 223.14131489 -295.90234375 227.65234375 C-298.71976401 230.69299507 -301.51765015 233.75107729 -304.3125 236.8125 C-322.92122557 257.14090019 -322.92122557 257.14090019 -332.65625 266.59375 C-334.48429514 268.47054301 -336.16429884 270.35748013 -337.85571289 272.35131836 C-343.16785777 278.43761606 -348.93755106 284.08150914 -354.65234375 289.78515625 C-355.87885354 291.01234122 -357.10521498 292.23967447 -358.33143616 293.46714783 C-360.89080528 296.02798381 -363.45195493 298.58702171 -366.0144043 301.14477539 C-369.28010508 304.40477954 -372.54129475 307.66925365 -375.80115414 310.93509769 C-378.32938627 313.46696285 -380.86001939 315.99641744 -383.39135933 318.52517509 C-384.59403192 319.72718599 -385.79597709 320.92992519 -386.9971447 322.13344002 C-398.33161393 333.48519982 -398.33161393 333.48519982 -404.36950684 338.58969116 C-407.25707934 341.0873214 -409.89640992 343.83299003 -412.5625 346.5625 C-416.00789336 350.06518374 -419.42344272 353.46969494 -423.25 356.5625 C-426.03717101 359.03294703 -426.39202626 359.57652882 -427 363 C-423.72648077 363.33646229 -423.72648077 363.33646229 -421.14453125 360.40234375 C-420.02706763 359.25396083 -418.91676906 358.09857627 -417.8125 356.9375 C-416.6360341 355.72859776 -415.45765942 354.52155004 -414.27734375 353.31640625 C-413.70999512 352.73648926 -413.14264648 352.15657227 -412.55810547 351.55908203 C-410.73748569 349.73732116 -408.84087077 348.03842912 -406.875 346.375 C-403.05927884 343.13888205 -399.5740315 339.60223522 -396.0637207 336.04418945 C-393.47961541 333.43862818 -390.85782054 330.93939418 -388.0625 328.5625 C-384.52320874 325.54647151 -381.26505855 322.30551776 -378 319 C-374.77602207 315.73617068 -371.56482126 312.53169836 -368.0625 309.5625 C-363.76905738 305.91441827 -359.8527289 301.90792489 -355.91821289 297.88110352 C-353.11434956 295.0320236 -350.25542042 292.32017903 -347.22265625 289.71484375 C-342.22849731 285.3970892 -337.59321998 280.73927071 -332.9375 276.0625 C-332.07833984 275.20720703 -331.21917969 274.35191406 -330.33398438 273.47070312 C-325.92162135 269.05159852 -321.65353597 264.57065449 -317.58422852 259.83374023 C-315.12720555 256.98974278 -312.5622309 254.24894531 -310 251.5 C-306.18863219 247.3917343 -302.42907646 243.25314192 -298.765625 239.01171875 C-296.5908943 236.53387293 -294.35661598 234.11421125 -292.125 231.6875 C-288.83567762 228.08608829 -285.67982364 224.42692725 -282.625 220.625 C-279.23614031 216.421856 -275.68760734 212.43796823 -272 208.5 C-267.50041006 203.69453707 -263.26896753 198.7483902 -259.14453125 193.61328125 C-257.00125044 191.00152377 -254.7761967 188.49634698 -252.5 186 C-248.65489125 181.77635723 -245.03241829 177.4130207 -241.44140625 172.97265625 C-238.72279677 169.66247734 -235.9289311 166.42525024 -233.125 163.1875 C-227.71293844 156.91343842 -222.56009607 150.47111223 -217.4921875 143.91748047 C-215.89323822 141.86280971 -214.27610418 139.8233803 -212.65625 137.78515625 C-204.26541394 127.18214821 -196.49362681 116.25362659 -189 105 C-189.33 104.34 -189.66 103.68 -190 103 Z M-213 118 C-212 120 -212 120 -212 120 Z M-217 123 C-217 126 -217 126 -217 126 Z M-23 125 C-25.4266367 127.4266367 -25.43816108 128.56543025 -25.9296875 131.91015625 C-26.16365234 133.39612305 -26.16365234 133.39612305 -26.40234375 134.91210938 C-26.71326431 136.98448484 -27.02065594 139.05739337 -27.32421875 141.13085938 C-29.61579373 155.57896015 -35.5997292 164.60087082 -47.0078125 173.58203125 C-50.13091468 176.10579137 -53.06835877 178.7601217 -56 181.5 C-60.73594483 185.91877466 -65.62660326 190.02383663 -70.72265625 194.02734375 C-72.85639879 195.8756113 -74.41461896 197.67650713 -76 200 C-73.30843913 198.72858729 -70.97978989 197.3461281 -68.62890625 195.5234375 C-67.98211914 195.02505371 -67.33533203 194.52666992 -66.66894531 194.01318359 C-65.62625488 193.20228271 -65.62625488 193.20228271 -64.5625 192.375 C-63.04833731 191.20812539 -61.53400621 190.04146929 -60.01953125 188.875 C-59.21338379 188.25238281 -58.40723633 187.62976563 -57.57666016 186.98828125 C-52.97675475 183.43876168 -48.36491223 179.90497477 -43.75 176.375 C-42.85740479 175.68841309 -41.96480957 175.00182617 -41.04516602 174.29443359 C-40.20010498 173.64812988 -39.35504395 173.00182617 -38.484375 172.3359375 C-37.36627441 171.47814697 -37.36627441 171.47814697 -36.22558594 170.60302734 C-34 169 -34 169 -31.33935547 167.60009766 C-28.4617432 165.63183729 -28.02273571 164.37872913 -27.0859375 161.0625 C-26.79976563 160.08410156 -26.51359375 159.10570312 -26.21875 158.09765625 C-25.9403125 157.07542969 -25.661875 156.05320313 -25.375 155 C-24.94574219 153.51306641 -24.94574219 153.51306641 -24.5078125 151.99609375 C-23.64936075 149.00321878 -22.82294505 146.002809 -22 143 C-21.7124585 141.98574951 -21.42491699 140.97149902 -21.12866211 139.92651367 C-20.85546143 138.95431885 -20.58226074 137.98212402 -20.30078125 136.98046875 C-20.05497314 136.11059326 -19.80916504 135.24071777 -19.5559082 134.34448242 C-18.8851433 131.51560435 -18.76527962 128.89488468 -19 126 C-20.89179203 125.3185177 -20.89179203 125.3185177 -23 125 Z M-221 128 C-221.66 129.32 -222.32 130.64 -223 132 C-222.01 131.34 -221.02 130.68 -220 130 C-220.33 129.34 -220.66 128.68 -221 128 Z M-225 133 C-225.99 133.99 -226.98 134.98 -228 136 C-227.67 136.66 -227.34 137.32 -227 138 C-226.01 137.01 -225.02 136.02 -224 135 C-224.33 134.34 -224.66 133.68 -225 133 Z M-230 139 C-231.32 140.32 -232.64 141.64 -234 143 C-233.67 143.66 -233.34 144.32 -233 145 C-231.68 143.68 -230.36 142.36 -229 141 C-229.33 140.34 -229.66 139.68 -230 139 Z M-235 145 C-236.32 146.32 -237.64 147.64 -239 149 C-238.67 149.66 -238.34 150.32 -238 151 C-236.68 149.68 -235.36 148.36 -234 147 C-234.33 146.34 -234.66 145.68 -235 145 Z M-240 151 C-245.32859205 156.70707148 -250.60350302 162.41270339 -255.5 168.5 C-259.13070308 173.01244525 -262.95682742 177.26934711 -266.90087891 181.50415039 C-270.77553511 185.69022374 -274.38395679 190.05810523 -277.9296875 194.52734375 C-280.14871349 197.17761441 -282.52475143 199.58943563 -285 202 C-284.67 202.66 -284.34 203.32 -284 204 C-279.07056216 199.20541001 -274.46899975 194.22372647 -270 189 C-269.11596463 187.96868209 -268.23184351 186.93743769 -267.34765625 185.90625 C-265.84402676 184.15205757 -264.3407963 182.39752956 -262.83862305 180.64208984 C-258.42706983 175.4890013 -253.98849416 170.35970984 -249.54052734 165.23803711 C-246.01079191 161.17248806 -242.49925808 157.09181157 -239 153 C-239.495 152.01 -239.495 152.01 -240 151 Z M-286 204 C-287.98 205.98 -289.96 207.96 -292 210 C-291.67 210.66 -291.34 211.32 -291 212 C-289.02 210.02 -287.04 208.04 -285 206 C-285.33 205.34 -285.66 204.68 -286 204 Z M-295 214 C-296.65 215.65 -298.3 217.3 -300 219 C-299.67 219.66 -299.34 220.32 -299 221 C-297.35 219.35 -295.7 217.7 -294 216 C-294.33 215.34 -294.66 214.68 -295 214 Z M-306 226 C-306.66 227.32 -307.32 228.64 -308 230 C-307.01 229.34 -306.02 228.68 -305 228 C-305.33 227.34 -305.66 226.68 -306 226 Z " fill="#C0CAF5" transform="translate(448,1)"></path><path d="M0 0 C4.57433488 1.046234 9.09421967 2.28067723 13.625 3.5 C27.65627124 7.1764287 41.80035837 10.00200364 56.0625 12.625 C57.09118195 12.81451233 58.11986389 13.00402466 59.17971802 13.19927979 C64.24118816 14.13002533 69.30377487 15.05449368 74.3671875 15.97460938 C81.61409796 17.29206148 88.85736479 18.62751351 96.09347534 20.00311279 C97.99541288 20.36232934 99.89917172 20.71186101 101.80297852 21.06103516 C102.93147217 21.27550293 104.05996582 21.4899707 105.22265625 21.7109375 C106.17922119 21.88931152 107.13578613 22.06768555 108.12133789 22.25146484 C114.67637203 23.95596274 118.94051311 26.44484331 123.65234375 31.296875 C124.15617081 31.80873352 124.65999786 32.32059204 125.17909241 32.84796143 C126.77507329 34.47268494 128.35675701 36.11046005 129.9375 37.75 C132.02561588 39.89488082 134.11932517 42.03422816 136.21484375 44.171875 C136.71857513 44.68737915 137.22230652 45.2028833 137.74130249 45.73400879 C141.11478369 49.16510952 144.60433711 52.381427 148.26782227 55.49707031 C150.9886486 57.8578042 153.48702777 60.4221328 156 63 C159.86199797 66.91525022 163.78919329 70.64250859 167.984375 74.203125 C171.44942793 77.29212567 174.65758843 80.63981972 177.8984375 83.9609375 C179.83096046 86.04126091 179.83096046 86.04126091 182 87 C182.8125 90.3125 182.8125 90.3125 183 94 C181.75 96.0625 181.75 96.0625 180 98 C179.60296875 98.84433594 179.2059375 99.68867187 178.796875 100.55859375 C176.45211262 105.04932344 173.53054731 108.95112691 170.5 113 C169.87778564 113.83724609 169.25557129 114.67449219 168.61450195 115.53710938 C158.23176943 129.45339953 147.33603249 142.93858612 136.0859375 156.16210938 C133.17412087 159.59040745 130.32236523 163.05974315 127.5 166.5625 C123.38012399 171.62743717 119.01354876 176.420947 114.578125 181.20703125 C112.39561391 183.57141827 110.2453689 185.95501376 108.125 188.375 C107.58359375 188.99246094 107.0421875 189.60992187 106.484375 190.24609375 C105.50672717 191.40126184 104.55745903 192.58115294 103.640625 193.78515625 C101.80768957 196.17815528 100.43464089 197.81699331 97.625 199 C90.20148554 199 85.83137762 195.71370839 80.4375 191.0625 C79.02436523 189.87779875 77.61028551 188.69422384 76.1953125 187.51171875 C75.49180664 186.9192334 74.78830078 186.32674805 74.06347656 185.71630859 C71.0349167 183.19728637 67.92720918 180.78597655 64.8125 178.375 C59.66538122 174.36432428 54.64758319 170.22512593 49.68725586 165.98608398 C46.29057321 163.08361529 42.85214159 160.24387385 39.375 157.4375 C33.71877342 152.83455901 28.32385384 147.98211998 23 143 C22.44828125 142.55269531 21.8965625 142.10539063 21.328125 141.64453125 C19.27951765 139.10787332 18.61968515 136.14907388 17.75 133.0625 C16.15132151 127.63741524 14.41500239 122.30871358 12.45629883 117.00268555 C5.01810293 96.69545582 1.20287837 75.44280762 -2.95092773 54.27880859 C-4.57693282 46.00981128 -6.2397379 37.75464578 -8.06640625 29.52734375 C-8.23083725 28.78634933 -8.39526825 28.04535492 -8.56468201 27.28190613 C-9.3382328 23.80966598 -10.12212174 20.34005305 -10.91772461 16.87280273 C-11.19237549 15.65407471 -11.46702637 14.43534668 -11.75 13.1796875 C-11.99234375 12.12507324 -12.2346875 11.07045898 -12.484375 9.98388672 C-13.02218306 6.87162812 -13.30531618 4.14801187 -13 1 C-8.5633296 -1.95778026 -5.1106933 -0.8785324 0 0 Z M0 15 C0.23074219 15.96035156 0.46148437 16.92070312 0.69921875 17.91015625 C3.63972784 30.2361468 6.33922155 42.61095563 9 55 C9.33 55 9.66 55 10 55 C9.81878899 46.41718743 8.37847031 38.30564323 6.5625 29.9375 C6.2363269 28.42047485 6.2363269 28.42047485 5.90356445 26.87280273 C4.95522591 22.62790969 4.09487644 18.8406993 2 15 C1.34 15 0.68 15 0 15 Z M95 28 C98.09048933 31.09048933 101.97920432 32.42243897 105.9375 34.1875 C106.76185547 34.56841797 107.58621094 34.94933594 108.43554688 35.34179688 C109.62567383 35.87450195 109.62567383 35.87450195 110.83984375 36.41796875 C111.92833618 36.90946411 111.92833618 36.90946411 113.03881836 37.41088867 C115.18098722 38.25955031 115.18098722 38.25955031 118 37 C111.56923182 30.44657412 106.55011415 28.19474085 97.4375 27.875 C96.633125 27.91625 95.82875 27.9575 95 28 Z M10 55 C10 56.65 10 58.3 10 60 C10.33 60 10.66 60 11 60 C11 58.35 11 56.7 11 55 C10.67 55 10.34 55 10 55 Z M11 61 C12 64 12 64 12 64 Z " fill="#C0CAF5" transform="translate(13,12)"></path><path d="M0 0 C4.43517944 3.95570058 8.34954752 8.21477659 12.234375 12.69921875 C14.68043708 15.48092469 17.1794091 18.21189708 19.6875 20.9375 C23.864594 25.47859384 28.01449938 30.04208827 32.1328125 34.63671875 C33.60043386 36.2700393 35.07453787 37.89755543 36.5546875 39.51953125 C41.23912212 44.66592568 45.69570267 49.94397043 50.0703125 55.35546875 C52.20733782 57.93553591 54.41985745 60.40964485 56.6875 62.875 C61.67747275 68.36483185 66.21365297 74.17524937 70.74560547 80.04101562 C72.44803562 82.23735743 74.16258175 84.42387586 75.87890625 86.609375 C93.3125 108.84084529 93.3125 108.84084529 93.3125 112.0625 C94.9625 112.3925 96.6125 112.7225 98.3125 113.0625 C98.64385863 116.62078188 98.79101491 118.43099053 96.58984375 121.3359375 C95.81769531 122.02945313 95.04554688 122.72296875 94.25 123.4375 C91.40012422 126.10208974 88.64855376 128.71100069 86.125 131.6875 C82.67342898 135.71031005 79.06270502 139.57195254 75.4375 143.4375 C70.81016249 148.37356835 66.23666749 153.34725048 61.73046875 158.39453125 C57.99227507 162.51922638 54.17763874 166.57247727 50.359375 170.62304688 C46.97026965 174.23217387 43.74651996 177.900269 40.6784668 181.78833008 C39.3125 183.0625 39.3125 183.0625 36.3125 183.0625 C36.3125 183.7225 36.3125 184.3825 36.3125 185.0625 C32.30593297 186.43975742 29.23012002 185.92250747 25.33203125 184.32421875 C22.94472023 182.83272656 21.75669924 181.28761805 20.125 179 C16.06236341 173.33417049 10.82478756 169.58987214 5.26660156 165.51367188 C1.58710908 162.78117521 -2.01317288 159.94594113 -5.625 157.125 C-7.17313692 155.91921926 -8.72131364 154.71348962 -10.26953125 153.5078125 C-11.74224296 152.35944612 -13.21490226 151.21101252 -14.6875 150.0625 C-15.31833496 149.57104492 -15.94916992 149.07958984 -16.59912109 148.57324219 C-25.45207978 141.67175514 -34.19028715 134.63640327 -42.88330078 127.53466797 C-44.47023046 126.23978489 -46.06098737 124.94959522 -47.65234375 123.66015625 C-54.56145201 118.04967626 -61.33590027 112.29019322 -68.06445312 106.46533203 C-69.56476889 105.16857896 -71.07118276 103.87889029 -72.578125 102.58984375 C-73.39796875 101.87957031 -74.2178125 101.16929687 -75.0625 100.4375 C-75.77148438 99.82648438 -76.48046875 99.21546875 -77.2109375 98.5859375 C-78.6875 97.0625 -78.6875 97.0625 -78.6875 95.0625 C-79.24953125 94.80082031 -79.8115625 94.53914063 -80.390625 94.26953125 C-82.91541271 92.94272954 -85.14139843 91.44206178 -87.4375 89.75 C-88.23671875 89.17636719 -89.0359375 88.60273438 -89.859375 88.01171875 C-91.6875 86.0625 -91.6875 86.0625 -92.07739258 83.73364258 C-91.53954728 80.04888024 -89.99097984 78.88172749 -87.27734375 76.375 C-86.37048828 75.51132812 -85.46363281 74.64765625 -84.52929688 73.7578125 C-82.59099927 71.9589889 -80.65088924 70.16211631 -78.70898438 68.3671875 C-77.80341797 67.50351562 -76.89785156 66.63984375 -75.96484375 65.75 C-75.12171631 64.97011719 -74.27858887 64.19023437 -73.40991211 63.38671875 C-71.36683228 61.18097172 -71.36683228 61.18097172 -71.9855957 58.38525391 C-72.21722412 57.61874512 -72.44885254 56.85223633 -72.6875 56.0625 C-71.640625 54.2109375 -71.640625 54.2109375 -69.9375 52.4375 C-68.96296875 51.41076172 -68.96296875 51.41076172 -67.96875 50.36328125 C-67.2159375 49.60402344 -66.463125 48.84476562 -65.6875 48.0625 C-64.43453125 46.75345703 -64.43453125 46.75345703 -63.15625 45.41796875 C-57.03588346 39.13052323 -50.55295676 33.52505372 -43.6875 28.0625 C-42.46806648 27.05578577 -41.25074063 26.04651489 -40.03515625 25.03515625 C-33.09044002 19.27660898 -26.04074425 13.73014732 -18.6875 8.5 C-18.00606934 8.01168701 -17.32463867 7.52337402 -16.62255859 7.02026367 C-4.40573864 -1.53688557 -4.40573864 -1.53688557 0 0 Z M-57.6875 58.0625 C-65.9375 66.3125 -74.1875 74.5625 -82.6875 83.0625 C-77.90179968 87.85286888 -77.90179968 87.85286888 -72.6875 92.0625 C-72.0275 92.0625 -71.3675 92.0625 -70.6875 92.0625 C-70.6359375 91.52625 -70.584375 90.99 -70.53125 90.4375 C-68.93036776 79.37685907 -62.98230684 69.15186235 -56.6875 60.0625 C-57.0175 59.4025 -57.3475 58.7425 -57.6875 58.0625 Z M-7.6875 137.0625 C0.68886451 147.11413741 9.79144522 155.00572516 20.37548828 162.64990234 C21.6850203 163.60490011 22.98014571 164.57992125 24.26123047 165.57275391 C25.88972334 166.81218704 27.5965728 167.94725233 29.3125 169.0625 C30.3025 168.7325 31.2925 168.4025 32.3125 168.0625 C28.04601633 163.45850545 23.21717164 159.95758524 18.125 156.3125 C11.84601874 151.76079105 5.85211788 147.17542223 0.22265625 141.83203125 C-3.23151868 138.32607364 -3.23151868 138.32607364 -7.6875 137.0625 Z " fill="#C0CAF5" transform="translate(356.6875,261.9375)"></path></svg>