<svg xmlns="http://www.w3.org/2000/svg" xmlns:xlink="http://www.w3.org/1999/xlink" width="16px" height="16px" viewBox="0 0 400 400" version="1.1" fill="currentColor"><g id="surface1"><path style=" stroke:none;fill-rule:nonzero;fill:rgb(75.294119%,79.215688%,96.078432%);fill-opacity:1;" d="M 393.847656 0.878906 C 394.136719 2.328125 394.425781 3.78125 394.726562 5.273438 C 393.566406 5.855469 392.40625 6.433594 391.207031 7.03125 C 391.515625 7.511719 391.824219 7.988281 392.140625 8.480469 C 392.539062 9.109375 392.941406 9.738281 393.351562 10.382812 C 393.75 11.007812 394.148438 11.628906 394.558594 12.269531 C 396.757812 16.039062 396.464844 19.273438 396.167969 23.464844 C 396.125 24.128906 396.082031 24.796875 396.035156 25.480469 C 395.898438 27.539062 395.753906 29.59375 395.605469 31.648438 C 395.5625 32.246094 395.519531 32.847656 395.476562 33.464844 C 388.898438 125.222656 388.898438 125.222656 372.746094 149.449219 C 372.167969 149.449219 371.585938 149.449219 370.988281 149.449219 C 370.777344 149.96875 370.5625 150.484375 370.34375 151.019531 C 369.023438 153.332031 367.644531 154.425781 365.515625 156.015625 C 364.761719 156.585938 364.003906 157.15625 363.226562 157.742188 C 362.414062 158.339844 361.605469 158.941406 360.769531 159.558594 C 359.9375 160.1875 359.105469 160.8125 358.246094 161.457031 C 355.757812 163.320312 353.265625 165.179688 350.769531 167.03125 C 348.3125 168.863281 345.859375 170.695312 343.40625 172.527344 C 342.84375 172.949219 342.28125 173.367188 341.699219 173.800781 C 336.617188 177.613281 331.660156 181.570312 326.71875 185.558594 C 324.15625 187.625 321.570312 189.660156 318.976562 191.683594 C 308.722656 199.679688 298.722656 207.980469 288.824219 216.40625 C 285.859375 218.925781 282.859375 221.398438 279.835938 223.847656 C 275.96875 226.992188 272.269531 230.28125 268.585938 233.640625 C 266.363281 235.613281 264.078125 237.480469 261.757812 239.339844 C 256.691406 243.4375 251.96875 247.851562 247.222656 252.308594 C 244.589844 254.777344 241.894531 257.160156 239.160156 259.519531 C 236.339844 261.996094 233.585938 264.546875 230.820312 267.089844 C 228.054688 269.636719 225.273438 272.160156 222.472656 274.671875 C 213.257812 282.945312 204.222656 291.414062 195.183594 299.875 C 193.960938 301.019531 192.742188 302.160156 191.519531 303.300781 C 184.589844 309.777344 177.6875 316.257812 171.066406 323.054688 C 169.347656 324.730469 167.628906 326.277344 165.800781 327.828125 C 159.894531 332.945312 154.503906 338.625 149.011719 344.175781 C 146.769531 346.441406 144.527344 348.703125 142.28125 350.960938 C 141.53125 351.722656 141.53125 351.722656 140.765625 352.496094 C 138.21875 355.0625 135.617188 357.511719 132.875 359.871094 C 128.773438 363.417969 124.996094 367.25 121.199219 371.117188 C 119.679688 372.652344 118.160156 374.183594 116.640625 375.71875 C 114.269531 378.117188 111.902344 380.515625 109.539062 382.917969 C 107.242188 385.253906 104.933594 387.582031 102.628906 389.90625 C 101.921875 390.628906 101.214844 391.351562 100.488281 392.09375 C 99.828125 392.761719 99.164062 393.425781 98.480469 394.113281 C 97.613281 394.992188 97.613281 394.992188 96.726562 395.890625 C 94.75 397.523438 92.960938 398.285156 90.550781 399.121094 C 89.863281 399.410156 89.175781 399.695312 88.46875 399.992188 C 84.621094 400.003906 82.585938 397.371094 79.890625 394.835938 C 78.710938 393.765625 77.527344 392.699219 76.347656 391.632812 C 75.480469 390.84375 75.480469 390.84375 74.597656 390.039062 C 72.464844 388.121094 70.257812 386.304688 68.023438 384.503906 C 64.503906 381.65625 61.03125 378.757812 57.582031 375.824219 C 54.09375 372.859375 50.585938 369.921875 47.03125 367.03125 C 43.480469 364.140625 39.972656 361.207031 36.484375 358.242188 C 32.210938 354.613281 27.898438 351.039062 23.550781 347.5 C 19.191406 343.933594 14.871094 340.316406 10.550781 336.703125 C 10.824219 334.617188 10.824219 334.617188 11.429688 332.308594 C 12.300781 331.726562 13.167969 331.148438 14.066406 330.550781 C 12.59375 329.023438 12.59375 329.023438 10.550781 327.910156 C 8.355469 328.597656 8.355469 328.597656 6.152344 329.671875 C 3.734375 329.835938 3.734375 329.835938 1.757812 329.671875 C 0.878906 328.792969 0.878906 328.792969 0.605469 326.867188 C 0.96875 323.585938 2.542969 321.816406 4.394531 319.121094 C 4.472656 318.453125 4.550781 317.789062 4.628906 317.101562 C 5.566406 313.644531 7.863281 311.679688 10.359375 309.253906 C 10.890625 308.722656 11.421875 308.195312 11.96875 307.648438 C 13.722656 305.898438 15.492188 304.164062 17.257812 302.429688 C 18.484375 301.210938 19.710938 299.992188 20.9375 298.773438 C 24.167969 295.558594 27.40625 292.359375 30.652344 289.160156 C 35.824219 284.050781 40.984375 278.925781 46.144531 273.804688 C 47.9375 272.023438 49.738281 270.246094 51.539062 268.46875 C 58.859375 261.246094 58.859375 261.246094 65.726562 253.59375 C 67.164062 251.890625 68.726562 250.339844 70.328125 248.792969 C 73.058594 246.101562 75.585938 243.3125 78.082031 240.410156 C 80.714844 237.433594 83.4375 234.542969 86.152344 231.648438 C 89.828125 227.730469 93.46875 223.800781 96.972656 219.730469 C 98.859375 217.566406 100.804688 215.464844 102.746094 213.351562 C 105.640625 210.1875 108.414062 206.96875 111.097656 203.625 C 114.5 199.410156 118.109375 195.457031 121.808594 191.507812 C 125.257812 187.804688 128.457031 183.945312 131.625 179.996094 C 133.816406 177.351562 136.121094 174.824219 138.460938 172.308594 C 142.25 168.234375 145.804688 164.023438 149.292969 159.691406 C 151.1875 157.386719 153.15625 155.171875 155.164062 152.96875 C 157.820312 150.046875 160.375 147.078125 162.855469 144.011719 C 167.429688 138.367188 172.199219 132.898438 176.972656 127.421875 C 179.394531 124.640625 181.8125 121.855469 184.230469 119.066406 C 184.703125 118.523438 185.171875 117.980469 185.65625 117.421875 C 189.363281 113.144531 193.039062 108.847656 196.710938 104.542969 C 199.242188 101.585938 201.820312 98.6875 204.449219 95.824219 C 207.886719 92.035156 211.046875 88.078125 214.179688 84.039062 C 217.328125 79.988281 220.542969 76.003906 223.792969 72.03125 C 227.988281 66.894531 232.09375 61.699219 236.105469 56.417969 C 237.621094 54.4375 239.148438 52.480469 240.707031 50.53125 C 241.113281 50.019531 241.519531 49.507812 241.9375 48.980469 C 242.710938 48.003906 243.492188 47.03125 244.277344 46.066406 C 246.410156 43.355469 247.550781 41.25 247.910156 37.800781 C 249.597656 37.503906 249.597656 37.503906 251.320312 37.199219 C 253.265625 36.769531 253.265625 36.769531 254.945312 36.042969 C 255.558594 34.589844 256.140625 33.121094 256.703125 31.648438 C 260.929688 28.828125 265.804688 27.332031 270.667969 26.042969 C 271.664062 25.773438 271.664062 25.773438 272.679688 25.496094 C 274.878906 24.898438 277.082031 24.316406 279.285156 23.734375 C 280.058594 23.53125 280.832031 23.324219 281.625 23.113281 C 312.421875 14.941406 343.617188 8.242188 374.882812 2.132812 C 375.472656 2.015625 376.0625 1.902344 376.667969 1.78125 C 382.675781 0.621094 387.773438 -0.234375 393.847656 0.878906 Z M 299.339844 74.066406 C 297.957031 75.53125 297.957031 75.53125 297.265625 77.308594 C 296.09375 79.425781 294.976562 80.214844 292.96875 81.539062 C 287.273438 85.648438 283.429688 90.550781 282.199219 97.582031 C 281.3125 104.054688 282.890625 108.929688 286.59375 114.285156 C 291.875 120.207031 297.390625 123.878906 305.382812 124.339844 C 312.003906 124.078125 318.210938 121.273438 323.046875 116.78125 C 328.039062 110.796875 330.3125 103.550781 329.671875 95.824219 C 327.003906 87.371094 322.234375 81.019531 314.496094 76.707031 C 306.863281 73.03125 306.863281 73.03125 299.339844 74.066406 Z M 231.207031 85.273438 C 232.089844 87.03125 232.089844 87.03125 232.089844 87.03125 Z M 228.570312 88.792969 C 229.449219 90.550781 229.449219 90.550781 229.449219 90.550781 Z M 226.8125 91.429688 C 218.722656 101.300781 218.722656 101.300781 210.878906 111.375 C 207.15625 116.257812 203.246094 120.945312 199.253906 125.609375 C 197.121094 128.105469 195.039062 130.640625 192.96875 133.1875 C 185.949219 141.800781 178.699219 150.222656 171.460938 158.648438 C 169.683594 160.714844 167.914062 162.789062 166.152344 164.871094 C 160.914062 171.035156 155.550781 177.042969 150.039062 182.960938 C 148.195312 184.953125 146.390625 186.957031 144.617188 189.011719 C 141.078125 193.097656 137.386719 197.046875 133.710938 201.011719 C 131.234375 203.6875 128.777344 206.375 126.320312 209.066406 C 109.960938 226.9375 109.960938 226.9375 101.402344 235.246094 C 99.792969 236.898438 98.316406 238.554688 96.832031 240.308594 C 92.160156 245.660156 87.085938 250.621094 82.0625 255.636719 C 80.984375 256.714844 79.90625 257.792969 78.828125 258.871094 C 76.578125 261.125 74.328125 263.375 72.074219 265.621094 C 69.203125 268.488281 66.335938 271.359375 63.472656 274.230469 C 61.25 276.453125 59.023438 278.679688 56.796875 280.902344 C 55.742188 281.957031 54.683594 283.015625 53.628906 284.074219 C 43.664062 294.054688 43.664062 294.054688 38.355469 298.539062 C 35.816406 300.734375 33.496094 303.148438 31.152344 305.550781 C 28.125 308.628906 25.121094 311.621094 21.757812 314.339844 C 19.308594 316.511719 18.996094 316.992188 18.460938 320 C 21.339844 320.296875 21.339844 320.296875 23.609375 317.714844 C 24.589844 316.707031 25.566406 315.691406 26.539062 314.671875 C 27.574219 313.609375 28.609375 312.546875 29.644531 311.488281 C 30.144531 310.976562 30.644531 310.46875 31.15625 309.941406 C 32.757812 308.339844 34.425781 306.847656 36.152344 305.382812 C 39.507812 302.539062 42.574219 299.429688 45.660156 296.300781 C 47.929688 294.011719 50.234375 291.816406 52.691406 289.726562 C 55.804688 287.074219 58.667969 284.226562 61.539062 281.320312 C 64.371094 278.449219 67.195312 275.632812 70.273438 273.023438 C 74.050781 269.816406 77.492188 266.292969 80.949219 262.753906 C 83.414062 260.246094 85.929688 257.863281 88.59375 255.574219 C 92.984375 251.777344 97.0625 247.683594 101.152344 243.570312 C 101.910156 242.820312 102.664062 242.066406 103.441406 241.292969 C 107.320312 237.40625 111.074219 233.46875 114.652344 229.304688 C 116.8125 226.804688 119.066406 224.394531 121.320312 221.976562 C 124.667969 218.367188 127.972656 214.726562 131.195312 211 C 133.105469 208.820312 135.070312 206.695312 137.03125 204.558594 C 139.925781 201.394531 142.699219 198.175781 145.382812 194.835938 C 148.363281 191.140625 151.484375 187.636719 154.726562 184.175781 C 158.679688 179.953125 162.402344 175.601562 166.027344 171.089844 C 167.910156 168.792969 169.867188 166.589844 171.867188 164.394531 C 175.25 160.683594 178.433594 156.847656 181.589844 152.941406 C 183.980469 150.03125 186.4375 147.1875 188.902344 144.339844 C 193.660156 138.824219 198.1875 133.160156 202.644531 127.398438 C 204.050781 125.59375 205.472656 123.800781 206.894531 122.007812 C 214.273438 112.6875 221.105469 103.082031 227.691406 93.1875 C 227.402344 92.605469 227.113281 92.027344 226.8125 91.429688 Z M 206.59375 104.617188 C 207.472656 106.375 207.472656 106.375 207.472656 106.375 Z M 203.078125 109.011719 C 203.078125 111.648438 203.078125 111.648438 203.078125 111.648438 Z M 373.625 110.769531 C 371.492188 112.902344 371.484375 113.902344 371.050781 116.84375 C 370.84375 118.152344 370.84375 118.152344 370.636719 119.484375 C 370.363281 121.304688 370.089844 123.128906 369.824219 124.949219 C 367.808594 137.652344 362.550781 145.582031 352.519531 153.480469 C 349.773438 155.699219 347.191406 158.03125 344.617188 160.441406 C 340.453125 164.324219 336.152344 167.933594 331.671875 171.453125 C 329.796875 173.078125 328.425781 174.660156 327.03125 176.703125 C 329.398438 175.585938 331.445312 174.371094 333.511719 172.769531 C 334.082031 172.328125 334.648438 171.890625 335.234375 171.441406 C 336.152344 170.726562 336.152344 170.726562 337.089844 170 C 338.417969 168.972656 339.75 167.949219 341.082031 166.921875 C 341.789062 166.375 342.5 165.828125 343.230469 165.265625 C 347.273438 162.144531 351.328125 159.039062 355.382812 155.933594 C 356.167969 155.332031 356.953125 154.726562 357.761719 154.105469 C 358.503906 153.535156 359.25 152.96875 360.015625 152.382812 C 360.996094 151.628906 360.996094 151.628906 362 150.859375 C 363.957031 149.449219 363.957031 149.449219 366.296875 148.21875 C 368.824219 146.488281 369.210938 145.386719 370.035156 142.472656 C 370.285156 141.613281 370.539062 140.753906 370.796875 139.867188 C 371.042969 138.96875 371.285156 138.070312 371.539062 137.144531 C 371.914062 135.835938 371.914062 135.835938 372.300781 134.503906 C 373.054688 131.871094 373.78125 129.234375 374.503906 126.59375 C 374.757812 125.703125 375.011719 124.808594 375.273438 123.890625 C 375.511719 123.035156 375.75 122.183594 376 121.300781 C 376.214844 120.535156 376.429688 119.773438 376.652344 118.984375 C 377.242188 116.496094 377.347656 114.191406 377.144531 111.648438 C 375.480469 111.050781 375.480469 111.050781 373.625 110.769531 Z M 199.558594 113.40625 C 198.980469 114.566406 198.398438 115.726562 197.800781 116.921875 C 198.671875 116.34375 199.542969 115.761719 200.441406 115.164062 C 200.148438 114.585938 199.859375 114.003906 199.558594 113.40625 Z M 196.042969 117.800781 C 195.171875 118.671875 194.304688 119.542969 193.40625 120.441406 C 193.695312 121.019531 193.988281 121.601562 194.285156 122.199219 C 195.15625 121.328125 196.027344 120.457031 196.921875 119.558594 C 196.632812 118.980469 196.34375 118.398438 196.042969 117.800781 Z M 191.648438 123.078125 C 190.488281 124.238281 189.328125 125.398438 188.132812 126.59375 C 188.421875 127.171875 188.710938 127.753906 189.011719 128.351562 C 190.171875 127.191406 191.332031 126.03125 192.527344 124.835938 C 192.238281 124.253906 191.945312 123.675781 191.648438 123.078125 Z M 187.253906 128.351562 C 186.09375 129.511719 184.933594 130.671875 183.734375 131.867188 C 184.027344 132.449219 184.316406 133.027344 184.617188 133.625 C 185.777344 132.464844 186.9375 131.304688 188.132812 130.109375 C 187.839844 129.53125 187.550781 128.949219 187.253906 128.351562 Z M 182.855469 133.625 C 178.171875 138.644531 173.535156 143.660156 169.230469 149.011719 C 166.039062 152.976562 162.675781 156.71875 159.207031 160.441406 C 155.800781 164.125 152.628906 167.964844 149.511719 171.890625 C 147.5625 174.222656 145.472656 176.34375 143.296875 178.460938 C 143.585938 179.042969 143.875 179.621094 144.175781 180.21875 C 148.507812 176.003906 152.554688 171.625 156.484375 167.03125 C 157.261719 166.125 158.039062 165.21875 158.816406 164.3125 C 160.136719 162.769531 161.457031 161.230469 162.777344 159.683594 C 166.65625 155.15625 170.558594 150.644531 174.46875 146.144531 C 177.574219 142.570312 180.660156 138.980469 183.734375 135.382812 C 183.300781 134.515625 183.300781 134.515625 182.855469 133.625 Z M 142.417969 180.21875 C 140.675781 181.960938 138.9375 183.699219 137.144531 185.496094 C 137.433594 186.074219 137.722656 186.65625 138.023438 187.253906 C 139.761719 185.511719 141.503906 183.769531 143.296875 181.976562 C 143.007812 181.398438 142.714844 180.816406 142.417969 180.21875 Z M 134.503906 189.011719 C 133.054688 190.460938 131.605469 191.910156 130.109375 193.40625 C 130.398438 193.988281 130.691406 194.566406 130.988281 195.164062 C 132.441406 193.714844 133.890625 192.265625 135.382812 190.769531 C 135.09375 190.1875 134.804688 189.609375 134.503906 189.011719 Z M 124.835938 199.558594 C 124.253906 200.722656 123.675781 201.882812 123.078125 203.078125 C 123.945312 202.496094 124.816406 201.917969 125.714844 201.320312 C 125.425781 200.738281 125.132812 200.160156 124.835938 199.558594 Z M 124.835938 199.558594 "></path><path style=" stroke:none;fill-rule:nonzero;fill:rgb(75.294119%,79.215688%,96.078432%);fill-opacity:1;" d="M 11.429688 10.550781 C 15.449219 11.46875 19.421875 12.554688 23.40625 13.625 C 35.742188 16.859375 48.175781 19.34375 60.714844 21.648438 C 61.617188 21.816406 62.523438 21.980469 63.453125 22.152344 C 67.90625 22.972656 72.355469 23.785156 76.804688 24.59375 C 83.175781 25.75 89.546875 26.925781 95.90625 28.132812 C 97.578125 28.449219 99.253906 28.757812 100.925781 29.066406 C 101.917969 29.253906 102.910156 29.441406 103.933594 29.636719 C 104.773438 29.792969 105.613281 29.949219 106.480469 30.109375 C 112.242188 31.609375 115.992188 33.796875 120.132812 38.0625 C 120.578125 38.511719 121.019531 38.964844 121.476562 39.425781 C 122.878906 40.855469 124.269531 42.292969 125.660156 43.734375 C 127.496094 45.621094 129.335938 47.503906 131.179688 49.382812 C 131.621094 49.835938 132.0625 50.289062 132.519531 50.753906 C 135.484375 53.773438 138.554688 56.597656 141.773438 59.339844 C 144.164062 61.414062 146.363281 63.667969 148.570312 65.933594 C 151.964844 69.375 155.417969 72.652344 159.105469 75.78125 C 162.152344 78.5 164.972656 81.441406 167.824219 84.359375 C 169.523438 86.191406 169.523438 86.191406 171.429688 87.03125 C 172.144531 89.945312 172.144531 89.945312 172.308594 93.1875 C 171.207031 95 171.207031 95 169.671875 96.703125 C 169.320312 97.445312 168.972656 98.1875 168.613281 98.953125 C 166.550781 102.902344 163.984375 106.332031 161.320312 109.890625 C 160.773438 110.625 160.226562 111.363281 159.660156 112.121094 C 150.535156 124.355469 140.953125 136.210938 131.066406 147.835938 C 128.503906 150.847656 125.996094 153.898438 123.515625 156.976562 C 119.894531 161.429688 116.054688 165.644531 112.15625 169.851562 C 110.238281 171.929688 108.347656 174.027344 106.484375 176.152344 C 106.007812 176.695312 105.53125 177.238281 105.042969 177.796875 C 104.183594 178.8125 103.347656 179.851562 102.542969 180.910156 C 100.929688 183.015625 99.722656 184.453125 97.253906 185.496094 C 90.726562 185.496094 86.882812 182.605469 82.144531 178.515625 C 80.902344 177.476562 79.65625 176.433594 78.414062 175.394531 C 77.796875 174.875 77.175781 174.351562 76.539062 173.816406 C 73.875 171.601562 71.144531 169.480469 68.40625 167.363281 C 63.882812 163.835938 59.46875 160.199219 55.109375 156.472656 C 52.125 153.917969 49.101562 151.421875 46.042969 148.957031 C 41.070312 144.910156 36.328125 140.644531 31.648438 136.265625 C 31.164062 135.871094 30.679688 135.476562 30.179688 135.070312 C 28.378906 132.84375 27.796875 130.242188 27.03125 127.527344 C 25.628906 122.757812 24.101562 118.074219 22.378906 113.410156 C 15.839844 95.554688 12.484375 76.871094 8.835938 58.265625 C 7.40625 50.996094 5.941406 43.742188 4.335938 36.507812 C 4.191406 35.855469 4.046875 35.203125 3.898438 34.535156 C 3.21875 31.480469 2.53125 28.429688 1.832031 25.382812 C 1.589844 24.3125 1.347656 23.238281 1.097656 22.136719 C 0.886719 21.207031 0.671875 20.28125 0.453125 19.328125 C -0.0195312 16.589844 -0.269531 14.195312 0 11.429688 C 3.898438 8.828125 6.9375 9.777344 11.429688 10.550781 Z M 11.429688 23.734375 C 11.632812 24.582031 11.835938 25.425781 12.042969 26.292969 C 14.628906 37.128906 17 48.007812 19.339844 58.902344 C 19.628906 58.902344 19.921875 58.902344 20.21875 58.902344 C 20.058594 51.355469 18.792969 44.226562 17.199219 36.867188 C 16.910156 35.535156 16.910156 35.535156 16.617188 34.175781 C 15.785156 30.441406 15.027344 27.113281 13.1875 23.734375 C 12.605469 23.734375 12.027344 23.734375 11.429688 23.734375 Z M 94.945312 35.164062 C 97.660156 37.882812 101.082031 39.050781 104.558594 40.605469 C 105.285156 40.9375 106.011719 41.273438 106.757812 41.621094 C 107.804688 42.085938 107.804688 42.085938 108.871094 42.566406 C 109.828125 42.996094 109.828125 42.996094 110.804688 43.4375 C 112.6875 44.183594 112.6875 44.183594 115.164062 43.078125 C 109.511719 37.316406 105.097656 35.335938 97.089844 35.054688 C 96.378906 35.089844 95.671875 35.128906 94.945312 35.164062 Z M 20.21875 58.902344 C 20.21875 60.351562 20.21875 61.800781 20.21875 63.296875 C 20.511719 63.296875 20.800781 63.296875 21.097656 63.296875 C 21.097656 61.847656 21.097656 60.394531 21.097656 58.902344 C 20.808594 58.902344 20.519531 58.902344 20.21875 58.902344 Z M 21.097656 64.175781 C 21.976562 66.8125 21.976562 66.8125 21.976562 66.8125 Z M 21.097656 64.175781 "></path><path style=" stroke:none;fill-rule:nonzero;fill:rgb(75.294119%,79.215688%,96.078432%);fill-opacity:1;" d="M 313.570312 230.273438 C 317.46875 233.753906 320.910156 237.496094 324.328125 241.4375 C 326.476562 243.882812 328.675781 246.285156 330.878906 248.679688 C 334.550781 252.671875 338.199219 256.683594 341.820312 260.722656 C 343.109375 262.160156 344.40625 263.589844 345.707031 265.015625 C 349.824219 269.542969 353.742188 274.179688 357.589844 278.9375 C 359.46875 281.207031 361.414062 283.382812 363.40625 285.550781 C 367.792969 290.375 371.78125 295.484375 375.765625 300.640625 C 377.261719 302.570312 378.769531 304.492188 380.277344 306.414062 C 395.605469 325.960938 395.605469 325.960938 395.605469 328.792969 C 397.054688 329.082031 398.503906 329.371094 400 329.671875 C 400.292969 332.796875 400.421875 334.390625 398.484375 336.945312 C 397.808594 337.554688 397.128906 338.164062 396.429688 338.792969 C 393.921875 341.132812 391.503906 343.425781 389.285156 346.042969 C 386.25 349.582031 383.078125 352.976562 379.890625 356.375 C 375.820312 360.714844 371.800781 365.085938 367.839844 369.523438 C 364.554688 373.148438 361.199219 376.710938 357.84375 380.273438 C 354.863281 383.445312 352.03125 386.671875 349.332031 390.089844 C 348.132812 391.207031 348.132812 391.207031 345.496094 391.207031 C 345.496094 391.789062 345.496094 392.371094 345.496094 392.96875 C 341.972656 394.179688 339.269531 393.722656 335.839844 392.316406 C 333.742188 391.007812 332.699219 389.648438 331.265625 387.636719 C 327.691406 382.65625 323.085938 379.363281 318.203125 375.78125 C 314.964844 373.378906 311.800781 370.886719 308.625 368.40625 C 307.265625 367.347656 305.90625 366.285156 304.542969 365.226562 C 303.25 364.21875 301.953125 363.207031 300.660156 362.199219 C 300.105469 361.765625 299.550781 361.332031 298.980469 360.886719 C 291.195312 354.820312 283.515625 348.636719 275.871094 342.394531 C 274.476562 341.253906 273.078125 340.121094 271.679688 338.988281 C 265.605469 334.054688 259.648438 328.992188 253.734375 323.871094 C 252.414062 322.730469 251.089844 321.597656 249.765625 320.464844 C 249.046875 319.839844 248.324219 319.214844 247.582031 318.570312 C 246.960938 318.035156 246.335938 317.496094 245.695312 316.945312 C 244.394531 315.605469 244.394531 315.605469 244.394531 313.847656 C 243.902344 313.617188 243.40625 313.386719 242.898438 313.148438 C 240.679688 311.984375 238.722656 310.664062 236.703125 309.175781 C 236 308.671875 235.296875 308.167969 234.574219 307.648438 C 232.96875 305.933594 232.96875 305.933594 232.625 303.886719 C 233.097656 300.648438 234.457031 299.621094 236.84375 297.417969 C 237.640625 296.660156 238.4375 295.898438 239.261719 295.117188 C 240.964844 293.535156 242.667969 291.957031 244.375 290.378906 C 245.171875 289.617188 245.96875 288.859375 246.789062 288.078125 C 247.53125 287.390625 248.273438 286.707031 249.035156 286 C 250.832031 284.058594 250.832031 284.058594 250.289062 281.601562 C 250.082031 280.929688 249.878906 280.253906 249.671875 279.558594 C 250.589844 277.933594 250.589844 277.933594 252.089844 276.375 C 252.945312 275.472656 252.945312 275.472656 253.820312 274.550781 C 254.480469 273.882812 255.140625 273.214844 255.824219 272.527344 C 256.925781 271.375 256.925781 271.375 258.050781 270.203125 C 263.429688 264.675781 269.128906 259.746094 275.164062 254.945312 C 276.238281 254.058594 277.308594 253.171875 278.375 252.285156 C 284.480469 247.222656 290.679688 242.34375 297.144531 237.746094 C 297.742188 237.316406 298.339844 236.890625 298.957031 236.445312 C 309.699219 228.921875 309.699219 228.921875 313.570312 230.273438 Z M 262.855469 281.320312 C 255.605469 288.570312 248.351562 295.824219 240.878906 303.296875 C 245.085938 307.507812 245.085938 307.507812 249.671875 311.207031 C 250.25 311.207031 250.832031 311.207031 251.429688 311.207031 C 251.472656 310.738281 251.519531 310.265625 251.566406 309.78125 C 252.972656 300.054688 258.203125 291.066406 263.734375 283.078125 C 263.445312 282.496094 263.15625 281.917969 262.855469 281.320312 Z M 306.8125 350.769531 C 314.175781 359.605469 322.179688 366.542969 331.484375 373.261719 C 332.636719 374.101562 333.773438 374.960938 334.898438 375.832031 C 336.332031 376.921875 337.832031 377.921875 339.339844 378.902344 C 340.210938 378.609375 341.082031 378.320312 341.976562 378.023438 C 338.226562 373.972656 333.980469 370.898438 329.503906 367.691406 C 323.984375 363.691406 318.714844 359.660156 313.765625 354.960938 C 310.730469 351.878906 310.730469 351.878906 306.8125 350.769531 Z M 306.8125 350.769531 "></path></g></svg>