<svg version="1.1" xmlns="http://www.w3.org/2000/svg" width="16px" height="16px" fill="currentColor" viewBox="0 0 455 549"><path d="M0 0 C1.44826172 0.43505859 1.44826172 0.43505859 2.92578125 0.87890625 C13.87480012 4.49829146 23.08266291 10.6028243 31 19 C31.33 19.99 31.66 20.98 32 22 C32.66 22 33.32 22 34 22 C53.96698501 47.67918949 55.57663989 81.91332853 55.56335449 112.99261475 C54.93656473 141.46336586 54.93656473 141.46336586 61.8125 168.8125 C62.06821777 169.42085693 62.32393555 170.02921387 62.58740234 170.65600586 C65.58052994 177.61955288 69.10027629 184.30093287 73.375 190.5625 C75 193 75 193 75 195 C75.66 195 76.32 195 77 195 C78.29590571 196.59381506 79.51152694 198.25324782 80.6875 199.9375 C83.9051417 204.49043359 87.24101623 208.89125441 90.75 213.22265625 C92 215 92 215 92 217 C92.66 217 93.32 217 94 217 C95.5078125 218.6796875 95.5078125 218.6796875 97.125 220.875 C97.66382813 221.59429687 98.20265625 222.31359375 98.7578125 223.0546875 C100 225 100 225 100 227 C100.66 227 101.32 227 102 227 C103.34106445 228.52539062 103.34106445 228.52539062 104.86328125 230.65625 C105.42080078 231.43226563 105.97832031 232.20828125 106.55273438 233.0078125 C107.13345703 233.83023438 107.71417969 234.65265625 108.3125 235.5 C108.88162109 236.29148438 109.45074219 237.08296875 110.03710938 237.8984375 C120 251.85334745 120 251.85334745 120 255 C120.66 255 121.32 255 122 255 C137.99100757 281.57723325 150.41286369 309.77463267 150.31567383 341.23535156 C150.31251371 343.365756 150.33607328 345.49476576 150.36132812 347.625 C150.41143686 358.50158015 149.32314585 368.87081649 145 379 C145.66 379.185625 146.32 379.37125 147 379.5625 C155.13198634 383.45907679 160.03392976 389.5853877 163 398 C163.74388946 400.7542295 164.37964176 403.52813728 165 406.3125 C167.63187586 418.11002904 170.80808303 427.26130785 178.96850586 436.31713867 C185.86675655 444.02099009 189.380791 452.04449859 189.2890625 462.39453125 C188.69061362 467.78865829 186.115564 472.46774428 182 476 C181.34 476 180.68 476 180 476 C180 476.66 180 477.32 180 478 C171.03781036 483.10229639 162.03300856 488.09687165 152.89819336 492.88427734 C148.42590611 495.23041238 144.01165793 497.6504733 139.6640625 500.22265625 C138 501 138 501 135 501 C135 501.66 135 502.32 135 503 C131.80973467 505.32019297 128.58273331 507.34643078 125 509 C125 509.66 125 510.32 125 511 C123.625 512.625 123.625 512.625 122 514 C121.34 514 120.68 514 120 514 C120 514.66 120 515.32 120 516 C119.34 516 118.68 516 118 516 C117.7421875 516.58265625 117.484375 517.1653125 117.21875 517.765625 C115.90165983 520.1802903 114.44911616 521.81740177 112.5 523.75 C111.8915625 524.36359375 111.283125 524.9771875 110.65625 525.609375 C109 527 109 527 107 527 C107 527.66 107 528.32 107 529 C104.78387326 530.71053498 102.58355627 532.27628898 100.25 533.8125 C99.5684082 534.26173828 98.88681641 534.71097656 98.18457031 535.17382812 C84.09765433 544.24051202 68.62338165 548.412323 52 544.9375 C40.76723913 541.83428591 31.01815912 534.52707535 25.1875 524.4375 C23.37580127 521.0676167 22.15571567 517.64494943 21 514 C20.03707031 514.04640625 19.07414062 514.0928125 18.08203125 514.140625 C7.96680737 514.45538096 -1.68024596 513.49117898 -11.6875 512 C-32.17691156 509.00145418 -50.39873924 510.64077631 -70.625 514.6875 C-76.83699085 515.90703195 -82.68304286 516.36135136 -89 516 C-89.12503906 516.59296875 -89.25007812 517.1859375 -89.37890625 517.796875 C-90.28502386 521.01102802 -92.01105711 523.34807614 -94 526 C-94.66 526 -95.32 526 -96 526 C-96.33 526.99 -96.66 527.98 -97 529 C-109.48115442 540.02985739 -125.06545091 540.19849194 -140.85742188 539.27783203 C-153.28457534 538.17916045 -164.00632218 533.79599533 -175.08764648 528.31225586 C-190.4571039 520.7379559 -206.38360914 518.09598754 -223.30859375 516.328125 C-250.52814945 513.4478667 -250.52814945 513.4478667 -260 505 C-265.4877865 497.49464493 -265.69726267 490.00019315 -265 481 C-264.15050419 477.61360081 -263.08156509 474.36894896 -261.96484375 471.0625 C-259.28175545 462.54613875 -260.15930748 454.60501759 -261.22363281 445.91333008 C-262.6830674 433.75349398 -263.92249928 422.11185921 -256.3515625 411.7421875 C-248.49194749 403.3566503 -236.99032198 400.00339576 -226.49853516 396.00219727 C-221.00026355 393.8398456 -221.00026355 393.8398456 -218 389 C-217.02563191 387.40076541 -216.02454893 385.81755987 -215 384.25 C-214.484375 383.45078125 -213.96875 382.6515625 -213.4375 381.828125 C-212.7259375 380.92320312 -212.7259375 380.92320312 -212 380 C-211.34 380 -210.68 380 -210 380 C-209.5978125 379.13375 -209.5978125 379.13375 -209.1875 378.25 C-208 376 -208 376 -206.42578125 374.453125 C-204.18903588 370.60469735 -204.82226823 366.85580763 -205 362.5 C-205.54165695 333.95542049 -196.40210877 307.6322932 -183.875 282.3125 C-183.47966064 281.51150879 -183.08432129 280.71051758 -182.67700195 279.88525391 C-180.20172858 275.00815438 -177.4053279 270.4953649 -174.32128906 265.98071289 C-172.83520915 263.75296598 -171.61641002 261.46550474 -170.4375 259.0625 C-166.25424698 251.20506708 -160.77241991 244.21015585 -155.50195312 237.06298828 C-152.99770753 233.62331414 -150.62540318 230.09744175 -148.26953125 226.5546875 C-147.85058594 226.04164063 -147.43164062 225.52859375 -147 225 C-146.34 225 -145.68 225 -145 225 C-144.62875 224.195625 -144.62875 224.195625 -144.25 223.375 C-142.69347463 220.4176018 -140.96564327 217.70275949 -139 215 C-138.34 215 -137.68 215 -137 215 C-136.75507813 214.46632812 -136.51015625 213.93265625 -136.2578125 213.3828125 C-134.67656204 210.38727591 -132.77697058 207.6782528 -130.875 204.875 C-116.61489112 183.05911857 -111.75909148 159.96671678 -111.98596573 134.24567795 C-112.00826964 131.59409111 -112.02216694 128.9425787 -112.03366089 126.29092407 C-112.06697666 118.75781199 -112.10848262 111.22482201 -112.17138672 103.69189453 C-112.20943393 99.06379133 -112.23217755 94.43581212 -112.24569321 89.80757523 C-112.25364712 88.0623796 -112.26710862 86.31719859 -112.28662491 84.57209396 C-112.52975378 62.4409855 -108.85763482 39.48439899 -94 22 C-93.34 22 -92.68 22 -92 22 C-91.731875 21.360625 -91.46375 20.72125 -91.1875 20.0625 C-90 18 -90 18 -87 17 C-86.67 16.01 -86.34 15.02 -86 14 C-76.31850901 6.46201255 -64.90788427 1.63521644 -53 -1 C-52.11957031 -1.20625 -51.23914063 -1.4125 -50.33203125 -1.625 C-34.32535789 -4.73560859 -15.61229962 -4.90913065 0 0 Z M-28 78 C-28 78.66 -28 79.32 -28 80 C-28.5775 80.226875 -29.155 80.45375 -29.75 80.6875 C-36.49667546 84.62306069 -39.09301435 92.84688915 -41 100 C-41.37588442 104.70551601 -41.31755593 109.29311542 -41 114 C-39.56445975 114.50559908 -38.1264798 115.0042749 -36.6875 115.5 C-35.88699219 115.7784375 -35.08648437 116.056875 -34.26171875 116.34375 C-31.91230578 117.13933107 -31.91230578 117.13933107 -29 117 C-28.80664062 115.97519531 -28.61328125 114.95039062 -28.4140625 113.89453125 C-28.15130137 112.53380399 -27.88826602 111.17312967 -27.625 109.8125 C-27.49867188 109.13896484 -27.37234375 108.46542969 -27.2421875 107.77148438 C-25.31951825 97.91780445 -25.31951825 97.91780445 -22.15234375 95.71484375 C-18.40404052 94.46994449 -14.8877501 94.31270132 -11 95 C-7.66433196 97.55497978 -5.46319597 100.07889151 -4 104 C-3.6821268 106.98218736 -3.67546459 109.94068295 -3.6875 112.9375 C-3.67138672 113.73607422 -3.65527344 114.53464844 -3.63867188 115.35742188 C-3.63469628 120.15597106 -4.11720448 122.99146903 -7 127 C-7 127.66 -7 128.32 -7 129 C-1.23381729 131.95651062 -1.23381729 131.95651062 5 132 C11.56910604 124.11707275 12.66706572 113.93927922 12 104 C11.1547165 98.2751254 9.50209383 93.20435517 7 88 C6.62875 87.175 6.2575 86.35 5.875 85.5 C1.78569045 80.04758726 -4.23446685 75.32369127 -11 74 C-17.43491734 73.54036305 -22.3700689 74.96849864 -28 78 Z M-94 85 C-94 85.99 -94 86.98 -94 88 C-94.66 88 -95.32 88 -96 88 C-96.474375 89.03125 -96.94875 90.0625 -97.4375 91.125 C-97.70433594 91.70507812 -97.97117188 92.28515625 -98.24609375 92.8828125 C-102.29812136 104.26208174 -100.56076406 116.77855133 -95.5625 127.4375 C-94.40186054 129.95892506 -94.40186054 129.95892506 -93 132 C-92.01 132.33 -91.02 132.66 -90 133 C-87.80961577 131.62831762 -87.80961577 131.62831762 -86 130 C-86.28875 129.319375 -86.5775 128.63875 -86.875 127.9375 C-89.96441205 119.87070186 -92.00109113 111.20383396 -88.625 102.875 C-87 100 -87 100 -85 99 C-81.60579455 98.63106462 -79.70370167 98.53756748 -76.8125 100.4375 C-73.38430372 105.28426026 -71.93862414 111.18053034 -71 117 C-68.03 116.01 -65.06 115.02 -62 114 C-61.68372855 102.77236346 -62.96356154 94.15884245 -70 85 C-70.66 85 -71.32 85 -72 85 C-72 84.34 -72 83.68 -72 83 C-75.96678501 79.44357206 -80.24681949 79.4437528 -85.328125 79.57421875 C-89.55564647 80.24790273 -91.23129474 81.78231551 -94 85 Z M-67 122 C-67.69351563 122.3815625 -68.38703125 122.763125 -69.1015625 123.15625 C-70.75043795 124.07594148 -72.37799839 125.03370117 -74 126 C-74 126.66 -74 127.32 -74 128 C-75.0828125 128.3403125 -75.0828125 128.3403125 -76.1875 128.6875 C-79.5490428 130.25621997 -81.42088997 132.35641222 -84 135 C-86.5 136.5 -86.5 136.5 -89 138 C-89 138.66 -89 139.32 -89 140 C-89.58394531 140.27457031 -90.16789063 140.54914063 -90.76953125 140.83203125 C-95.64160327 143.38325635 -99.38308752 146.11498965 -101.125 151.4375 C-100.97379238 155.74691725 -99.94623915 158.18537127 -98 162 C-97.34 162 -96.68 162 -96 162 C-95.34 163.65 -94.68 165.3 -94 167 C-93.01 167 -92.02 167 -91 167 C-90.67 167.99 -90.34 168.98 -90 170 C-87.82031823 171.61501163 -87.82031823 171.61501163 -85.1875 173.0625 C-84.31480469 173.56910156 -83.44210938 174.07570312 -82.54296875 174.59765625 C-80.38447258 175.78797902 -78.21555602 176.92062656 -76 178 C-76 178.66 -76 179.32 -76 180 C-67.32823774 187.99729186 -59.76704188 190.95726256 -48 191 C-37.01875591 190.32507304 -26.44938506 182.96809237 -17.36328125 177.33203125 C-14.9384452 175.96530548 -12.54315294 174.972617 -9.9375 174 C-0.74461447 170.49313786 6.32853031 165.06590644 11.4375 156.625 C12.32139805 152.50014243 12.37601005 149.0243108 11 145 C5.28709418 137.18561656 -4.70168913 134.30966896 -13.5625 131.5625 C-19.09562993 129.79831364 -23.96340928 126.84287565 -29 124 C-41.16944914 117.4144312 -54.47533164 114.67331653 -67 122 Z M12 165 C11.67 165.99 11.34 166.98 11 168 C9.68596724 168.70394612 8.3479743 169.36345658 7 170 C6.319375 170.598125 5.63875 171.19625 4.9375 171.8125 C-0.25385545 175.678403 -6.35128122 177.93492316 -12.33203125 180.33984375 C-15.79914104 181.82311193 -18.94381038 183.69313375 -22.15063477 185.66845703 C-34.41274982 193.22097826 -44.49653383 196.33855519 -59 195 C-65.06173311 193.48067101 -69.93175783 190.62017298 -75 187 C-76.3191582 186.30570621 -77.64649406 185.62469505 -79 185 C-79 184.34 -79 183.68 -79 183 C-81.13770618 181.37322909 -83.2675534 179.86020356 -85.5 178.375 C-86.43005859 177.74464844 -86.43005859 177.74464844 -87.37890625 177.1015625 C-88.91517264 176.06162833 -90.45707524 175.03002944 -92 174 C-92.66 174.33 -93.32 174.66 -94 175 C-94.4641817 176.79944996 -94.4641817 176.79944996 -94.640625 178.98828125 C-94.73843262 179.8299585 -94.83624023 180.67163574 -94.93701172 181.53881836 C-95.04029785 182.4541333 -95.14358398 183.36944824 -95.25 184.3125 C-96.65456744 195.31620181 -99.46706169 205.50938426 -103 216 C-103.56847656 217.72476563 -103.56847656 217.72476563 -104.1484375 219.484375 C-109.63022158 235.42431452 -115.98854236 251.20040586 -123.28515625 266.39453125 C-125.65059055 271.36787034 -127.86458957 276.40442885 -130.08374023 281.44433594 C-132.0482601 285.89501431 -134.08730705 290.29863524 -136.1875 294.6875 C-145.28812771 314.51211064 -149.69778033 336.24018364 -150 358 C-156.5709472 353.69393247 -159.40518081 345.44248954 -161 338 C-162.85182346 325.89854904 -162.29846718 313.99060498 -160 302 C-159.86722656 301.30648437 -159.73445313 300.61296875 -159.59765625 299.8984375 C-157.22901316 289.29593987 -153.04231532 279.45443433 -147.67919922 270.06225586 C-145.79115321 266.71676279 -144.49174773 263.82550811 -144 260 C-146.16357027 262.01879319 -147.66265646 263.91043807 -149.05078125 266.51953125 C-149.41655273 267.20474854 -149.78232422 267.88996582 -150.15917969 268.59594727 C-150.53977539 269.32740967 -150.92037109 270.05887207 -151.3125 270.8125 C-151.70985352 271.57296631 -152.10720703 272.33343262 -152.51660156 273.11694336 C-158.65350923 285.00440681 -163.34181567 297.14333766 -167 310 C-167.36738281 311.2271875 -167.73476562 312.454375 -168.11328125 313.71875 C-172.09919654 330.10352441 -169.68450955 347.44823354 -161.3125 361.875 C-160.549375 362.90625 -159.78625 363.9375 -159 365 C-158.34 365 -157.68 365 -157 365 C-156.76152344 365.57105469 -156.52304688 366.14210938 -156.27734375 366.73046875 C-152.17785392 374.01427178 -143.92523204 378.87355469 -136.9765625 383.140625 C-120.03810949 393.7216009 -97.45864879 409.73683405 -92 430 C-91.36090928 435.45733351 -90.99475592 440.55566966 -93.11328125 445.70703125 C-95.62177088 448.75565115 -97.98154863 449.52825943 -101.6875 450.8125 C-103.45673828 451.44091797 -103.45673828 451.44091797 -105.26171875 452.08203125 C-106.16535156 452.38496094 -107.06898438 452.68789063 -108 453 C-107.6596875 453.43828125 -107.319375 453.8765625 -106.96875 454.328125 C-104.56839289 457.46901782 -102.26531083 460.55368823 -100.2421875 463.95703125 C-95.39624697 472.01670221 -90.43098958 475.96436632 -82 480 C-81.05640625 480.50144531 -80.1128125 481.00289063 -79.140625 481.51953125 C-66.12200805 487.6564166 -52.21969991 489.0503798 -38 489 C-36.85015625 489 -35.7003125 489 -34.515625 489 C-16.40082073 488.26437343 0.85483738 481.0316731 16.5625 472.5 C17.56349731 471.96681152 17.56349731 471.96681152 18.5847168 471.42285156 C24.65489869 468.00977384 28.87219059 463.7522281 31.06494141 456.95288086 C31.24976074 456.28780518 31.43458008 455.62272949 31.625 454.9375 C31.8317334 454.20217041 32.0384668 453.46684082 32.25146484 452.70922852 C34.82954382 442.28284726 35.25419647 431.42483582 35.92431641 420.73999023 C36.42097623 413.00982791 37.10689884 405.40299855 38.43359375 397.765625 C38.55082794 397.08201401 38.66806213 396.39840302 38.78884888 395.69407654 C40.41808318 386.90360391 43.8527359 379.24429763 49 372 C49 371.34 49 370.68 49 370 C49.66 370 50.32 370 51 370 C51 369.34 51 368.68 51 368 C51.515625 367.7525 52.03125 367.505 52.5625 367.25 C53.7690625 366.63125 53.7690625 366.63125 55 366 C56.134375 365.566875 57.26875 365.13375 58.4375 364.6875 C63.27669861 361.99329949 64.2477393 356.99556927 65.859375 351.99609375 C67.35148849 348.07674084 68.59620035 346.71027001 72.29296875 344.83984375 C85.65890916 340.69312342 100.06270569 346.27822224 111.9375 352.3125 C119.07738752 356.38862981 126.38843137 360.85954949 129 369 C129.3813074 371.32597511 129.72460254 373.65912158 130 376 C130.66 376 131.32 376 132 376 C133.83583328 372.32833344 133.35439586 368.32093001 132.3125 364.4375 C130.55526722 361.1740677 128.52959644 358.71931617 126 356 C125.34 356 124.68 356 124 356 C123.67 355.01 123.34 354.02 123 353 C118.97827685 349.79903668 114.91674271 347.29875422 110.28515625 345.08984375 C106.83205382 343.44297951 103.41891872 341.71647066 100 340 C100.17917969 338.87207031 100.35835938 337.74414062 100.54296875 336.58203125 C104.14367901 311.21884637 97.45999774 287.58008736 84 266 C82.67638562 264.32560443 81.34547854 262.6568775 80 261 C79.67 260.01 79.34 259.02 79 258 C78.34 258 77.68 258 77 258 C76.7525 257.46375 76.505 256.9275 76.25 256.375 C74.69347463 253.4176018 72.96564327 250.70275949 71 248 C70.34 248 69.68 248 69 248 C69 247.34 69 246.68 69 246 C68.34 246 67.68 246 67 246 C68.42400541 249.11457341 70.15826237 251.59422146 72.3125 254.25 C82.361645 267.05488991 88.51721722 281.15333834 92 297 C92.2371875 298.02867187 92.474375 299.05734375 92.71875 300.1171875 C95.03539885 311.60898509 94.04036077 323.9615024 90 335 C87.37684968 336.31157516 85.76966564 335.89649988 82.875 335.5625 C81.96492187 335.46066406 81.05484375 335.35882813 80.1171875 335.25390625 C79.41851562 335.17011719 78.71984375 335.08632813 78 335 C75.18208092 324.78034682 75.18208092 324.78034682 74.125 320.25 C69.57131336 301.96120974 62.1224618 284.46564755 53.08447266 267.99755859 C48.94490912 260.3726354 45.11570089 252.62655632 42.01171875 244.51953125 C40.86510542 241.66406562 39.56785408 238.90556612 38.25 236.125 C27.75435784 213.50689116 18.62672668 189.31249813 13 165 C12.67 165 12.34 165 12 165 Z M62 241 C62.66 241.66 63.32 242.32 64 243 C64 242.34 64 241.68 64 241 C63.34 241 62.68 241 62 241 Z M64 243 C64.66 243.66 65.32 244.32 66 245 C66 244.34 66 243.68 66 243 C65.34 243 64.68 243 64 243 Z M-141 253 C-140 255 -140 255 -140 255 Z M-143 256 C-143.33 257.32 -143.66 258.64 -144 260 C-143.34 259.67 -142.68 259.34 -142 259 C-142.33 258.01 -142.66 257.02 -143 256 Z M-194 374 C-194 374.66 -194 375.32 -194 376 C-194.99 376 -195.98 376 -197 376 C-197 376.66 -197 377.32 -197 378 C-197.66 378 -198.32 378 -199 378 C-200.66629467 379.96598796 -202.21668357 381.93408168 -203.75 384 C-204.20028564 384.59361328 -204.65057129 385.18722656 -205.11450195 385.79882812 C-207.03005202 388.33039815 -208.91283624 390.87676175 -210.74609375 393.46875 C-216.66759683 401.81341559 -222.8634018 404.46428308 -232.48828125 407.7578125 C-240.51463597 410.59694576 -247.36217499 413.56655225 -252 421 C-255.4970058 428.60218651 -253.48656239 437.27483078 -252.4375 445.3125 C-251.17789767 456.79587456 -251.82297828 466.33227661 -255.09375 477.3828125 C-256.81878991 484.26810111 -257.32110531 490.9878799 -254.4375 497.5625 C-249.11824243 502.88175757 -243.38603237 504.74225791 -236.1875 506.0625 C-235.33655762 506.2275 -234.48561523 506.3925 -233.60888672 506.5625 C-226.31835393 507.90820378 -218.99419668 508.72161601 -211.625 509.5 C-195.48398413 511.22748215 -180.26892657 515.44420725 -165.875 523.125 C-151.11149695 530.79435224 -131.04440189 534.03167633 -115 529 C-106.22375866 525.92061707 -100.24060309 521.48128249 -95.91015625 513.24609375 C-92.74483636 505.43468201 -92.65059133 495.57493807 -95.6875 487.75 C-96.42513521 486.15093066 -97.19567842 484.56658714 -98 483 C-98.37382812 482.25234375 -98.74765625 481.5046875 -99.1328125 480.734375 C-102.22019473 474.88675037 -105.77682382 469.09546949 -110 464 C-110.66 464 -111.32 464 -112 464 C-112 463.01 -112 462.02 -112 461 C-113.29434859 459.62878985 -114.63874696 458.30481635 -116 457 C-117.95772278 454.67347209 -119.82003337 452.27426176 -121.6875 449.875 C-122.43483398 448.92560547 -122.43483398 448.92560547 -123.19726562 447.95703125 C-126.86624765 443.2675047 -126.86624765 443.2675047 -128 441 C-128.66 441 -129.32 441 -130 441 C-130.24363281 440.31808594 -130.48726563 439.63617188 -130.73828125 438.93359375 C-132.24333379 435.43423009 -134.18092485 432.28729296 -136.1875 429.0625 C-139.95928062 422.89948962 -143.28155478 416.62925032 -146.453125 410.140625 C-148.49051453 406.00410685 -150.70652305 401.99836248 -153 398 C-153.59167969 396.93910156 -154.18335938 395.87820313 -154.79296875 394.78515625 C-155.41816406 393.68042969 -156.04335937 392.57570313 -156.6875 391.4375 C-157.26886719 390.40496094 -157.85023438 389.37242187 -158.44921875 388.30859375 C-158.96097656 387.54675781 -159.47273438 386.78492188 -160 386 C-160.66 386 -161.32 386 -162 386 C-162.495 384.515 -162.495 384.515 -163 383 C-163.66 383 -164.32 383 -165 383 C-165 382.34 -165 381.68 -165 381 C-165.66 381 -166.32 381 -167 381 C-167.495 379.515 -167.495 379.515 -168 378 C-175.83451504 371.82518861 -184.7750683 370.59078611 -194 374 Z M55.84765625 376.01953125 C52.60559488 379.4946372 50.83587688 383.66127973 49 388 C48.66983887 388.77811035 48.33967773 389.5562207 47.99951172 390.35791016 C44.08838987 400.6964936 44.19422226 412.51328693 43.39819336 423.44360352 C42.30343423 438.27525191 40.16930924 452.32082622 35.5 466.5 C27.24751889 492.54157826 27.24751889 492.54157826 31.546875 518.7265625 C37.56547853 528.1427648 44.98635493 534.73988072 55.9375 537.375 C69.33725843 539.51896135 82.41659158 534.38002631 94 528 C94 527.34 94 526.68 94 526 C94.721875 525.7525 95.44375 525.505 96.1875 525.25 C99.27606582 523.87730408 101.51011418 522.27646704 104 520 C104 519.34 104 518.68 104 518 C104.9590625 517.5978125 104.9590625 517.5978125 105.9375 517.1875 C108.33131686 516.11332248 108.33131686 516.11332248 109 513 C109.99 512.67 110.98 512.34 112 512 C112 511.34 112 510.68 112 510 C112.66 510 113.32 510 114 510 C115.70285795 508.27836601 115.70285795 508.27836601 117.4375 506.125 C119.58400884 503.53806278 121.16776562 501.88815626 124 500 C124 499.34 124 498.68 124 498 C124.99 498 125.98 498 127 498 C127 497.34 127 496.68 127 496 C127.67417969 495.75507813 128.34835937 495.51015625 129.04296875 495.2578125 C132.63027952 493.73190224 135.94483321 491.82385646 139.3125 489.875 C144.94140506 486.65848283 150.6232244 483.6177775 156.4375 480.75 C157.76825594 480.08989773 159.0989861 479.42974347 160.4296875 478.76953125 C162.53859111 477.72430878 164.64782756 476.67975663 166.7578125 475.63671875 C171.90270799 472.95962906 176.84330507 469.99810031 180 465 C181.56118792 459.43112847 180.22833489 454.80195242 177.6875 449.75 C174.55920169 444.48128707 170.80600155 439.71972189 166.87182617 435.03417969 C162.03907989 429.18405802 159.87152883 423.37036165 158.625 415.875 C157.07148467 407.32100986 154.94105272 397.62048162 149 391 C148.34 391 147.68 391 147 391 C147 390.34 147 389.68 147 389 C141.41964684 385.01403346 135.06124544 384.30375001 128.3203125 384.3203125 C122.85406248 385.43928603 119.24732283 388.93651371 115.109375 392.44921875 C106.457767 399.7753492 96.33998168 402.55317827 85.15234375 402.296875 C79.46189741 401.76097175 76.09987901 400.17471747 72.13671875 396.0703125 C66.5109666 388.91464489 64.32694803 380.64294983 62 372 C59.65090125 372 57.52224241 374.57189106 55.84765625 376.01953125 Z " fill="#C2CAF3" transform="translate(265,3)"></path><path d="M0 0 C0.66 0 1.32 0 2 0 C1.67 1.98 1.34 3.96 1 6 C1.99 6.33 2.98 6.66 4 7 C2.35545691 8.69437773 0.69279367 10.35458733 -1 12 C-1.49628906 12.49242187 -1.99257813 12.98484375 -2.50390625 13.4921875 C-8.26315993 18.84898731 -15.10666195 21.43991977 -22.32421875 24.33203125 C-25.79258903 25.81962292 -28.94134597 27.69161573 -32.15063477 29.66845703 C-44.41274982 37.22097826 -54.49653383 40.33855519 -69 39 C-75.01990309 37.49115539 -80.01590434 34.67873727 -85 31 C-85.78375 30.46375 -86.5675 29.9275 -87.375 29.375 C-88.179375 28.694375 -88.179375 28.694375 -89 28 C-89 27.34 -89 26.68 -89 26 C-89.81210938 25.61328125 -89.81210938 25.61328125 -90.640625 25.21875 C-93.43492441 23.77533706 -96.08219346 22.16561466 -98.75 20.5 C-100.22726563 19.58734375 -100.22726563 19.58734375 -101.734375 18.65625 C-102.48203125 18.1096875 -103.2296875 17.563125 -104 17 C-104 15 -104 15 -102 13 C-102.99 12.34 -103.98 11.68 -105 11 C-103.1875 10.3125 -103.1875 10.3125 -101 10 C-99.97521226 10.974582 -98.98001765 11.98040919 -98 13 C-96.52192347 14.05232622 -95.0201257 15.07188475 -93.5 16.0625 C-92.7265625 16.56910156 -91.953125 17.07570312 -91.15625 17.59765625 C-90.4446875 18.06042969 -89.733125 18.52320313 -89 19 C-88.01 19.66 -87.02 20.32 -86 21 C-86 21.66 -86 22.32 -86 23 C-85.443125 23.2475 -84.88625 23.495 -84.3125 23.75 C-82 25 -82 25 -79.625 26.9375 C-72.3386815 32.66246454 -64.74705557 33.41468614 -55.6484375 32.85546875 C-45.5411766 31.13307036 -35.92122346 24.64047658 -27.36328125 19.33203125 C-24.9384452 17.96530548 -22.54315294 16.972617 -19.9375 16 C-11.71267869 12.87042963 -4.04723969 8.09447937 0 0 Z " fill="#C1C6E4" transform="translate(275,160)"></path><path d="M0 0 C1.65 0.33 3.3 0.66 5 1 C3.56030948 6.03891682 0.98099785 7.86602297 -3 11 C-3.33 11.66 -3.66 12.32 -4 13 C-4.99 13 -5.98 13 -7 13 C-7 13.66 -7 14.32 -7 15 C-23.76614252 24.86387655 -40.26810959 33.99890136 -60.4375 30.375 C-69.74004368 27.93390698 -77.36893611 23.08332762 -84.6875 17 C-85.30004639 16.50193848 -85.91259277 16.00387695 -86.54370117 15.49072266 C-89.55242708 12.88005328 -90.84619621 11.58029028 -91.89453125 7.625 C-91.92933594 6.75875 -91.96414062 5.8925 -92 5 C-90.68 4.67 -89.36 4.34 -88 4 C-85 7.75 -85 7.75 -85 10 C-84.41605469 10.26167969 -83.83210937 10.52335938 -83.23046875 10.79296875 C-80.88013735 12.06486438 -79.25015488 13.48046153 -77.3125 15.3125 C-68.56046263 23.12100918 -59.34743485 26.59066394 -47.59375 26.375 C-31.23091722 24.66757397 -11.59017981 14.58497051 -1.1328125 1.69921875 C-0.57207031 0.85810547 -0.57207031 0.85810547 0 0 Z " fill="#C0C4E2" transform="translate(261,148)"></path><path d="M0 0 C1.5 1.3125 1.5 1.3125 3 3 C3 3.99 3 4.98 3 6 C3.66 6 4.32 6 5 6 C6.33203125 8.01171875 6.33203125 8.01171875 7.8125 10.6875 C10.16917907 14.75034624 12.53540466 17.79524931 16 21 C19.49658188 24.7221678 22.48969705 28.01600026 24 33 C24.99 33 25.98 33 27 33 C28.6875 34.5 28.6875 34.5 30 36 C30.33 35.01 30.66 34.02 31 33 C29.79156019 30.97557376 29.79156019 30.97557376 28.0625 29 C25 25.3166287 25 25.3166287 25 22 C25.81984375 21.80664062 26.6396875 21.61328125 27.484375 21.4140625 C28.56203125 21.15367187 29.6396875 20.89328125 30.75 20.625 C31.81734375 20.36976563 32.8846875 20.11453125 33.984375 19.8515625 C36.55852722 19.12466459 38.67600186 18.2973776 41 17 C40 20 40 20 37.27734375 21.38671875 C36.17519531 21.81597656 35.07304687 22.24523437 33.9375 22.6875 C32.83277344 23.12449219 31.72804687 23.56148438 30.58984375 24.01171875 C29.30787109 24.50091797 29.30787109 24.50091797 28 25 C28.77923828 25.96099609 28.77923828 25.96099609 29.57421875 26.94140625 C41 41.11275416 41 41.11275416 41 44 C41.721875 44.268125 42.44375 44.53625 43.1875 44.8125 C45.97590126 45.98982498 48.44095724 47.39145884 51 49 C50.505 49.99 50.505 49.99 50 51 C49.31292969 50.566875 48.62585938 50.13375 47.91796875 49.6875 C47.01691406 49.130625 46.11585938 48.57375 45.1875 48 C44.29417969 47.443125 43.40085938 46.88625 42.48046875 46.3125 C40.02577377 44.76615208 40.02577377 44.76615208 37 45 C36.69982977 49.16486198 37.54675054 51.65015727 39.5 55.3125 C39.9640625 56.19550781 40.428125 57.07851563 40.90625 57.98828125 C41.2671875 58.65214844 41.628125 59.31601562 42 60 C42.33 60 42.66 60 43 60 C43 65.61 43 71.22 43 77 C42.67 77 42.34 77 42 77 C42 72.71 42 68.42 42 64 C41.34 64 40.68 64 40 64 C39.65388672 63.07380859 39.65388672 63.07380859 39.30078125 62.12890625 C35.95849959 53.44954241 31.96490352 45.8957865 26.13671875 38.62890625 C25 37 25 37 25 35 C24.34 35 23.68 35 23 35 C23 34.01 23 33.02 23 32 C22.01 31.67 21.02 31.34 20 31 C18.640625 29.46875 18.640625 29.46875 17.25 27.5 C14.39354056 23.5239233 11.38978015 19.69639351 8.3203125 15.8828125 C7 14 7 14 7 12 C6.34 12 5.68 12 5 12 C3.02 8.37 1.04 4.74 -1 1 C-0.67 0.67 -0.34 0.34 0 0 Z " fill="#C2C6E3" transform="translate(130,432)"></path><path d="M0 0 C-3 2 -3 2 -6.5 2.9375 C-9.88834837 3.96610575 -10.91924926 4.32474905 -13 7 C-13.721875 7.763125 -14.44375 8.52625 -15.1875 9.3125 C-17.32941626 12.4884448 -17.34906845 14.24751416 -17 18 C-17.66 18 -18.32 18 -19 18 C-19 18.66 -19 19.32 -19 20 C-20.2065625 20.3403125 -20.2065625 20.3403125 -21.4375 20.6875 C-22.283125 21.120625 -23.12875 21.55375 -24 22 C-24.67147918 24.44063441 -24.67147918 24.44063441 -25 27 C-26.5625 28.8125 -26.5625 28.8125 -28 30 C-27.34 30.33 -26.68 30.66 -26 31 C-26 30.01 -26 29.02 -26 28 C-22.535 27.505 -22.535 27.505 -19 27 C-19.33 28.32 -19.66 29.64 -20 31 C-20.33 30.34 -20.66 29.68 -21 29 C-22.14926266 29.95421808 -23.29430541 30.91352045 -24.4375 31.875 C-25.07558594 32.40867187 -25.71367187 32.94234375 -26.37109375 33.4921875 C-28.10805004 34.9222757 -28.10805004 34.9222757 -29 37 C-29.66 37 -30.32 37 -31 37 C-31 34.69 -31 32.38 -31 30 C-31.33 30.33 -31.66 30.66 -32 31 C-32.99 31.33 -33.98 31.66 -35 32 C-35 33.32 -35 34.64 -35 36 C-35.99 36 -36.98 36 -38 36 C-38.33 36.66 -38.66 37.32 -39 38 C-38.46968862 33.4923533 -36.74778884 30.58045212 -34 27 C-33.34 27 -32.68 27 -32 27 C-32 26.34 -32 25.68 -32 25 C-30.4556825 24.19335649 -28.88838671 23.43058234 -27.3125 22.6875 C-21.39603727 19.32454587 -20.01267409 15.37352115 -18.1328125 9.0234375 C-16.60513643 4.94612275 -14.52148222 2.8452679 -10.75 0.75 C-7.0549358 -0.25774478 -3.82575608 -0.12968665 0 0 Z " fill="#C0C5E0" transform="translate(348,346)"></path><path d="M0 0 C1.9375 0.125 1.9375 0.125 4 1 C4.68132451 2.66072849 5.34742127 4.327767 6 6 C7.32295638 6.68702885 8.65812182 7.3507041 10 8 C11.32205526 9.11063347 12.61297276 10.25910107 13.875 11.4375 C17.10595643 14.3417305 20.01379281 16.30586194 24 18 C24 18.66 24 19.32 24 20 C24.66 20.33 25.32 20.66 26 21 C25.67 21.99 25.34 22.98 25 24 C17.84750539 21.39909287 11.92311226 17.45676021 6.125 12.625 C5.54492188 12.16867188 4.96484375 11.71234375 4.3671875 11.2421875 C1.50583996 8.86218814 0.09338415 7.32491511 -0.9453125 3.7109375 C-0.96335938 2.81632813 -0.98140625 1.92171875 -1 1 C-0.67 0.67 -0.34 0.34 0 0 Z " fill="#C4C8E4" transform="translate(170,152)"></path><path d="M0 0 C-1.98 0.66 -3.96 1.32 -6 2 C-6 2.66 -6 3.32 -6 4 C-6.66 4 -7.32 4 -8 4 C-7.34 5.65 -6.68 7.3 -6 9 C-6.99 9.495 -6.99 9.495 -8 10 C-8.33 10.99 -8.66 11.98 -9 13 C-11.98378896 14.97575215 -14.72621821 15.3468067 -18.25 15.625 C-19.14203125 15.69976562 -20.0340625 15.77453125 -20.953125 15.8515625 C-21.62859375 15.90054687 -22.3040625 15.94953125 -23 16 C-23.33 15.01 -23.66 14.02 -24 13 C-24.66 12.67 -25.32 12.34 -26 12 C-6.49492158 -2.58565599 -6.49492158 -2.58565599 0 0 Z " fill="#C4CBF2" transform="translate(421,486)"></path><path d="M0 0 C0.33 0 0.66 0 1 0 C1.12511309 7.50678558 1.12511309 7.50678558 0.52734375 9.86328125 C-0.00703778 12.02851603 -0.29768434 14.11172047 -0.53515625 16.328125 C-0.66567383 17.52695312 -0.66567383 17.52695312 -0.79882812 18.75 C-0.9293457 19.9875 -0.9293457 19.9875 -1.0625 21.25 C-1.15337891 22.09046875 -1.24425781 22.9309375 -1.33789062 23.796875 C-1.56108032 25.86431641 -1.78087322 27.93212402 -2 30 C-6.01706879 28.51219674 -7.31247123 26.32728651 -9.3125 22.625 C-9.84488281 21.66851562 -10.37726563 20.71203125 -10.92578125 19.7265625 C-12 17 -12 17 -11.79296875 14.7109375 C-11 13 -11 13 -9 12 C-8.566875 13.2065625 -8.566875 13.2065625 -8.125 14.4375 C-7.26737432 17.1326468 -7.26737432 17.1326468 -5 18 C-4.87882812 17.443125 -4.75765625 16.88625 -4.6328125 16.3125 C-1.34632035 1.34632035 -1.34632035 1.34632035 0 0 Z " fill="#C5CAEB" transform="translate(117,331)"></path><path d="M0 0 C8.8150919 0.41559987 17.39602581 0.86968908 26 3 C24.15333916 4.23110723 22.28212332 5.42730755 20.375 6.5625 C18.12552959 7.79487437 18.12552959 7.79487437 17 9 C14.8203125 9.23828125 14.8203125 9.23828125 12.125 9.3125 C10.79855469 9.36857422 10.79855469 9.36857422 9.4453125 9.42578125 C7 9 7 9 5.2421875 7.16796875 C4 5 4 5 3 2 C2.01 1.34 1.02 0.68 0 0 Z " fill="#C0C6ED" transform="translate(36,510)"></path><path d="M0 0 C4.35192752 -0.34878836 6.87760239 0.69499515 10.6875 2.75 C16.01331783 5.53500015 21.37790546 7.88549542 27 10 C27 10.33 27 10.66 27 11 C25.02 11 23.04 11 21 11 C21 11.66 21 12.32 21 13 C18 15 18 15 15 14.6875 C12 14 12 14 9 13 C9.33 10.69 9.66 8.38 10 6 C6.7 4.35 3.4 2.7 0 1 C0 0.67 0 0.34 0 0 Z " fill="#C4CAEC" transform="translate(86,521)"></path><path d="M0 0 C0.66 1.32 1.32 2.64 2 4 C1.195625 4.61875 0.39125 5.2375 -0.4375 5.875 C-3.03874519 7.74164041 -3.03874519 7.74164041 -4 10 C-4.66 10 -5.32 10 -6 10 C-5.67 10.99 -5.34 11.98 -5 13 C-9.78615682 12.41632234 -13.59810173 10.92082833 -18 9 C-20.77888613 8.30859478 -20.77888613 8.30859478 -23 8 C-23.33 7.01 -23.66 6.02 -24 5 C-22.68 5 -21.36 5 -20 5 C-18.2488427 3.5833253 -18.2488427 3.5833253 -17 2 C-17 2.66 -17 3.32 -17 4 C-15.865625 4.144375 -14.73125 4.28875 -13.5625 4.4375 C-10 5 -10 5 -9 6 C-6.62875402 6.58488562 -6.62875402 6.58488562 -4 6 C-1.64677204 3.09587454 -1.64677204 3.09587454 0 0 Z " fill="#C2C6E1" transform="translate(274,128)"></path><path d="M0 0 C0.66 0.33 1.32 0.66 2 1 C0.04761147 3.00612399 -1.91137822 5.00492433 -3.875 7 C-4.43058594 7.57234375 -4.98617187 8.1446875 -5.55859375 8.734375 C-7.00134404 10.19450782 -8.4974374 11.60149298 -10 13 C-10.66 13 -11.32 13 -12 13 C-12 13.66 -12 14.32 -12 15 C-12.99 15 -13.98 15 -15 15 C-15 16.65 -15 18.3 -15 20 C-17.49064888 20.68707555 -19.37886292 21 -22 21 C-24.91951604 22.10740263 -26.48636704 23.45394257 -28.8125 25.625 C-32.58802254 28.43813444 -34.40021737 28.53074415 -39 28 C-39.66 27.67 -40.32 27.34 -41 27 C-41 26.34 -41 25.68 -41 25 C-40.154375 24.75765625 -39.30875 24.5153125 -38.4375 24.265625 C-31.90308092 22.33500118 -26.0167746 20.17867337 -20 17 C-19.34 17 -18.68 17 -18 17 C-18 16.34 -18 15.68 -18 15 C-16.2421875 13.73828125 -16.2421875 13.73828125 -13.875 12.3125 C-9.93995469 9.79431849 -7.13050507 7.20451535 -4.2890625 3.515625 C-3 2 -3 2 0 0 Z " fill="#C0C3DE" transform="translate(377,514)"></path><path d="M0 0 C0.33 0.66 0.66 1.32 1 2 C1.66 2 2.32 2 3 2 C3.268125 2.969375 3.53625 3.93875 3.8125 4.9375 C4.204375 5.948125 4.59625 6.95875 5 8 C5.99 8.33 6.98 8.66 8 9 C10.0068302 21.00725298 10.0068302 21.00725298 7.68359375 25.60546875 C4.61631023 29.13648844 1.23417237 31.94706794 -3 34 C-3.33 32.68 -3.66 31.36 -4 30 C-3.43410156 29.50628906 -2.86820312 29.01257813 -2.28515625 28.50390625 C-1.55167969 27.86324219 -0.81820313 27.22257812 -0.0625 26.5625 C0.66839844 25.92441406 1.39929688 25.28632813 2.15234375 24.62890625 C4.54233564 22.75451489 4.54233564 22.75451489 5.2734375 20.03125 C5.52152568 13.84812924 4.480951 10.09445555 1.09375 4.91015625 C0 3 0 3 0 0 Z " fill="#C4C8E2" transform="translate(439,446)"></path><path d="M0 0 C0.33 0 0.66 0 1 0 C1.0154612 1.10967888 1.0154612 1.10967888 1.03123474 2.24177551 C1.12974242 9.25801778 1.23232582 16.27418636 1.33933926 23.29030323 C1.39419886 26.89622602 1.44755387 30.50215725 1.49731445 34.1081543 C1.5455106 37.59658074 1.59786254 41.08492358 1.65294075 44.57324791 C1.6828491 46.53323221 1.70859653 48.4932786 1.73423767 50.45332336 C1.85234442 57.68019801 2.21446197 64.81388865 3 72 C2.34 72 1.68 72 1 72 C-0.14346098 68.56961706 -0.120116 65.9436825 -0.11352539 62.32543945 C-0.11367142 61.652005 -0.11381744 60.97857056 -0.1139679 60.284729 C-0.11327175 58.06088021 -0.10549332 55.83711539 -0.09765625 53.61328125 C-0.09579101 52.07057236 -0.09436761 50.52786289 -0.09336853 48.9851532 C-0.08955169 44.92616132 -0.07972851 40.86720527 -0.06866455 36.80822754 C-0.05843252 32.66577641 -0.05386707 28.5233195 -0.04882812 24.38085938 C-0.03810551 16.25388982 -0.02103907 8.12694937 0 0 Z " fill="#D1D6F2" transform="translate(319,87)"></path><path d="M0 0 C0.33 0 0.66 0 1 0 C1 1.65 1 3.3 1 5 C1.7425 4.505 2.485 4.01 3.25 3.5 C6 2 6 2 10 2 C10 2.99 10 3.98 10 5 C10.66 4.67 11.32 4.34 12 4 C14.6723621 3.86584528 17.32250488 3.95681459 20 4 C20 4.33 20 4.66 20 5 C19.14277344 5.24234375 18.28554687 5.4846875 17.40234375 5.734375 C8.82638453 8.24818492 2.29773096 10.47735007 -4 17 C-4.99 17.33 -5.98 17.66 -7 18 C-5.11540483 13.20284866 -1.57575299 10.93112676 2.75 8.375 C5.12145809 7.1987496 5.12145809 7.1987496 6 5 C4.02 5.66 2.04 6.32 0 7 C0 4.69 0 2.38 0 0 Z " fill="#BABED9" transform="translate(192,116)"></path><path d="M0 0 C-2.09530574 2.17290966 -4.12107013 4.0885879 -6.5625 5.875 C-10.31888339 9.14979577 -12.06664523 13.14655517 -13 18 C-13.66 18 -14.32 18 -15 18 C-14.57164802 14.93014413 -14.12569924 12.28631493 -12.875 9.4375 C-11.83420276 6.53813627 -12.16554254 4.92060111 -13 2 C-8.3683343 -1.61848883 -5.49434694 -1.02436977 0 0 Z " fill="#BFC4E7" transform="translate(25,413)"></path><path d="M0 0 C1.9375 0.3125 1.9375 0.3125 4 1 C4.33 1.99 4.66 2.98 5 4 C5.66 3.67 6.32 3.34 7 3 C6.67 5.31 6.34 7.62 6 10 C3 9 3 9 2 8 C1.34 8 0.68 8 0 8 C-0.185625 8.9075 -0.37125 9.815 -0.5625 10.75 C-2.53432362 15.208036 -4.67961071 15.91981256 -9 18 C-9 17.01 -9 16.02 -9 15 C-8.2575 14.505 -7.515 14.01 -6.75 13.5 C-2.66553247 9.7868477 -1.59894835 5.18094995 0 0 Z " fill="#BCC3E5" transform="translate(296,456)"></path><path d="M0 0 C4.39129984 2.48203904 6.10407946 5.40252695 8 10 C8.20597558 12.7188776 8.28948136 15.17641622 8.1875 17.875 C8.16719727 18.90753906 8.16719727 18.90753906 8.14648438 19.9609375 C8.1114837 21.64097001 8.05768954 23.3205935 8 25 C7.67 25 7.34 25 7 25 C6.96261719 24.20335938 6.92523438 23.40671875 6.88671875 22.5859375 C6.51984296 16.67276299 6.10662779 12.17771299 3 7 C2.63513096 5.67494926 2.29573323 4.34217389 2 3 C-1.01221805 2.40785457 -3.92464787 1.9521966 -7 2 C-9.50277911 3.66788932 -9.50277911 3.66788932 -11 6 C-11.66 6.66 -12.32 7.32 -13 8 C-13.31898502 5.04938857 -13.4433581 3.55901674 -11.5625 1.1875 C-7.70459887 -0.60030784 -4.17610056 -0.664889 0 0 Z " fill="#C8CBE0" transform="translate(254,97)"></path><path d="M0 0 C4.23930191 3.76826837 6.99834049 7.65478634 9 13 C9 13.99 9 14.98 9 16 C8.34 16 7.68 16 7 16 C6.67 15.34 6.34 14.68 6 14 C5.01 13.67 4.02 13.34 3 13 C2.34 12.34 1.68 11.68 1 11 C1 10.01 1 9.02 1 8 C0.01 8.33 -0.98 8.66 -2 9 C-1.34 6.03 -0.68 3.06 0 0 Z " fill="#CBD2F3" transform="translate(419,388)"></path><path d="M0 0 C1.64453125 0.81640625 1.64453125 0.81640625 3.89453125 2.31640625 C3.89453125 2.97640625 3.89453125 3.63640625 3.89453125 4.31640625 C2.98703125 4.15140625 2.07953125 3.98640625 1.14453125 3.81640625 C-8.47451447 2.2781708 -8.47451447 2.2781708 -17.55078125 4.69140625 C-19.66682877 6.32844765 -19.66682877 6.32844765 -21.484375 8.1015625 C-22.01933594 8.50246094 -22.55429687 8.90335937 -23.10546875 9.31640625 C-24.09546875 8.98640625 -25.08546875 8.65640625 -26.10546875 8.31640625 C-25.77546875 7.65640625 -25.44546875 6.99640625 -25.10546875 6.31640625 C-23.78546875 6.31640625 -22.46546875 6.31640625 -21.10546875 6.31640625 C-21.10546875 5.32640625 -21.10546875 4.33640625 -21.10546875 3.31640625 C-14.77418198 -1.28816594 -7.59541892 -2.4660451 0 0 Z " fill="#C8CBE5" transform="translate(405.10546875,385.68359375)"></path><path d="M0 0 C0.58265625 0.20496094 1.1653125 0.40992188 1.765625 0.62109375 C8.50503996 2.83577571 14.92947835 3.64768878 22 4 C22 4.33 22 4.66 22 5 C19.03 5 16.06 5 13 5 C13 5.66 13 6.32 13 7 C15.64 7 18.28 7 21 7 C21 7.33 21 7.66 21 8 C14.55902835 8.24204069 8.12831018 8.2614721 2 6 C1.67 5.34 1.34 4.68 1 4 C1.33 3.34 1.66 2.68 2 2 C1.01 1.67 0.02 1.34 -1 1 C-0.67 0.67 -0.34 0.34 0 0 Z " fill="#C2C3DD" transform="translate(194,171)"></path><path d="M0 0 C0.33 0 0.66 0 1 0 C1.12513034 7.50782065 1.12513034 7.50782065 0.53125 9.84375 C-0.19673644 12.79851851 -0.35017335 15.71676219 -0.5625 18.75 C-0.64628906 19.92046875 -0.73007813 21.0909375 -0.81640625 22.296875 C-0.87699219 23.18890625 -0.93757813 24.0809375 -1 25 C-1.66 25 -2.32 25 -3 25 C-4.5 22 -4.5 22 -6 19 C-5.34 19 -4.68 19 -4 19 C-4.20625 18.46375 -4.4125 17.9275 -4.625 17.375 C-5.13918427 14.11849963 -4.12849097 12.0885016 -3 9 C-2.63165067 7.56606867 -2.27773888 6.12836009 -1.9375 4.6875 C-1 1 -1 1 0 0 Z " fill="#BFC4DE" transform="translate(117,331)"></path><path d="M0 0 C2.97391286 2.46315775 3.60931646 4.59339007 4.4375 8.3125 C5.33158433 11.91722097 6.03461606 14.05192409 8.125 17.1875 C10.6382691 20.95740366 10.84968572 23.4905716 11 28 C10.34 28.66 9.68 29.32 9 30 C7.236219 25.02830663 5.47884972 20.05445064 3.73095703 15.07714844 C3.13582159 13.38596194 2.53547578 11.6966097 1.93359375 10.0078125 C0.69271106 6.44701869 0 3.81457163 0 0 Z " fill="#C4C7DF" transform="translate(285,190)"></path><path d="M0 0 C0.33 0.66 0.66 1.32 1 2 C0.0625 4.125 0.0625 4.125 -1 6 C-0.34 6.33 0.32 6.66 1 7 C-0.65 9.31 -2.3 11.62 -4 14 C-3.67 14.66 -3.34 15.32 -3 16 C-3.92039062 16.36738281 -3.92039062 16.36738281 -4.859375 16.7421875 C-7.42635567 18.25052285 -8.03857904 19.44256788 -9.25 22.125 C-9.58515625 22.84945313 -9.9203125 23.57390625 -10.265625 24.3203125 C-10.50796875 24.87460937 -10.7503125 25.42890625 -11 26 C-12.14794559 22.56837542 -12.0486359 22.10881668 -10.453125 18.5390625 C-9.7309996 17.22755534 -8.99610366 15.92301596 -8.25 14.625 C-7.52539269 13.3258826 -6.80142595 12.02640769 -6.078125 10.7265625 C-5.72556641 10.10168945 -5.37300781 9.47681641 -5.00976562 8.83300781 C-4.0597192 7.1084071 -3.17581126 5.34784183 -2.296875 3.5859375 C-1 1 -1 1 0 0 Z " fill="#C0C4E0" transform="translate(123,261)"></path><path d="M0 0 C1.231394 2.46278801 1.07159196 4.2795055 1 7 C2.32 7 3.64 7 5 7 C4.67 8.32 4.34 9.64 4 11 C3.67 10.34 3.34 9.68 3 9 C2.01 9 1.02 9 0 9 C-0.66 10.98 -1.32 12.96 -2 15 C-2.5878125 14.2265625 -2.5878125 14.2265625 -3.1875 13.4375 C-4.0846875 12.7259375 -4.0846875 12.7259375 -5 12 C-7.65466049 12.23043864 -7.65466049 12.23043864 -10 13 C-9.34 12.01 -8.68 11.02 -8 10 C-7.34 10 -6.68 10 -6 10 C-5.7525 9.46375 -5.505 8.9275 -5.25 8.375 C-3.70303025 5.43575748 -1.86985631 2.74245592 0 0 Z " fill="#CAD0F1" transform="translate(51,386)"></path><path d="M0 0 C0.99 0.33 1.98 0.66 3 1 C2.67 8.26 2.34 15.52 2 23 C2.66 23.33 3.32 23.66 4 24 C3.01 24.33 2.02 24.66 1 25 C0.34 25.66 -0.32 26.32 -1 27 C-2.31747324 27.69748583 -3.64914193 28.36959957 -5 29 C-3.98226027 26.8079452 -3.01693481 25.0199083 -1.4440918 23.17089844 C0.29961705 20.54958668 0.35003366 19.13517339 0.29296875 16.015625 C0.28330078 15.08105469 0.27363281 14.14648438 0.26367188 13.18359375 C0.23853516 12.21550781 0.21339844 11.24742187 0.1875 10.25 C0.16719727 8.77466797 0.16719727 8.77466797 0.14648438 7.26953125 C0.11118726 4.84579585 0.06188054 2.42317855 0 0 Z " fill="#DBDFF4" transform="translate(60,354)"></path><path d="M0 0 C6.7379788 0.64788258 12.38044039 2.88863925 18.375 5.875 C19.06464844 6.21466797 19.75429688 6.55433594 20.46484375 6.90429688 C24.24117191 8.84419148 27.1642407 10.75705475 30 14 C25.87185823 13.31714948 22.52358851 11.15323842 18.9375 9.125 C12.80511961 5.73789016 6.91204822 3.37953561 0 2 C0 1.34 0 0.68 0 0 Z " fill="#BFC4DA" transform="translate(355,347)"></path><path d="M0 0 C0.928125 0.20625 1.85625 0.4125 2.8125 0.625 C2.8125 0.955 2.8125 1.285 2.8125 1.625 C-0.49864834 2.75380057 -3.77728257 3.83802675 -7.1875 4.625 C-7.1875 5.285 -7.1875 5.945 -7.1875 6.625 C-8.85416667 8.29166667 -10.52083333 9.95833333 -12.1875 11.625 C-13.94014204 13.90817152 -15.55777685 16.25026056 -17.1875 18.625 C-17.5175 17.305 -17.8475 15.985 -18.1875 14.625 C-17.5275 14.625 -16.8675 14.625 -16.1875 14.625 C-15.89875 13.8825 -15.61 13.14 -15.3125 12.375 C-14.36447356 10.05760203 -13.33904089 7.84582885 -12.1875 5.625 C-11.1975 5.625 -10.2075 5.625 -9.1875 5.625 C-8.8575 4.305 -8.5275 2.985 -8.1875 1.625 C-7.5275 1.625 -6.8675 1.625 -6.1875 1.625 C-3.1875 -0.375 -3.1875 -0.375 0 0 Z " fill="#C6CAE1" transform="translate(244.1875,76.375)"></path><path d="M0 0 C0 1.32 0 2.64 0 4 C-3.78187881 5.83691257 -5.94568308 6.15837626 -10 5 C-10 3.68 -10 2.36 -10 1 C-6.21812119 -0.83691257 -4.05431692 -1.15837626 0 0 Z " fill="#CBCDE8" transform="translate(207,129)"></path><path d="M0 0 C4.80842339 -0.50710303 7.67694029 1.16069349 11.8125 3.5 C12.7087207 4.00080078 12.7087207 4.00080078 13.62304688 4.51171875 C15.08734612 5.33172633 16.54443137 6.16459312 18 7 C16.02 7.99 16.02 7.99 14 9 C14 9.66 14 10.32 14 11 C14.66 11.66 15.32 12.32 16 13 C13.69 12.67 11.38 12.34 9 12 C9.33 10.02 9.66 8.04 10 6 C6.7 4.35 3.4 2.7 0 1 C0 0.67 0 0.34 0 0 Z " fill="#BEC5E7" transform="translate(86,521)"></path><path d="M0 0 C3.12290635 0.48578543 5.99580359 0.9986012 9 2 C9.33 2.99 9.66 3.98 10 5 C9.34 5.66 8.68 6.32 8 7 C4.41411676 6.61233695 1.30012079 5.41433748 -2 4 C-1.34 2.68 -0.68 1.36 0 0 Z " fill="#C1C5DA" transform="translate(221,128)"></path><path d="M0 0 C1.54209189 2.31313784 2.78288475 4.46048029 4 6.9375 C4.33 7.60652344 4.66 8.27554687 5 8.96484375 C5.33 9.63644531 5.66 10.30804688 6 11 C6.66574186 12.33379533 7.33214099 13.6672635 8 15 C7.01 15.33 6.02 15.66 5 16 C4.34 15.01 3.68 14.02 3 13 C1.35 13.33 -0.3 13.66 -2 14 C-1.67 13.175 -1.34 12.35 -1 11.5 C0.16782809 7.4126017 0.1458885 4.23076656 0 0 Z " fill="#D1D5F4" transform="translate(432,421)"></path><path d="M0 0 C0.763125 0.309375 1.52625 0.61875 2.3125 0.9375 C4.18789677 1.67893593 6.08684652 2.36228217 8 3 C9.6875 4.4375 9.6875 4.4375 11 6 C11 6.66 11 7.32 11 8 C11.66 8 12.32 8 13 8 C14.625 9.5 14.625 9.5 16 11 C16.66 10.67 17.32 10.34 18 10 C18 12.97 18 15.94 18 19 C17.34 19 16.68 19 16 19 C15.7525 18.278125 15.505 17.55625 15.25 16.8125 C12.9089854 11.54521715 9.2691667 8.21205168 4.75 4.75 C3.1507068 3.52048558 1.56235575 2.27612263 0 1 C0 0.67 0 0.34 0 0 Z " fill="#C1C5DF" transform="translate(381,351)"></path><path d="M0 0 C-1.61068359 0.77923828 -1.61068359 0.77923828 -3.25390625 1.57421875 C-4.69026565 2.2783165 -6.1264545 2.98276225 -7.5625 3.6875 C-8.26697266 4.02716797 -8.97144531 4.36683594 -9.69726562 4.71679688 C-13.33335901 6.50970928 -16.60839598 8.3742266 -19.83984375 10.83203125 C-20.88269531 11.54746094 -21.92554688 12.26289063 -23 13 C-23.99 12.67 -24.98 12.34 -26 12 C-7.0644365 -2.15977979 -7.0644365 -2.15977979 0 0 Z " fill="#B9BCD3" transform="translate(421,486)"></path><path d="M0 0 C0.66 0 1.32 0 2 0 C3.33819498 2.6226232 4.6707151 5.24786599 6 7.875 C6.57234375 8.99455078 6.57234375 8.99455078 7.15625 10.13671875 C7.5171875 10.85214844 7.878125 11.56757813 8.25 12.3046875 C8.58515625 12.96452637 8.9203125 13.62436523 9.265625 14.30419922 C10 16 10 16 10 18 C10.66 18 11.32 18 12 18 C14.125 22.625 14.125 22.625 13 26 C9.32109934 20.59661466 6.45826827 14.96760759 3.6875 9.0625 C3.32591797 8.29236572 2.96433594 7.52223145 2.59179688 6.72875977 C0 1.14159688 0 1.14159688 0 0 Z " fill="#C2C5DB" transform="translate(313,261)"></path><path d="M0 0 C0.66 0.33 1.32 0.66 2 1 C2 3.64 2 6.28 2 9 C-0.97 9.66 -3.94 10.32 -7 11 C-7 10.01 -7 9.02 -7 8 C-5.68 7.67 -4.36 7.34 -3 7 C-3 5.68 -3 4.36 -3 3 C-1.5 1.25 -1.5 1.25 0 0 Z " fill="#C4CAF2" transform="translate(316,375)"></path><path d="M0 0 C0.33 1.32 0.66 2.64 1 4 C-0.65 4.66 -2.3 5.32 -4 6 C-4 6.99 -4 7.98 -4 9 C-14.37357631 13.59225513 -14.37357631 13.59225513 -20 13 C-17.52165881 11.34777254 -15.46701401 10.30375575 -12.75 9.1875 C-5.23464743 5.9279639 -5.23464743 5.9279639 0 0 Z " fill="#C0C4DA" transform="translate(165,521)"></path><path d="M0 0 C3.27914568 0.56536994 4.93380808 1.3703012 7 4 C9.37061328 8.36691921 9.16434622 12.15178654 9 17 C9.66 17.33 10.32 17.66 11 18 C9.35 17.67 7.7 17.34 6 17 C6 14.03 6 11.06 6 8 C5.34 7.67 4.68 7.34 4 7 C4 5.68 4 4.36 4 3 C2.68 2.67 1.36 2.34 0 2 C0 1.34 0 0.68 0 0 Z " fill="#C4C8DF" transform="translate(386,363)"></path><path d="M0 0 C0.33 0 0.66 0 1 0 C1.16808419 2.10405391 1.33441948 4.20824758 1.5 6.3125 C1.5928125 7.48425781 1.685625 8.65601562 1.78125 9.86328125 C1.92364989 11.905194 2 13.9531279 2 16 C-0.9375 14.75 -0.9375 14.75 -4 13 C-4.875 10.8125 -4.875 10.8125 -5 9 C-3.35 8.67 -1.7 8.34 0 8 C0 5.36 0 2.72 0 0 Z " fill="#B9BEE1" transform="translate(237,113)"></path><path d="M0 0 C-0.99 0.33 -1.98 0.66 -3 1 C-3.33 1.66 -3.66 2.32 -4 3 C-7.41133516 5.39715444 -8.70612989 6 -13 6 C-13.33 6.99 -13.66 7.98 -14 9 C-16.0625 9.6875 -16.0625 9.6875 -18 10 C-18.33 9.01 -18.66 8.02 -19 7 C-16.40163864 5.63354299 -13.79734444 4.28169331 -11.1875 2.9375 C-10.44951172 2.54755859 -9.71152344 2.15761719 -8.95117188 1.75585938 C-8.23896484 1.39169922 -7.52675781 1.02753906 -6.79296875 0.65234375 C-6.1383667 0.31195068 -5.48376465 -0.02844238 -4.80932617 -0.37915039 C-3 -1 -3 -1 0 0 Z " fill="#C1C5DF" transform="translate(285,475)"></path><path d="M0 0 C2.0625 0.4375 2.0625 0.4375 4 1 C-1.84286153 6.14171815 -8.60833245 6.30170072 -16 6 C-16 5.34 -16 4.68 -16 4 C-13.03 4 -10.06 4 -7 4 C-6.67 3.34 -6.34 2.68 -6 2 C-4.34178227 1.62690101 -2.67422986 1.29299023 -1 1 C-0.67 0.67 -0.34 0.34 0 0 Z " fill="#C4C7E0" transform="translate(367,400)"></path><path d="M0 0 C0.99 0 1.98 0 3 0 C2.52541716 4.27124556 0.08157175 6.20508608 -3 9 C-3.680625 9.61875 -4.36125 10.2375 -5.0625 10.875 C-7 12 -7 12 -9.25 11.6875 C-9.8275 11.460625 -10.405 11.23375 -11 11 C-9.01556854 9.44080385 -7.29637485 8.11675373 -4.9375 7.1875 C-2.08032897 5.43633066 -1.30594657 3.0036771 0 0 Z " fill="#C3C6E3" transform="translate(51,395)"></path><path d="M0 0 C3.91989332 0.61161456 6.41574962 2.537414 9.5625 4.875 C10.98755859 5.92300781 10.98755859 5.92300781 12.44140625 6.9921875 C14.45857491 8.57512596 16.25492588 10.1315368 18 12 C17.67 12.66 17.34 13.32 17 14 C16.31292969 13.43410156 15.62585938 12.86820312 14.91796875 12.28515625 C14.01691406 11.55167969 13.11585938 10.81820313 12.1875 10.0625 C11.29417969 9.33160156 10.40085938 8.60070312 9.48046875 7.84765625 C7.06637081 5.84817309 7.06637081 5.84817309 4 5 C2.61423077 3.37667033 1.27358732 1.71275535 0 0 Z " fill="#BFC4DA" transform="translate(131,389)"></path><path d="M0 0 C0.99 0.33 1.98 0.66 3 1 C2.40261053 2.73151972 1.79676033 4.46012147 1.1875 6.1875 C0.68283203 7.63189453 0.68283203 7.63189453 0.16796875 9.10546875 C-0.97962401 11.94950298 -2.35307674 14.41871912 -4 17 C-4.33 16.01 -4.66 15.02 -5 14 C-4.690625 13.401875 -4.38125 12.80375 -4.0625 12.1875 C-2.69171739 9.3653005 -2.85924331 7.0966471 -3 4 C-2.01 3.67 -1.02 3.34 0 3 C0 2.01 0 1.02 0 0 Z " fill="#C4C8E1" transform="translate(149,246)"></path><path d="M0 0 C0.33 0.66 0.66 1.32 1 2 C0.34 2 -0.32 2 -1 2 C-0.67 2.66 -0.34 3.32 0 4 C0 4.99 0 5.98 0 7 C-2.31 7.33 -4.62 7.66 -7 8 C-6.67 7.01 -6.34 6.02 -6 5 C-6.99 5.33 -7.98 5.66 -9 6 C-8 3 -8 3 -6.15234375 2.05078125 C-5.42144531 1.80714844 -4.69054687 1.56351563 -3.9375 1.3125 C-3.20402344 1.06113281 -2.47054687 0.80976563 -1.71484375 0.55078125 C-0.86599609 0.27814453 -0.86599609 0.27814453 0 0 Z " fill="#BBBFDC" transform="translate(256,176)"></path><path d="M0 0 C3.375 -0.125 3.375 -0.125 7 0 C7.66 0.66 8.32 1.32 9 2 C8.625 4.625 8.625 4.625 8 7 C7.01 7.33 6.02 7.66 5 8 C4.67 6.68 4.34 5.36 4 4 C2.68 3.67 1.36 3.34 0 3 C0 2.01 0 1.02 0 0 Z " fill="#C3CBF4" transform="translate(88,525)"></path><path d="M0 0 C1.32 0.33 2.64 0.66 4 1 C3.67 1.99 3.34 2.98 3 4 C2.34 4 1.68 4 1 4 C1 4.99 1 5.98 1 7 C0.01 7.495 0.01 7.495 -1 8 C-1.46751788 10.35599235 -1.46751788 10.35599235 -1.625 13.0625 C-1.69976562 13.98160156 -1.77453125 14.90070313 -1.8515625 15.84765625 C-1.90054688 16.55792969 -1.94953125 17.26820312 -2 18 C-2.33 18 -2.66 18 -3 18 C-3.08150744 15.93816367 -3.1394194 13.87538651 -3.1875 11.8125 C-3.22230469 10.66394531 -3.25710937 9.51539062 -3.29296875 8.33203125 C-2.97622579 4.72960801 -2.08533398 2.90633161 0 0 Z " fill="#BCBFDD" transform="translate(178,102)"></path><path d="M0 0 C3.5786304 1.65167557 6.74820188 3.78286492 10 6 C9.67 6.66 9.34 7.32 9 8 C7.68 7.34 6.36 6.68 5 6 C7.35277269 8.72426311 9.62496331 9.8141763 13 11 C11.375 11.6875 11.375 11.6875 9 12 C5.75 10.5625 5.75 10.5625 3 9 C3 7.02 3 5.04 3 3 C2.01 2.67 1.02 2.34 0 2 C0 1.34 0 0.68 0 0 Z " fill="#BDC1DB" transform="translate(191,185)"></path><path d="M0 0 C0.33 0.99 0.66 1.98 1 3 C1.66 3 2.32 3 3 3 C2.67 4.65 2.34 6.3 2 8 C3.65 8 5.3 8 7 8 C7.33 8.66 7.66 9.32 8 10 C6.56163249 9.88541307 5.12429034 9.75790884 3.6875 9.625 C2.48673828 9.52058594 2.48673828 9.52058594 1.26171875 9.4140625 C-1 9 -1 9 -4 7 C-3.34 6.34 -2.68 5.68 -2 5 C-1.29289322 3.35008418 -0.62056011 1.68437744 0 0 Z " fill="#CED2F5" transform="translate(315,538)"></path><path d="M0 0 C14.99215481 3.19560669 14.99215481 3.19560669 20 6 C13.46884326 6.27792156 6.64384174 6.19245413 1.4375 1.875 C0.963125 1.25625 0.48875 0.6375 0 0 Z " fill="#BBBCD9" transform="translate(14,505)"></path><path d="M0 0 C0.66 0 1.32 0 2 0 C1 3 1 3 -1.72265625 4.38671875 C-2.82480469 4.81597656 -3.92695313 5.24523437 -5.0625 5.6875 C-6.16722656 6.12449219 -7.27195313 6.56148438 -8.41015625 7.01171875 C-9.26480469 7.33785156 -10.11945313 7.66398437 -11 8 C-10.67 9.32 -10.34 10.64 -10 12 C-12 10.1875 -12 10.1875 -14 8 C-14 7.01 -14 6.02 -14 5 C-13.15695313 4.80664062 -12.31390625 4.61328125 -11.4453125 4.4140625 C-10.34960938 4.15367187 -9.25390625 3.89328125 -8.125 3.625 C-7.03445312 3.36976563 -5.94390625 3.11453125 -4.8203125 2.8515625 C-1.89591545 2.21093785 -1.89591545 2.21093785 0 0 Z " fill="#C1C3DA" transform="translate(169,449)"></path><path d="M0 0 C3.11896676 1.40631983 5.45402854 3.09754896 8 5.375 C8.6909375 5.99246094 9.381875 6.60992187 10.09375 7.24609375 C12.12025994 9.110649 14.09274947 11.0132807 16 13 C11.18626046 11.70127848 8.27416824 9.87520666 4.625 6.5 C3.75101562 5.7059375 2.87703125 4.911875 1.9765625 4.09375 C0 2 0 2 0 0 Z " fill="#C3C5DA" transform="translate(108,371)"></path><path d="M0 0 C1.98 0 3.96 0 6 0 C5.34 1.32 4.68 2.64 4 4 C3.34 4 2.68 4 2 4 C2 4.66 2 5.32 2 6 C2.66 6.33 3.32 6.66 4 7 C-0.455 6.01 -0.455 6.01 -5 5 C-4.01 4.01 -3.02 3.02 -2 2 C-1.34 2 -0.68 2 0 2 C0 1.34 0 0.68 0 0 Z " fill="#CCD2F5" transform="translate(107,532)"></path><path d="M0 0 C5.95345745 2.09175532 5.95345745 2.09175532 8 5 C8.1875 7.6875 8.1875 7.6875 8 10 C3.79236776 8.4972742 2.1972242 5.76667005 0 2 C0 1.34 0 0.68 0 0 Z " fill="#C5CAEC" transform="translate(186,183)"></path><path d="M0 0 C1 3 1 3 -0.43359375 6.35546875 C-1.09148807 7.6380304 -1.75989743 8.91524057 -2.4375 10.1875 C-2.77587891 10.84169922 -3.11425781 11.49589844 -3.46289062 12.16992188 C-4.29969098 13.78459299 -5.14869746 15.39292763 -6 17 C-7.24913556 13.25259333 -6.60145433 12.52319953 -5 9 C-4.505 7.783125 -4.01 6.56625 -3.5 5.3125 C-2 2 -2 2 0 0 Z " fill="#C2C6DC" transform="translate(135,281)"></path><path d="M0 0 C4.8274799 1.41292095 8.7162359 3.42974154 13 6 C12.01 7.485 12.01 7.485 11 9 C7.66272214 7.82744291 5.22562513 6.81131596 3 4 C3 3.34 3 2.68 3 2 C1.35 2 -0.3 2 -2 2 C-1.34 1.34 -0.68 0.68 0 0 Z " fill="#D1D6F2" transform="translate(270,5)"></path><path d="M0 0 C-0.56589844 0.19335938 -1.13179687 0.38671875 -1.71484375 0.5859375 C-2.81505859 0.97652344 -2.81505859 0.97652344 -3.9375 1.375 C-5.03384766 1.75785156 -5.03384766 1.75785156 -6.15234375 2.1484375 C-8.18682116 2.85271413 -8.18682116 2.85271413 -9 5 C-8.34 5.66 -7.68 6.32 -7 7 C-10.63 6.67 -14.26 6.34 -18 6 C-18 5.67 -18 5.34 -18 5 C-17.113125 4.731875 -16.22625 4.46375 -15.3125 4.1875 C-12.22044287 3.07902669 -9.77559525 1.72537002 -7 0 C-3.86650268 -1.04449911 -3.01031744 -0.93423645 0 0 Z " fill="#D1D6F5" transform="translate(66,514)"></path><path d="M0 0 C5.46727972 2.44462067 9.8047298 6.55749134 12.4375 11.9375 C12.623125 12.618125 12.80875 13.29875 13 14 C11.84775972 13.07038578 10.70340824 12.1309875 9.5625 11.1875 C8.60537109 10.40439453 8.60537109 10.40439453 7.62890625 9.60546875 C6 8 6 8 5 5 C4.01 4.67 3.02 4.34 2 4 C2 3.34 2 2.68 2 2 C1.34 2 0.68 2 0 2 C0 1.34 0 0.68 0 0 Z " fill="#C1C4D6" transform="translate(151,404)"></path><path d="M0 0 C-4.625 4.875 -4.625 4.875 -8 6 C-8 6.99 -8 7.98 -8 9 C-8.66 9 -9.32 9 -10 9 C-10.33 9.99 -10.66 10.98 -11 12 C-10.39294514 7.87202695 -9.06000669 4.62561178 -7 1 C-4.53721199 -0.231394 -2.7204945 -0.07159196 0 0 Z " fill="#C2C7DE" transform="translate(179,82)"></path><path d="M0 0 C1.58294782 -0.05437607 3.16644256 -0.09296271 4.75 -0.125 C5.63171875 -0.14820313 6.5134375 -0.17140625 7.421875 -0.1953125 C10.1135858 0.00860498 11.69904974 0.63448279 14 2 C10.17679443 3.42258812 7.08718695 4.24042276 3 4 C3 3.34 3 2.68 3 2 C2.01 1.34 1.02 0.68 0 0 Z " fill="#B8BBDB" transform="translate(48,512)"></path><path d="M0 0 C3.11907866 2.8071708 4.52686579 5.10671674 6 9 C6.66 9.33 7.32 9.66 8 10 C8.33 10.99 8.66 11.98 9 13 C9.66 13 10.32 13 11 13 C10.67 13.99 10.34 14.98 10 16 C6.37820021 13.67732405 4.74395967 11.21897402 2.75 7.4375 C2.22921875 6.46683594 1.7084375 5.49617188 1.171875 4.49609375 C0 2 0 2 0 0 Z " fill="#BEC1DA" transform="translate(104,387)"></path><path d="M0 0 C4.97002661 0.06570949 8.12988521 0.56575681 12.25 3.3125 C12.25 3.9725 12.25 4.6325 12.25 5.3125 C10.3628125 4.8484375 10.3628125 4.8484375 8.4375 4.375 C3.07934823 3.17197548 -2.2804832 2.70098904 -7.75 2.3125 C-5.0881996 -0.3493004 -3.70750737 0.01383398 0 0 Z " fill="#BCC1DF" transform="translate(396.75,384.6875)"></path><path d="M0 0 C0.8353125 0.556875 0.8353125 0.556875 1.6875 1.125 C1.3575 1.785 1.0275 2.445 0.6875 3.125 C0.0275 3.125 -0.6325 3.125 -1.3125 3.125 C-1.3125 4.115 -1.3125 5.105 -1.3125 6.125 C-3.75 5.3125 -3.75 5.3125 -6.3125 4.125 C-6.6425 3.135 -6.9725 2.145 -7.3125 1.125 C-2.88173077 -1.09038462 -2.88173077 -1.09038462 0 0 Z " fill="#C9CBED" transform="translate(235.3125,188.875)"></path><path d="M0 0 C1.8125 0.1875 1.8125 0.1875 4 1 C5.8125 3.4375 5.8125 3.4375 7 6 C6.67 6.66 6.34 7.32 6 8 C5.401875 7.690625 4.80375 7.38125 4.1875 7.0625 C1.91043228 5.89790296 1.91043228 5.89790296 -1 5 C-0.67 3.35 -0.34 1.7 0 0 Z " fill="#C2C2DD" transform="translate(170,152)"></path><path d="M0 0 C1.98 0 3.96 0 6 0 C6 0.66 6 1.32 6 2 C6.66 2 7.32 2 8 2 C7.67 2.99 7.34 3.98 7 5 C6.01 5 5.02 5 4 5 C4 5.66 4 6.32 4 7 C3.01 6.67 2.02 6.34 1 6 C0.67 4.02 0.34 2.04 0 0 Z " fill="#BEC2E1" transform="translate(172,136)"></path><path d="M0 0 C3.30326989 3.12471476 5.7597192 6.0528386 8 10 C8.66 10.66 9.32 11.32 10 12 C10 13.32 10 14.64 10 16 C9.34 16 8.68 16 8 16 C6.66141476 13.71125827 5.32898986 11.41930344 4 9.125 C3.6184375 8.47402344 3.236875 7.82304688 2.84375 7.15234375 C0 2.2265625 0 2.2265625 0 0 Z " fill="#BABDD7" transform="translate(194,86)"></path><path d="M0 0 C-1.93232821 0.86580287 -3.87107194 1.71729941 -5.8125 2.5625 C-6.89144531 3.03816406 -7.97039062 3.51382813 -9.08203125 4.00390625 C-12 5 -12 5 -15 4 C-14.34 4 -13.68 4 -13 4 C-13 3.34 -13 2.68 -13 2 C-4.03184713 -2.68789809 -4.03184713 -2.68789809 0 0 Z " fill="#D3D8F1" transform="translate(357,542)"></path><path d="M0 0 C0.66 0 1.32 0 2 0 C3.32 2.97 4.64 5.94 6 9 C4.68 9.33 3.36 9.66 2 10 C2 9.01 2 8.02 2 7 C1.34 7 0.68 7 0 7 C0 4.69 0 2.38 0 0 Z " fill="#C5C8E5" transform="translate(345,270)"></path><path d="M0 0 C2.31 0 4.62 0 7 0 C7.33 0.99 7.66 1.98 8 3 C7 4 7 4 4.93359375 4.09765625 C4.10988281 4.08605469 3.28617188 4.07445312 2.4375 4.0625 C1.61121094 4.05347656 0.78492188 4.04445312 -0.06640625 4.03515625 C-0.70449219 4.02355469 -1.34257812 4.01195312 -2 4 C-1.34 2.68 -0.68 1.36 0 0 Z " fill="#B6BBDC" transform="translate(212,195)"></path><path d="M0 0 C3.96 0 7.92 0 12 0 C12 0.33 12 0.66 12 1 C9.03 1 6.06 1 3 1 C3 1.66 3 2.32 3 3 C5.64 3 8.28 3 11 3 C11 3.33 11 3.66 11 4 C9.41705218 4.05437607 7.83355744 4.09296271 6.25 4.125 C5.36828125 4.14820313 4.4865625 4.17140625 3.578125 4.1953125 C0.8864142 3.99139502 -0.69904974 3.36551721 -3 2 C-2.01 2 -1.02 2 0 2 C0 1.34 0 0.68 0 0 Z " fill="#A6A8C2" transform="translate(204,175)"></path><path d="M0 0 C2.31966166 2.84685749 3.91581154 5.4763875 5 9 C4.67 9.99 4.34 10.98 4 12 C3.67 10.68 3.34 9.36 3 8 C2.34 8 1.68 8 1 8 C-0.38232443 6.37373596 -1.71937515 4.7074998 -3 3 C-2.01 2.01 -1.02 1.02 0 0 Z " fill="#BBC0DD" transform="translate(165,121)"></path><path d="M0 0 C0.33 0 0.66 0 1 0 C1 2.64 1 5.28 1 8 C-0.65 8.33 -2.3 8.66 -4 9 C-3.67 10.32 -3.34 11.64 -3 13 C-3.99 12.67 -4.98 12.34 -6 12 C-6.33 10.02 -6.66 8.04 -7 6 C-4.69 6.33 -2.38 6.66 0 7 C0 4.69 0 2.38 0 0 Z " fill="#CED2EA" transform="translate(236,113)"></path><path d="M0 0 C0.33 0 0.66 0 1 0 C1.33 4.29 1.66 8.58 2 13 C1.01 13.495 1.01 13.495 0 14 C-0.65555119 16.52733235 -0.65555119 16.52733235 -1 19 C-1.33 19 -1.66 19 -2 19 C-2.29530838 12.50321562 -1.17293889 6.3778552 0 0 Z " fill="#DCE0F5" transform="translate(155,59)"></path><path d="M0 0 C0.33 0 0.66 0 1 0 C0.67 4.62 0.34 9.24 0 14 C-1.32 14.33 -2.64 14.66 -4 15 C-3.32584613 9.7415998 -1.75734451 4.97361654 0 0 Z " fill="#C8CBE5" transform="translate(170,509)"></path><path d="M0 0 C-3.0684847 2.97550031 -4.46236331 3.96474513 -8.8125 4.25 C-9.864375 4.1675 -10.91625 4.085 -12 4 C-12 3.34 -12 2.68 -12 2 C-7.82262526 0.40861915 -4.46839215 -0.21278058 0 0 Z " fill="#C0C4DE" transform="translate(253,488)"></path><path d="M0 0 C1.98 0.99 1.98 0.99 4 2 C4 2.66 4 3.32 4 4 C5.0828125 4.4021875 5.0828125 4.4021875 6.1875 4.8125 C8.97590126 5.98982498 11.44095724 7.39145884 14 9 C13.67 9.66 13.34 10.32 13 11 C11.38734247 10.11954345 9.78515525 9.21989504 8.1875 8.3125 C7.29417969 7.81363281 6.40085938 7.31476563 5.48046875 6.80078125 C2.74555045 4.81527364 1.52927625 2.98234273 0 0 Z " fill="#BEC1D5" transform="translate(167,472)"></path><path d="M0 0 C3.82391023 1.45750754 5.03163711 3.24871121 6.8125 6.875 C7.25207031 7.73867188 7.69164062 8.60234375 8.14453125 9.4921875 C9.07069298 12.20723697 9.00051772 13.36059742 8 16 C7.32880451 14.5437455 6.66318193 13.08492133 6 11.625 C5.62875 10.81289063 5.2575 10.00078125 4.875 9.1640625 C4 7 4 7 4 5 C3.34 5 2.68 5 2 5 C1.34 3.35 0.68 1.7 0 0 Z " fill="#BCC0D7" transform="translate(164,419)"></path><path d="M0 0 C0.99 0.33 1.98 0.66 3 1 C2.54554036 2.41791408 2.08625056 3.83428046 1.625 5.25 C1.36976563 6.03890625 1.11453125 6.8278125 0.8515625 7.640625 C0.04826333 9.86627958 -0.89711662 11.90931672 -2 14 C-2.1799928 8.78020872 -1.97094808 4.92737019 0 0 Z " fill="#B7BDDD" transform="translate(305,394)"></path><path d="M0 0 C0.33 0.66 0.66 1.32 1 2 C1.66 2 2.32 2 3 2 C3 2.66 3 3.32 3 4 C2.34 4 1.68 4 1 4 C1 4.66 1 5.32 1 6 C1.66 6.33 2.32 6.66 3 7 C0.36 6.67 -2.28 6.34 -5 6 C-5.33 5.01 -5.66 4.02 -6 3 C-4.68 3 -3.36 3 -2 3 C-1.34 2.01 -0.68 1.02 0 0 Z " fill="#B8BDD8" transform="translate(256,130)"></path><path d="M0 0 C0.99 0.495 0.99 0.495 2 1 C2 1.66 2 2.32 2 3 C2.99 3 3.98 3 5 3 C4.95875 3.7425 4.9175 4.485 4.875 5.25 C5.00398134 8.08758952 5.57051222 9.58773938 7 12 C6.01 12.495 6.01 12.495 5 13 C5 12.01 5 11.02 5 10 C4.34 10 3.68 10 3 10 C0.96564469 6.27034861 0 4.33094958 0 0 Z " fill="#BCC0DC" transform="translate(175,121)"></path><path d="M0 0 C0.33 0 0.66 0 1 0 C0.9375 3.25 0.9375 3.25 0 7 C-2.2231534 8.8544092 -4.32830337 9.78559244 -7 11 C-7 10.01 -7 9.02 -7 8 C-5.34614767 6.65080468 -3.678298 5.31866272 -2 4 C-0.68834743 1.88339573 -0.68834743 1.88339573 0 0 Z " fill="#BABFD8" transform="translate(294,463)"></path><path d="M0 0 C2.52017426 2.52017426 2.29730377 3.51499849 2.3125 7 C2.32925781 7.886875 2.34601563 8.77375 2.36328125 9.6875 C2.24339844 10.450625 2.12351562 11.21375 2 12 C1.01 12.66 0.02 13.32 -1 14 C-0.67 9.38 -0.34 4.76 0 0 Z " fill="#CFD3EE" transform="translate(452,456)"></path><path d="M0 0 C0.66 0 1.32 0 2 0 C1.85879286 1.93784265 1.71187127 3.87526955 1.5625 5.8125 C1.48128906 6.89144531 1.40007812 7.97039062 1.31640625 9.08203125 C1 12 1 12 0 15 C-0.66 15 -1.32 15 -2 15 C-1.85879286 13.06215735 -1.71187127 11.12473045 -1.5625 9.1875 C-1.48128906 8.10855469 -1.40007812 7.02960938 -1.31640625 5.91796875 C-1 3 -1 3 0 0 Z " fill="#BDBFDA" transform="translate(306,438)"></path><path d="M0 0 C0.99 0 1.98 0 3 0 C4.640625 2.08203125 4.640625 2.08203125 6.25 4.8125 C7.06210937 6.15248047 7.06210937 6.15248047 7.890625 7.51953125 C9 10 9 10 8 13 C7.15801693 11.90241493 6.32669329 10.79664683 5.5 9.6875 C5.0359375 9.07261719 4.571875 8.45773437 4.09375 7.82421875 C3 6 3 6 3 3 C2.34 3 1.68 3 1 3 C0.67 2.01 0.34 1.02 0 0 Z " fill="#C7C9DF" transform="translate(341,258)"></path><path d="M0 0 C0.763125 0.474375 1.52625 0.94875 2.3125 1.4375 C4.96410548 3.10106097 4.96410548 3.10106097 8 4 C8 5.65 8 7.3 8 9 C6.68 8.34 5.36 7.68 4 7 C4 6.34 4 5.68 4 5 C3.34 5 2.68 5 2 5 C2 4.34 2 3.68 2 3 C1.34 3 0.68 3 0 3 C0 2.01 0 1.02 0 0 Z " fill="#C4C7E2" transform="translate(332,246)"></path><path d="M0 0 C2.64 0.33 5.28 0.66 8 1 C5.22719294 4.08089673 2.93673644 5.68775452 -1 7 C-1 5 -1 5 1 3 C0.67 2.01 0.34 1.02 0 0 Z " fill="#BFC3DE" transform="translate(235,187)"></path><path d="M0 0 C0.85851562 0.55300781 0.85851562 0.55300781 1.734375 1.1171875 C-2.015625 3.1171875 -2.015625 3.1171875 -4.265625 3.1171875 C-6.28149184 4.08480358 -8.28316102 5.08285846 -10.265625 6.1171875 C-10.265625 5.1271875 -10.265625 4.1371875 -10.265625 3.1171875 C-9.02678181 2.38951747 -7.77394159 1.68563935 -6.515625 0.9921875 C-5.81953125 0.59773437 -5.1234375 0.20328125 -4.40625 -0.203125 C-2.265625 -0.8828125 -2.265625 -0.8828125 0 0 Z " fill="#BBC0DC" transform="translate(257.265625,156.8828125)"></path><path d="M0 0 C1.48828125 1.01953125 1.48828125 1.01953125 3 3 C3.2172101 5.64996326 3.28351554 8.05076558 3.1875 10.6875 C3.17396484 11.38939453 3.16042969 12.09128906 3.14648438 12.81445312 C3.11120182 14.54329829 3.05739583 16.27174765 3 18 C2.67 18 2.34 18 2 18 C1.93941406 17.20335938 1.87882812 16.40671875 1.81640625 15.5859375 C1.20332134 7.75667303 1.20332134 7.75667303 0 0 Z " fill="#B4B8D0" transform="translate(259,104)"></path><path d="M0 0 C2.97 0.495 2.97 0.495 6 1 C6 1.99 6 2.98 6 4 C7.65 3.67 9.3 3.34 11 3 C10.67 4.32 10.34 5.64 10 7 C5.56541027 5.6062718 3.12621626 3.39417765 0 0 Z " fill="#CFD4F0" transform="translate(299,537)"></path><path d="M0 0 C0 0.66 0 1.32 0 2 C-1.8125 3.6875 -1.8125 3.6875 -4 5 C-4.99 4.67 -5.98 4.34 -7 4 C-7.33 4.99 -7.66 5.98 -8 7 C-8.99 6.34 -9.98 5.68 -11 5 C-9.73461631 4.15841464 -8.46246221 3.32700252 -7.1875 2.5 C-6.47980469 2.0359375 -5.77210938 1.571875 -5.04296875 1.09375 C-3 0 -3 0 0 0 Z " fill="#C2C6DD" transform="translate(434,478)"></path><path d="M0 0 C1.85546875 0.2265625 1.85546875 0.2265625 4 1 C5.30078125 2.9609375 5.30078125 2.9609375 6.3125 5.375 C6.65925781 6.16648437 7.00601562 6.95796875 7.36328125 7.7734375 C8 10 8 10 7 13 C6.16121545 11.71186658 5.32913217 10.41936744 4.5 9.125 C4.0359375 8.40570313 3.571875 7.68640625 3.09375 6.9453125 C2 5 2 5 2 3 C1.34 3 0.68 3 0 3 C0 2.01 0 1.02 0 0 Z " fill="#C3C5DD" transform="translate(412,391)"></path><path d="M0 0 C1.5625 1.25 1.5625 1.25 3 3 C2.9375 5.0625 2.9375 5.0625 2 7 C0.125 8.3125 0.125 8.3125 -2 9 C-2.99 8.67 -3.98 8.34 -5 8 C-3 6 -3 6 -1 5 C-0.34444881 2.47266765 -0.34444881 2.47266765 0 0 Z " fill="#BCC2E6" transform="translate(75,368)"></path><path d="M0 0 C0.99 0 1.98 0 3 0 C2.33501617 4.38889325 0.81242323 7.9811485 -1 12 C-1.66 12 -2.32 12 -3 12 C-3 11.01 -3 10.02 -3 9 C-2.34 9 -1.68 9 -1 9 C-1 7.02 -1 5.04 -1 3 C-0.34 3 0.32 3 1 3 C0.67 2.01 0.34 1.02 0 0 Z " fill="#BEC3DE" transform="translate(156,228)"></path><path d="M0 0 C0.33 0 0.66 0 1 0 C0.22095672 10.55808656 0.22095672 10.55808656 -2 15 C-2.33 15 -2.66 15 -3 15 C-2.5547115 9.72684667 -1.91626837 4.98229776 0 0 Z " fill="#BDC1DB" transform="translate(166,200)"></path><path d="M0 0 C0.33 1.32 0.66 2.64 1 4 C-2.13349732 5.04449911 -2.98968256 4.93423645 -6 4 C-6.33 4.66 -6.66 5.32 -7 6 C-7 3 -7 3 -6 0 C-3.50907189 -1.24546405 -2.58919267 -0.7767578 0 0 Z " fill="#CCCDF0" transform="translate(250,181)"></path><path d="M0 0 C0.33 0.99 0.66 1.98 1 3 C-0.65 4.65 -2.3 6.3 -4 8 C-4.99 7.67 -5.98 7.34 -7 7 C-4.78071806 4.09197539 -3.07030857 2.04687238 0 0 Z " fill="#C0C6F0" transform="translate(391,502)"></path><path d="M0 0 C1.32 0.33 2.64 0.66 4 1 C4.66 4.3 5.32 7.6 6 11 C1.9957657 7.50912907 0.37328935 5.35048061 0 0 Z " fill="#D7DBF4" transform="translate(1,498)"></path><path d="M0 0 C1.65 0 3.3 0 5 0 C5.33 0.99 5.66 1.98 6 3 C5.01 3 4.02 3 3 3 C3.33 3.99 3.66 4.98 4 6 C2.02 5.34 0.04 4.68 -2 4 C-1.34 2.68 -0.68 1.36 0 0 Z " fill="#BABEE0" transform="translate(226,118)"></path><path d="M0 0 C0.99 0.66 1.98 1.32 3 2 C2.34 3.32 1.68 4.64 1 6 C0.34 6 -0.32 6 -1 6 C-1.33 6.99 -1.66 7.98 -2 9 C-2.66 6.69 -3.32 4.38 -4 2 C-3.01 2.33 -2.02 2.66 -1 3 C-0.67 2.01 -0.34 1.02 0 0 Z " fill="#CDD2F4" transform="translate(291,517)"></path><path d="M0 0 C1.18771723 3.42943519 0.80226223 5.37784675 -0.4375 8.75 C-0.86869141 9.94882812 -0.86869141 9.94882812 -1.30859375 11.171875 C-1.53675781 11.77515625 -1.76492188 12.3784375 -2 13 C-2.33 13 -2.66 13 -3 13 C-3.33 11.02 -3.66 9.04 -4 7 C-3.34 7 -2.68 7 -2 7 C-1.855625 6.21625 -1.71125 5.4325 -1.5625 4.625 C-1 2 -1 2 0 0 Z " fill="#C1C6DE" transform="translate(300,467)"></path><path d="M0 0 C1.125 1.5 1.125 1.5 2 4 C1.57598348 6.7773082 0.81108065 9.29639783 0 12 C-0.66 11.67 -1.32 11.34 -2 11 C-1.125 3.375 -1.125 3.375 0 0 Z " fill="#BDC1DE" transform="translate(299,444)"></path><path d="M0 0 C6.875 3.75 6.875 3.75 8 6 C6.576875 6.2165625 6.576875 6.2165625 5.125 6.4375 C2.1065506 6.82935399 2.1065506 6.82935399 0 8 C0.875 4.125 0.875 4.125 2 3 C1.34 2.67 0.68 2.34 0 2 C0 1.34 0 0.68 0 0 Z " fill="#CFD6F3" transform="translate(411,382)"></path><path d="M0 0 C1.32 0 2.64 0 4 0 C4.33 3.3 4.66 6.6 5 10 C2.08772731 6.71195019 0.50298788 4.40114397 0 0 Z " fill="#C6C9EF" transform="translate(110,351)"></path><path d="M0 0 C0.66 0 1.32 0 2 0 C2.67408308 1.26691507 3.33900497 2.53870749 4 3.8125 C4.556875 4.87404297 4.556875 4.87404297 5.125 5.95703125 C6 8 6 8 6 11 C5.34 11 4.68 11 4 11 C3.67 9.02 3.34 7.04 3 5 C2.01 4.67 1.02 4.34 0 4 C0 2.68 0 1.36 0 0 Z " fill="#BFC4D8" transform="translate(187,103)"></path><path d="M0 0 C1.32 0 2.64 0 4 0 C5.65 3.3 7.3 6.6 9 10 C8.34 10 7.68 10 7 10 C6.731875 9.195625 6.46375 8.39125 6.1875 7.5625 C5.795625 6.716875 5.40375 5.87125 5 5 C4.01 4.67 3.02 4.34 2 4 C2 3.34 2 2.68 2 2 C1.34 2 0.68 2 0 2 C0 1.34 0 0.68 0 0 Z " fill="#C1C3DB" transform="translate(264,81)"></path><path d="M0 0 C0.66 0.33 1.32 0.66 2 1 C-3.625 5 -3.625 5 -7 5 C-7 5.99 -7 6.98 -7 8 C-8.32 7.34 -9.64 6.68 -11 6 C-9.73168307 5.18357746 -8.46024069 4.37200895 -7.1875 3.5625 C-6.47980469 3.11003906 -5.77210937 2.65757812 -5.04296875 2.19140625 C-3 1 -3 1 0 0 Z " fill="#D5DBF1" transform="translate(24,405)"></path><path d="M0 0 C3.63 0.33 7.26 0.66 11 1 C11 1.33 11 1.66 11 2 C9.824375 2.1546875 9.824375 2.1546875 8.625 2.3125 C5.66954819 2.77595022 5.66954819 2.77595022 4 6 C2.68 5.67 1.36 5.34 0 5 C0.99 4.01 1.98 3.02 3 2 C2.01 1.34 1.02 0.68 0 0 Z " fill="#D5DBF2" transform="translate(206,193)"></path><path d="M0 0 C2.93361338 2.42341975 3.4567874 4.28804726 4 8 C4.32483418 9.33542939 4.6550855 10.66961551 5 12 C4.01 12 3.02 12 2 12 C0.86235649 7.73383684 0 4.43513689 0 0 Z " fill="#BFC2DA" transform="translate(280,174)"></path><path d="M0 0 C0.33 0 0.66 0 1 0 C1.33 4.29 1.66 8.58 2 13 C1.01 13.33 0.02 13.66 -1 14 C-0.67 9.38 -0.34 4.76 0 0 Z " fill="#D6DAF0" transform="translate(153,153)"></path><path d="M0 0 C0.103125 0.639375 0.20625 1.27875 0.3125 1.9375 C0.539375 2.618125 0.76625 3.29875 1 4 C1.99 4.33 2.98 4.66 4 5 C4 5.66 4 6.32 4 7 C2.02 7.33 0.04 7.66 -2 8 C-2 7.34 -2 6.68 -2 6 C-2.66 5.34 -3.32 4.68 -4 4 C-2.68 2.68 -1.36 1.36 0 0 Z " fill="#CCD0E7" transform="translate(179,131)"></path><path d="M0 0 C0 0.66 0 1.32 0 2 C-0.99 2 -1.98 2 -3 2 C-3.20625 2.639375 -3.4125 3.27875 -3.625 3.9375 C-5 6 -5 6 -8.125 6.75 C-9.548125 6.87375 -9.548125 6.87375 -11 7 C-4.36842105 0 -4.36842105 0 0 0 Z " fill="#D8DBF2" transform="translate(192,10)"></path><path d="M0 0 C1.5 1.3125 1.5 1.3125 3 3 C3 3.99 3 4.98 3 6 C3.66 6 4.32 6 5 6 C5.33 7.98 5.66 9.96 6 12 C3.04250209 8.53258866 0.92151848 5.13126473 -1 1 C-0.67 0.67 -0.34 0.34 0 0 Z " fill="#CACCE1" transform="translate(130,432)"></path><path d="M0 0 C2.39105598 2.14926381 3.63278854 3.99036913 4.75 7 C5.01296875 7.680625 5.2759375 8.36125 5.546875 9.0625 C6 11 6 11 5 14 C1.87680501 9.59913433 0.96396425 5.20540698 0 0 Z " fill="#BEC1DA" transform="translate(96,349)"></path><path d="M0 0 C0.33 0 0.66 0 1 0 C1.33 3.96 1.66 7.92 2 12 C1.01 12.495 1.01 12.495 0 13 C0 11.35 0 9.7 0 8 C-0.66 7.67 -1.32 7.34 -2 7 C-1.34 4.69 -0.68 2.38 0 0 Z " fill="#D3D7F2" transform="translate(412,318)"></path><path d="M0 0 C0.33 0 0.66 0 1 0 C1.33 3.63 1.66 7.26 2 11 C1.34 11 0.68 11 0 11 C-1.16461426 7.50615721 -1.13568319 4.66344611 -1 1 C-0.67 0.67 -0.34 0.34 0 0 Z " fill="#D4D9F1" transform="translate(320,148)"></path><path d="M0 0 C0.33 0.66 0.66 1.32 1 2 C1.66 2 2.32 2 3 2 C2.67 3.32 2.34 4.64 2 6 C-0.31 5.67 -2.62 5.34 -5 5 C-3.35 3.35 -1.7 1.7 0 0 Z " fill="#CACCE5" transform="translate(258,152)"></path><path d="M0 0 C0.66 0.33 1.32 0.66 2 1 C1 4 1 4 -1.3125 5.1875 C-4 6 -4 6 -8 6 C-8 5.34 -8 4.68 -8 4 C-5.36 3.34 -2.72 2.68 0 2 C0 1.34 0 0.68 0 0 Z " fill="#BFC1DA" transform="translate(206,129)"></path><path d="M0 0 C2.92509086 3.90012114 3.47535095 5.38308839 4 10 C2.68 10 1.36 10 0 10 C0 6.7 0 3.4 0 0 Z " fill="#ADB3D3" transform="translate(203,108)"></path><path d="M0 0 C5.36716665 -0.83861979 8.79627239 2.07929595 13 5 C10 6 10 6 7.51953125 5.00390625 C6.62621094 4.52824219 5.73289062 4.05257812 4.8125 3.5625 C3.91144531 3.08941406 3.01039062 2.61632812 2.08203125 2.12890625 C1.39496094 1.75636719 0.70789063 1.38382813 0 1 C0 0.67 0 0.34 0 0 Z " fill="#BEC1D4" transform="translate(86,521)"></path><path d="M0 0 C0 3.37027852 -0.49824008 4.06702696 -2.4375 6.6875 C-2.88996094 7.31011719 -3.34242187 7.93273437 -3.80859375 8.57421875 C-4.20175781 9.04472656 -4.59492187 9.51523437 -5 10 C-5.33 10 -5.66 10 -6 10 C-6.375 7.8125 -6.375 7.8125 -6 5 C-4.16038352 3.00977164 -2.20813852 1.61010101 0 0 Z " fill="#BCC0DB" transform="translate(62,384)"></path><path d="M0 0 C0.33 0 0.66 0 1 0 C1.14285714 8.57142857 1.14285714 8.57142857 0 12 C-0.66 12 -1.32 12 -2 12 C-2 9.03 -2 6.06 -2 3 C-1.34 3 -0.68 3 0 3 C0 2.01 0 1.02 0 0 Z " fill="#B4B9D3" transform="translate(170,180)"></path><path d="M0 0 C2 4 2 4 1.3125 6.1875 C0 8 0 8 -3 9 C-2.01 6.03 -1.02 3.06 0 0 Z " fill="#D5DAF1" transform="translate(147,182)"></path><path d="M0 0 C0 0.33 0 0.66 0 1 C-0.928125 1.268125 -1.85625 1.53625 -2.8125 1.8125 C-5.82273432 2.93395985 -7.00789036 3.60946844 -9 6 C-9.66 6.66 -10.32 7.32 -11 8 C-11.25 5.6875 -11.25 5.6875 -11 3 C-7.85004477 -0.65394807 -4.57703263 -0.26405958 0 0 Z " fill="#B8BCD0" transform="translate(252,97)"></path><path d="M0 0 C0.66 0 1.32 0 2 0 C2 2.64 2 5.28 2 8 C2.66 8.33 3.32 8.66 4 9 C2.35 8.67 0.7 8.34 -1 8 C-0.67 5.36 -0.34 2.72 0 0 Z " fill="#BDC0DD" transform="translate(393,372)"></path><path d="M0 0 C0.33 0.99 0.66 1.98 1 3 C1.66 3.33 2.32 3.66 3 4 C3.40729228 6.32156597 3.74438677 8.6568787 4 11 C0.64306263 8.76204175 0.08029437 7.7810303 -1 4 C-0.625 1.6875 -0.625 1.6875 0 0 Z " fill="#BDC1DB" transform="translate(308,246)"></path><path d="M0 0 C0.66 0 1.32 0 2 0 C2 0.66 2 1.32 2 2 C2.66 2.33 3.32 2.66 4 3 C3.67 3.99 3.34 4.98 3 6 C0.525 5.01 0.525 5.01 -2 4 C-1.34 2.68 -0.68 1.36 0 0 Z " fill="#C8CAE4" transform="translate(192,170)"></path><path d="M0 0 C0.33 0.66 0.66 1.32 1 2 C-0.98 4.64 -2.96 7.28 -5 10 C-5 6.26879511 -3.81968524 4.21944311 -2 1 C-1.34 0.67 -0.68 0.34 0 0 Z " fill="#D7DAF1" transform="translate(167,33)"></path><path d="M0 0 C0.66 0.66 1.32 1.32 2 2 C-0.31 4.31 -2.62 6.62 -5 9 C-5.33 8.01 -5.66 7.02 -6 6 C-5.01 5.67 -4.02 5.34 -3 5 C-3 4.34 -3 3.68 -3 3 C-2.34 3 -1.68 3 -1 3 C-0.67 2.01 -0.34 1.02 0 0 Z " fill="#D3D8F1" transform="translate(380,520)"></path><path d="M0 0 C1.27351308 2.54702616 0.80191925 3.4282945 0.0625 6.125 C-0.13214844 6.84945313 -0.32679687 7.57390625 -0.52734375 8.3203125 C-0.68332031 8.87460937 -0.83929688 9.42890625 -1 10 C-1.66 10 -2.32 10 -3 10 C-2.25 2.25 -2.25 2.25 0 0 Z " fill="#BDC0DC" transform="translate(110,289)"></path><path d="M0 0 C1.23593891 3.70781672 0.5678132 4.67510253 -0.9375 8.1875 C-1.31777344 9.08855469 -1.69804688 9.98960937 -2.08984375 10.91796875 C-2.54037109 11.94857422 -2.54037109 11.94857422 -3 13 C-3.33 13 -3.66 13 -4 13 C-4.63934602 7.88523181 -2.40533547 4.32745622 0 0 Z " fill="#BEC0D8" transform="translate(104,291)"></path><path d="M0 0 C0.66 0.33 1.32 0.66 2 1 C2 2.32 2 3.64 2 5 C2.66 5.33 3.32 5.66 4 6 C1.39417629 6.93065133 0.35801776 7.14917407 -2.25 6.0625 C-2.8275 5.711875 -3.405 5.36125 -4 5 C-3.34 5 -2.68 5 -2 5 C-2 4.34 -2 3.68 -2 3 C-1.34 3 -0.68 3 0 3 C0 2.01 0 1.02 0 0 Z " fill="#C9CCED" transform="translate(257,175)"></path><path d="M0 0 C0 0.99 0 1.98 0 3 C-3.3 3 -6.6 3 -10 3 C-6.64781163 0.76520776 -4.01177204 0 0 0 Z " fill="#D0D7ED" transform="translate(199,514)"></path><path d="M0 0 C0.33 0.99 0.66 1.98 1 3 C0.01 3.33 -0.98 3.66 -2 4 C-2.33 5.65 -2.66 7.3 -3 9 C-3.66 9 -4.32 9 -5 9 C-3.90931332 5.22454612 -3.0916909 2.52956528 0 0 Z " fill="#D9DCF3" transform="translate(10,414)"></path><path d="M0 0 C2.31 0.33 4.62 0.66 7 1 C7.33 2.65 7.66 4.3 8 6 C4.08597051 4.73058503 2.20927127 3.48832306 0 0 Z " fill="#CFD2E6" transform="translate(336,398)"></path><path d="M0 0 C0.66 0 1.32 0 2 0 C2.20086443 3.71599191 2.1519437 4.77208445 0 8 C-0.66 8 -1.32 8 -2 8 C-1.34 5.36 -0.68 2.72 0 0 Z " fill="#BFC3DB" transform="translate(307,385)"></path><path d="M0 0 C2.27618181 2.1677922 4.32954824 4.32727719 6 7 C5.67 7.99 5.34 8.98 5 10 C2.66063182 7.87330165 1.19346152 5.93775144 0 3 C0 2.01 0 1.02 0 0 Z " fill="#C0C1D5" transform="translate(108,351)"></path><path d="M0 0 C1.485 0.99 1.485 0.99 3 2 C3.40843923 4.71203652 3.13336867 7.2437142 3 10 C0.70366176 6.55549263 0.45983515 4.06187717 0 0 Z " fill="#BCC0DA" transform="translate(337,314)"></path><path d="M0 0 C0.66 0 1.32 0 2 0 C1.44271087 3.34373475 0.64826111 6.03312999 -1 9 C-2.25541557 5.23375329 -1.37061958 3.62811066 0 0 Z " fill="#BFC2DB" transform="translate(141,265)"></path><path d="M0 0 C2.97 0.495 2.97 0.495 6 1 C5.67 2.32 5.34 3.64 5 5 C3.68 5 2.36 5 1 5 C0.67 3.35 0.34 1.7 0 0 Z " fill="#B4B6DC" transform="translate(204,193)"></path><path d="M0 0 C2.33944736 0.28730055 4.6739143 0.61936779 7 1 C7 1.66 7 2.32 7 3 C5.02 3.66 3.04 4.32 1 5 C0.34 3.68 -0.32 2.36 -1 1 C-0.67 0.67 -0.34 0.34 0 0 Z " fill="#CACDE4" transform="translate(233,168)"></path><path d="M0 0 C1.9375 1.1875 1.9375 1.1875 3.9375 3.1875 C-2.21484375 2.6015625 -2.21484375 2.6015625 -4.0625 2.1875 C-4.3925 1.5275 -4.7225 0.8675 -5.0625 0.1875 C-2.0625 -0.8125 -2.0625 -0.8125 0 0 Z " fill="#D4DAF2" transform="translate(121.0625,538.8125)"></path><path d="M0 0 C2.88437779 1.29299694 4.87219421 2.65941363 7 5 C6.67 5.66 6.34 6.32 6 7 C5.01 6.34 4.02 5.68 3 5 C3 4.34 3 3.68 3 3 C1.68 2.67 0.36 2.34 -1 2 C-0.67 1.34 -0.34 0.68 0 0 Z " fill="#BCC1D9" transform="translate(301,529)"></path><path d="M0 0 C1.98 0 3.96 0 6 0 C5.67 0.66 5.34 1.32 5 2 C2.6859378 2.73075648 0.35171131 3.40138258 -2 4 C-1.34 2.68 -0.68 1.36 0 0 Z " fill="#D3D8F1" transform="translate(421,490)"></path><path d="M0 0 C0.33 0.99 0.66 1.98 1 3 C-1.475 4.485 -1.475 4.485 -4 6 C-4.33 4.68 -4.66 3.36 -5 2 C-2 0 -2 0 0 0 Z " fill="#B9BFDE" transform="translate(440,474)"></path><path d="M0 0 C0.66 0.33 1.32 0.66 2 1 C1.67 3.31 1.34 5.62 1 8 C0.01 6.68 -0.98 5.36 -2 4 C-1.34 2.68 -0.68 1.36 0 0 Z " fill="#CBCEE9" transform="translate(115,401)"></path><path d="M0 0 C0.66 0 1.32 0 2 0 C2.33 0.66 2.66 1.32 3 2 C3.66 1.67 4.32 1.34 5 1 C5 1.66 5 2.32 5 3 C5.66 3 6.32 3 7 3 C6.67 3.99 6.34 4.98 6 6 C1.125 3.375 1.125 3.375 0 0 Z " fill="#BAC1E1" transform="translate(333,393)"></path><path d="M0 0 C1.26710868 2.53421737 1.28056176 4.19438238 1 7 C0.01 7.66 -0.98 8.32 -2 9 C-2.6875 6.75 -2.6875 6.75 -3 4 C-1.5625 1.6875 -1.5625 1.6875 0 0 Z " fill="#D1D8F3" transform="translate(51,386)"></path><path d="M0 0 C1.98 0.99 1.98 0.99 4 2 C4 2.66 4 3.32 4 4 C4.66 4 5.32 4 6 4 C6 4.66 6 5.32 6 6 C4.68 6 3.36 6 2 6 C2 5.01 2 4.02 2 3 C1.34 3 0.68 3 0 3 C0 2.01 0 1.02 0 0 Z " fill="#CED2EF" transform="translate(361,226)"></path><path d="M0 0 C4.75 0.875 4.75 0.875 7 2 C7 1.34 7 0.68 7 0 C7.66 0 8.32 0 9 0 C9.33 0.99 9.66 1.98 10 3 C8 4 8 4 6.0546875 3.44140625 C5.33539063 3.15136719 4.61609375 2.86132812 3.875 2.5625 C3.15054688 2.27503906 2.42609375 1.98757812 1.6796875 1.69140625 C0.84824219 1.34916016 0.84824219 1.34916016 0 1 C0 0.67 0 0.34 0 0 Z " fill="#C8CBE8" transform="translate(221,130)"></path><path d="M0 0 C2.02045442 0.60183749 4.02111039 1.27306096 6 2 C6.33 2.66 6.66 3.32 7 4 C5.68 4.33 4.36 4.66 3 5 C2.67 4.01 2.34 3.02 2 2 C1.34 2 0.68 2 0 2 C0 1.34 0 0.68 0 0 Z " fill="#B9BEE3" transform="translate(316,539)"></path><path d="M0 0 C4.75 0.75 4.75 0.75 7 3 C4.69 3.33 2.38 3.66 0 4 C0 2.68 0 1.36 0 0 Z " fill="#BABFDD" transform="translate(184,484)"></path><path d="M0 0 C0.99 0.33 1.98 0.66 3 1 C2.67 2.32 2.34 3.64 2 5 C1.01 5 0.02 5 -1 5 C-1.33 5.66 -1.66 6.32 -2 7 C-1.125 2.25 -1.125 2.25 0 0 Z " fill="#BDC3DC" transform="translate(311,377)"></path><path d="M0 0 C3.96 1.98 3.96 1.98 8 4 C7.67 4.66 7.34 5.32 7 6 C4.69 5.01 2.38 4.02 0 3 C0 2.01 0 1.02 0 0 Z " fill="#B7BBD7" transform="translate(365,341)"></path><path d="M0 0 C0.98120464 3.05263664 0.98120464 4.94736336 0 8 C-0.66 8 -1.32 8 -2 8 C-2.6875 6.25 -2.6875 6.25 -3 4 C-1.5625 1.75 -1.5625 1.75 0 0 Z " fill="#C2C6DF" transform="translate(124,306)"></path><path d="M0 0 C0.33 0 0.66 0 1 0 C1 1.98 1 3.96 1 6 C-0.98 6.99 -0.98 6.99 -3 8 C-1.125 2.25 -1.125 2.25 0 0 Z " fill="#D8DEF2" transform="translate(85,278)"></path></svg>