<?xml version="1.0" encoding="UTF-8"?>
<svg version="1.1" xmlns="http://www.w3.org/2000/svg" width="358" height="319">
<path d="M0 0 C4.95 0 9.9 0 15 0 C15 23.76 15 47.52 15 72 C10.05 72 5.1 72 0 72 C-0.33 68.37 -0.66 64.74 -1 61 C-8.07756133 60.74263413 -14.28314538 61.76104846 -21 64 C-22.18028284 66.15097933 -22.18028284 66.15097933 -23 69 C-23.37125 70.11375 -23.7425 71.2275 -24.125 72.375 C-25.69613935 78.73320456 -25.15246612 85.49477872 -25 92 C-22.03 92 -19.06 92 -16 92 C-16 97.28 -16 102.56 -16 108 C-25.23997871 108.02255261 -34.47993928 108.04091601 -43.71993923 108.05181217 C-48.00999915 108.05704061 -52.30003933 108.06413753 -56.59008789 108.07543945 C-60.726794 108.08626975 -64.86348108 108.09227714 -69.00020027 108.09487724 C-70.58192304 108.09673124 -72.16364471 108.10035136 -73.74535942 108.10573006 C-75.95322838 108.1129424 -78.16101773 108.11399086 -80.36889648 108.11352539 C-82.25752663 108.11685631 -82.25752663 108.11685631 -84.18431091 108.12025452 C-87 108 -87 108 -88 107 C-88.09909302 104.66839945 -88.12970504 102.33370058 -88.125 100 C-88.12757812 98.72125 -88.13015625 97.4425 -88.1328125 96.125 C-88 93 -88 93 -87 92 C-84.34536879 91.54540142 -81.67810862 91.29756762 -79 91 C-79.01571045 90.19071045 -79.0314209 89.3814209 -79.04760742 88.54760742 C-79.8747711 39.34009409 -79.8747711 39.34009409 -66.97265625 24 C-55.12445465 11.9875659 -38.42067901 10.00299189 -22.3190918 9.81738281 C-14.82254973 9.80347328 -7.44056921 10.00792411 0 11 C0 7.37 0 3.74 0 0 Z " fill="#BFC8F2" transform="translate(170,69)"/>
<path d="M0 0 C15.51 0 31.02 0 47 0 C47 35.97 47 71.94 47 109 C31.82 109 16.64 109 1 109 C0 108 0 108 -0.12304783 106.19027615 C-0.12212604 105.3947688 -0.12120424 104.59926146 -0.12025452 103.77964783 C-0.12162918 102.86954453 -0.12300385 101.95944122 -0.12442017 101.02175903 C-0.12082489 100.01547455 -0.11722961 99.00919006 -0.11352539 97.97241211 C-0.11367142 96.91888046 -0.11381744 95.86534882 -0.1139679 94.77989197 C-0.11326826 91.279022 -0.10547348 87.77820448 -0.09765625 84.27734375 C-0.09579225 81.85738657 -0.09436826 79.43742901 -0.09336853 77.01747131 C-0.08954192 70.63384976 -0.07971041 64.25025079 -0.06866455 57.86663818 C-0.05845351 51.35836086 -0.05387157 44.8500799 -0.04882812 38.34179688 C-0.03808827 25.56118637 -0.02049032 12.78059859 0 0 Z " fill="#C0C9F3" transform="translate(94,179)"/>
<path d="M0 0 C35.97 0 71.94 0 109 0 C109 15.18 109 30.36 109 46 C73.03 46 37.06 46 0 46 C0 30.82 0 15.64 0 0 Z " fill="#C0C9F3" transform="translate(187,82)"/>
<path d="M0 0 C35.97 0 71.94 0 109 0 C109 15.18 109 30.36 109 46 C73.03 46 37.06 46 0 46 C0 33.13 0 20.26 0 7 C0.99 7.495 0.99 7.495 2 8 C2.16797178 12.48381818 2.32849276 16.96782313 2.48217773 21.45214844 C2.53547812 22.97696063 2.59079772 24.50170365 2.64819336 26.02636719 C2.73043951 28.22055145 2.80537075 30.41488365 2.87890625 32.609375 C2.90594131 33.2886908 2.93297638 33.96800659 2.96083069 34.66790771 C3.06814299 38.08738162 2.84152919 40.63388325 2 44 C36.65 44 71.3 44 107 44 C107 30.14 107 16.28 107 2 C72.35 2 37.7 2 2 2 C2 3.32 2 4.64 2 6 C1.34 6 0.68 6 0 6 C0 4.02 0 2.04 0 0 Z " fill="#A6B6EF" transform="translate(187,82)"/>
<path d="M0 0 C15.51 0 31.02 0 47 0 C47 35.97 47 71.94 47 109 C46.34 109 45.68 109 45 109 C45 73.69 45 38.38 45 2 C22.74470994 -0.03356197 22.74470994 -0.03356197 2 4 C1.67 36.67 1.34 69.34 1 103 C0.67 103 0.34 103 0 103 C0 69.01 0 35.02 0 0 Z " fill="#9DACE7" transform="translate(94,179)"/>
<path d="M0 0 C4.95 0 9.9 0 15 0 C15 23.76 15 47.52 15 72 C10.05 72 5.1 72 0 72 C0.99 71.01 0.99 71.01 2 70 C5.63 70.33 9.26 70.66 13 71 C12.67 48.23 12.34 25.46 12 2 C8.04 2 4.08 2 0 2 C0 1.34 0 0.68 0 0 Z " fill="#9EAEE7" transform="translate(170,69)"/>
<path d="M0 0 C1.98 0 3.96 0 6 0 C6 5.28 6 10.56 6 16 C-13.14 16 -32.28 16 -52 16 C-52 15.34 -52 14.68 -52 14 C-33.52 14 -15.04 14 4 14 C4 10.04 4 6.08 4 2 C2.68 1.34 1.36 0.68 0 0 Z " fill="#A9C0F4" transform="translate(148,161)"/>
<path d="M0 0 C0 0.66 0 1.32 0 2 C-0.763125 2.433125 -1.52625 2.86625 -2.3125 3.3125 C-5.13075145 4.79522735 -5.13075145 4.79522735 -6.4375 7.4375 C-8 10 -8 10 -11.0625 11.9375 C-14.51254939 14.3598751 -15.08359776 15.96783016 -16 20 C-16.66 20 -17.32 20 -18 20 C-18 20.66 -18 21.32 -18 22 C-18.66 22 -19.32 22 -20 22 C-18.35643009 13.41691271 -13.3342931 7.32498431 -6.1875 2.4375 C-2.3495935 0 -2.3495935 0 0 0 Z " fill="#A8B7EE" transform="translate(116,85)"/>
<path d="M0 0 C1.32 0.33 2.64 0.66 4 1 C4 1.99 4 2.98 4 4 C17.53 4 31.06 4 45 4 C45 4.33 45 4.66 45 5 C30.48 5 15.96 5 1 5 C0.67 3.35 0.34 1.7 0 0 Z " fill="#A6B5ED" transform="translate(94,283)"/>
<path d="M0 0 C0.66 0 1.32 0 2 0 C1.86722656 0.57105469 1.73445312 1.14210937 1.59765625 1.73046875 C0.05933154 8.79328805 -0.57064726 15.79139345 -1 23 C-1.66 23 -2.32 23 -3 23 C-3.55353075 7.25512528 -3.55353075 7.25512528 0 0 Z " fill="#A5B6ED" transform="translate(145,136)"/>
<path d="M0 0 C0.33 0 0.66 0 1 0 C1.36632124 3.39463657 1.71589775 6.79079797 2.0625 10.1875 C2.16626953 11.14720703 2.27003906 12.10691406 2.37695312 13.09570312 C2.47041016 14.02705078 2.56386719 14.95839844 2.66015625 15.91796875 C2.79369507 17.19837036 2.79369507 17.19837036 2.92993164 18.50463867 C3.00440784 21.15697731 2.61472301 23.4262253 2 26 C1.34 25.67 0.68 25.34 0 25 C0 16.75 0 8.5 0 0 Z " fill="#A4B2E8" transform="translate(91,133)"/>
<path d="M0 0 C0 0.66 0 1.32 0 2 C-0.99 2 -1.98 2 -3 2 C-3.66 3.32 -4.32 4.64 -5 6 C-6.11375 5.5359375 -6.11375 5.5359375 -7.25 5.0625 C-9.5123958 4.18839253 -11.64974079 3.55743327 -14 3 C-4.58997722 -0.44419134 -4.58997722 -0.44419134 0 0 Z " fill="#A9B7ED" transform="translate(130,81)"/>
<path d="M0 0 C0.66 0 1.32 0 2 0 C2.66 1.98 3.32 3.96 4 6 C2.68 7.32 1.36 8.64 0 10 C0 6.7 0 3.4 0 0 Z " fill="#A9B8F1" transform="translate(170,130)"/>
<path d="M0 0 C2.31 0 4.62 0 7 0 C6.34 0.66 5.68 1.32 5 2 C4.01 2 3.02 2 2 2 C2 3.32 2 4.64 2 6 C1.34 6 0.68 6 0 6 C0 4.02 0 2.04 0 0 Z " fill="#A1B4EA" transform="translate(187,82)"/>
<path d="M0 0 C0.66 0 1.32 0 2 0 C3.125 6.75 3.125 6.75 2 9 C1.34 9 0.68 9 0 9 C0 6.03 0 3.06 0 0 Z " fill="#A6B6F0" transform="translate(170,71)"/>
<path d="M0 0 C-0.99 1.485 -0.99 1.485 -2 3 C-3.9375 2.625 -3.9375 2.625 -6 2 C-6.33 1.34 -6.66 0.68 -7 0 C-3.98968256 -0.93423645 -3.13349732 -1.04449911 0 0 Z " fill="#B3C0F3" transform="translate(123,85)"/>
</svg>
