<svg version="1.1" xmlns="http://www.w3.org/2000/svg" width="16px" height="16px" fill="currentColor" viewBox="0 0 500 500"><path d="M0 0 C13.64026845 13.64026845 15.81210835 28.64892465 15.84039307 47.18371582 C15.83681261 49.04956159 15.83271048 50.91540643 15.828125 52.78125 C15.82947541 54.73075407 15.83141905 56.68025781 15.83392334 58.62976074 C15.83685693 62.69770543 15.83263412 66.76556175 15.82324219 70.83349609 C15.81184878 76.01779975 15.81841776 81.20189624 15.83038712 86.38619232 C15.8376536 90.40648935 15.83529591 94.42673818 15.83013153 98.44703674 C15.82880825 100.35738653 15.83039579 102.26774085 15.83509064 104.17808533 C15.86897356 121.83513296 15.42540507 139.29384889 2.40625 152.85546875 C-9.28055055 163.67566333 -21.96377861 166.9163386 -37.67211914 166.78613281 C-38.62992279 166.78654068 -39.58772644 166.78694855 -40.57455444 166.78736877 C-42.63475462 166.78756483 -44.69495877 166.78358324 -46.75514412 166.77576447 C-50.03337585 166.76543365 -53.31123339 166.77099381 -56.58946228 166.78118896 C-65.90370356 166.80897521 -75.21773176 166.82180419 -84.53198242 166.79248047 C-90.25078451 166.77561323 -95.9689148 166.78827916 -101.68765068 166.81893158 C-103.84702724 166.82497481 -106.00646498 166.82033186 -108.16578865 166.80405426 C-124.05523307 166.68930522 -141.11431841 167.55589554 -153.625 178.72265625 C-154.223125 179.32980469 -154.82125 179.93695313 -155.4375 180.5625 C-156.05625 181.17996094 -156.675 181.79742187 -157.3125 182.43359375 C-170.03975454 196.06601941 -173.4081066 211.58116506 -173.75390625 229.62890625 C-173.7850779 231.00815529 -173.7850779 231.00815529 -173.81687927 232.41526794 C-173.88164557 235.31844469 -173.94091637 238.22170262 -174 241.125 C-174.04325478 243.10742987 -174.08687115 245.08985189 -174.13085938 247.07226562 C-174.23725085 251.90226307 -174.3387179 256.73234119 -174.4375 261.5625 C-179.95097971 261.63721359 -185.46415822 261.69136615 -190.97802734 261.72729492 C-192.84982443 261.74228865 -194.72158694 261.7626905 -196.59326172 261.78881836 C-216.67182385 262.0618868 -216.67182385 262.0618868 -224.4375 258.5625 C-225.35144531 258.15128906 -226.26539063 257.74007813 -227.20703125 257.31640625 C-227.88121094 256.92324219 -228.55539063 256.53007812 -229.25 256.125 C-229.93707031 255.73441406 -230.62414062 255.34382813 -231.33203125 254.94140625 C-246.4849262 245.01752514 -252.47580587 225.99721079 -256.1875 209.125 C-256.98528913 205.27901615 -257.73083429 201.42621769 -258.4375 197.5625 C-258.57172363 196.8288623 -258.70594727 196.09522461 -258.84423828 195.33935547 C-264.08757815 165.14037268 -261.07353284 126.60837972 -243.4921875 100.6953125 C-234.94176059 89.39533655 -222.51506872 81.9279792 -208.4375 79.5625 C-204.06361667 79.28711815 -199.70157467 79.30951782 -195.3203125 79.33544922 C-194.0219194 79.33515717 -192.72352631 79.33486511 -191.38578796 79.33456421 C-187.84706207 79.33399333 -184.30847338 79.34570442 -180.76977921 79.35971212 C-177.06356767 79.37226392 -173.35735256 79.37339348 -169.65112305 79.37576294 C-162.6425394 79.38196468 -155.63401858 79.39835773 -148.62546253 79.41846192 C-140.64236642 79.44086168 -132.65926721 79.45182458 -124.67614746 79.46185279 C-108.26322723 79.48272519 -91.85037413 79.51828126 -75.4375 79.5625 C-75.4375 76.2625 -75.4375 72.9625 -75.4375 69.5625 C-104.8075 69.5625 -134.1775 69.5625 -164.4375 69.5625 C-164.499375 62.055 -164.56125 54.5475 -164.625 46.8125 C-164.66596802 43.29577637 -164.66596802 43.29577637 -164.70776367 39.70800781 C-164.89574985 12.37808411 -164.89574985 12.37808411 -155.4375 1.5625 C-125.15265393 -28.11258407 -31.68062193 -24.35704959 0 0 Z M-137.83203125 19.13671875 C-140.81460203 23.65800096 -141.46446302 28.27318604 -140.4375 33.5625 C-138.62009333 38.30283261 -136.03801283 41.58338314 -131.625 44.125 C-127.1653357 46.02666817 -124.11441607 45.71256133 -119.4375 44.5625 C-114.87708769 42.59323105 -112.91368473 39.80738811 -110.4375 35.5625 C-108.73641933 30.45925799 -108.87228753 26.24376566 -111.125 21.375 C-113.60051505 16.84533417 -116.49759122 14.20913626 -121.4375 12.5625 C-128.33949078 11.75050108 -133.27135393 13.98839114 -137.83203125 19.13671875 Z " fill="#BEC8F2" transform="translate(324.4375,78.4375)"></path><path d="M0 0 C6.06481249 -0.09961787 12.12913826 -0.17182006 18.19458008 -0.21972656 C20.25358386 -0.23971846 22.31253177 -0.26692128 24.37133789 -0.30175781 C40.43131703 -0.56650414 52.3059057 0.17943321 64.578125 11.44921875 C84.79894292 32.57465221 87.56299872 72.51407429 87.19921875 100.07421875 C86.57182495 123.81251881 79.40833801 154.97109725 62.546875 172.6484375 C52.59848791 181.34071511 41.62525965 182.44740875 28.82958984 182.34057617 C27.42911803 182.33972823 26.02864488 182.34020831 24.62817383 182.34190369 C20.85603978 182.34275854 17.08419645 182.32521639 13.3121295 182.30418181 C9.35903141 182.2853291 5.40592542 182.28365784 1.45278931 182.28010559 C-6.0197105 182.27081022 -13.49207741 182.24623071 -20.9645189 182.21605712 C-29.47726653 182.18243465 -37.99002076 182.16600744 -46.50281835 182.15097082 C-64.00195555 182.11967868 -81.50096369 182.06696742 -99 182 C-99 185.3 -99 188.6 -99 192 C-97.88722183 191.99777939 -96.77444366 191.99555878 -95.62794495 191.99327087 C-85.1650787 191.97304045 -74.70221639 191.95802834 -64.23933506 191.94818783 C-58.85966238 191.94295875 -53.48000542 191.93586065 -48.1003418 191.92456055 C-42.91325157 191.91373255 -37.72617651 191.90772335 -32.53907585 191.90512276 C-30.5554372 191.90326835 -28.57179942 191.89964744 -26.58816719 191.89426994 C-23.81990864 191.88706068 -21.05171362 191.88600901 -18.28344727 191.88647461 C-17.04051659 191.8810817 -17.04051659 191.8810817 -15.7724762 191.87557983 C-10.11405216 191.88594784 -10.11405216 191.88594784 -9 193 C-8.88635164 195.45346744 -8.83581021 197.87760593 -8.83203125 200.33203125 C-8.82870285 201.07901779 -8.82537445 201.82600433 -8.82194519 202.59562683 C-8.8168667 204.18703597 -8.81453715 205.77845582 -8.81469727 207.36987305 C-8.81254331 209.76434997 -8.79449021 212.15834113 -8.77539062 214.55273438 C-8.71810032 229.45803759 -9.45751602 244.11617429 -20.0625 255.75 C-44.15979006 277.42174227 -81.09190591 281.45089888 -112 280 C-135.88039729 278.32222033 -163.34213017 271.18640095 -180 253 C-190.37325477 240.66244806 -189.46204368 226.19545638 -189.43359375 210.9453125 C-189.43816271 208.79499142 -189.44347039 206.64467179 -189.44947815 204.49435425 C-189.45838105 200.00089564 -189.45601857 195.50761504 -189.44604492 191.01416016 C-189.43456315 185.28607872 -189.45476957 179.55861452 -189.48396206 173.83061409 C-189.5024024 169.39334275 -189.50201595 164.95621717 -189.49632454 160.51891708 C-189.49617226 158.40842702 -189.5021384 156.29792648 -189.51461601 154.1874733 C-189.59838343 137.69792416 -188.45981376 121.8327092 -177.03515625 108.75 C-166.15041794 98.35733846 -153.41537287 94.67805677 -138.74536133 94.74462891 C-137.76191742 94.74100845 -136.77847351 94.737388 -135.76522827 94.73365784 C-133.6438826 94.72680087 -131.52251942 94.72425141 -129.4011631 94.72560501 C-126.03178292 94.726577 -122.66271591 94.71354748 -119.29338074 94.69662476 C-109.71831684 94.65056352 -100.14328625 94.62576805 -90.56811523 94.61914062 C-84.69612404 94.61409815 -78.82446103 94.58971077 -72.95258141 94.55381393 C-70.72851224 94.54408015 -68.50439756 94.5416485 -66.28031349 94.54698563 C-48.30063759 94.58810335 -32.46348022 93.61705953 -18.56640625 80.74609375 C-5.927018 67.46727608 -0.99113224 53.29739235 -0.68359375 35.3515625 C-0.6524221 33.83276993 -0.6524221 33.83276993 -0.62062073 32.28329468 C-0.55548402 29.06392902 -0.49640768 25.84448506 -0.4375 22.625 C-0.39428063 20.43618997 -0.35066527 18.24738773 -0.30664062 16.05859375 C-0.19983961 10.7058108 -0.098008 5.35295078 0 0 Z M-62 223 C-64.33469662 227.28290629 -65.46516542 231.27317338 -64.5625 236.125 C-62.83069501 241.47007714 -59.33748186 245.52369567 -54.625 248.5 C-49.36316014 249.50225521 -45.40053271 248.72719968 -40.75 246.3125 C-36.63715287 242.85396946 -34.05128984 239.43349325 -33 234.125 C-32.50997651 227.87421252 -35.64743032 223.62308361 -39.5 219 C-43.30089983 216.16625025 -47.496834 216.24457778 -52.0859375 216.4609375 C-56.72017805 217.31820988 -59.29986021 219.17741838 -62 223 Z " fill="#BEC8F2" transform="translate(349,158)"></path><path d="M0 0 C0.66 0.33 1.32 0.66 2 1 C1.360625 1.86625 0.72125 2.7325 0.0625 3.625 C-2.46106835 7.75447548 -3.59238621 10.49928393 -2.453125 15.30859375 C-0.99086912 20.09244946 -0.99086912 20.09244946 2 24 C1.67 24.99 1.34 25.98 1 27 C0.38125 26.195625 -0.2375 25.39125 -0.875 24.5625 C-2.74164041 21.96125481 -2.74164041 21.96125481 -5 21 C-5.33 21.66 -5.66 22.32 -6 23 C-6 20 -6 20 -5 17 C-5.020625 15.7625 -5.04125 14.525 -5.0625 13.25 C-5.10731585 9.20163479 -4.44919817 5.8136794 -3 2 C-2.01 1.34 -1.02 0.68 0 0 Z " fill="#A3A7BD" transform="translate(288,378)"></path><path d="M0 0 C0.33 0.99 0.66 1.98 1 3 C1.66 3.66 2.32 4.32 3 5 C2.649375 5.61875 2.29875 6.2375 1.9375 6.875 C1.4734375 7.926875 1.4734375 7.926875 1 9 C1.33 9.66 1.66 10.32 2 11 C0.02 11.99 -1.96 12.98 -4 14 C-3.91276622 12.22825181 -3.80458345 10.45752623 -3.6875 8.6875 C-3.62949219 7.70136719 -3.57148438 6.71523437 -3.51171875 5.69921875 C-2.95377187 2.75615543 -2.31459868 1.81817001 0 0 Z " fill="#B9C3EC" transform="translate(253,145)"></path><path d="M0 0 C0.33 1.32 0.66 2.64 1 4 C0.01 4.66 -0.98 5.32 -2 6 C-2 5.34 -2 4.68 -2 4 C-2.66 4 -3.32 4 -4 4 C-4 4.66 -4 5.32 -4 6 C-5.3125 7.4375 -5.3125 7.4375 -7 9 C-7.556875 9.556875 -8.11375 10.11375 -8.6875 10.6875 C-9.3371875 11.3371875 -9.3371875 11.3371875 -10 12 C-10.33 11.01 -10.66 10.02 -11 9 C-13.01508358 8.26676204 -13.01508358 8.26676204 -15 8 C-14.16855469 7.59007812 -13.33710938 7.18015625 -12.48046875 6.7578125 C-11.39378906 6.21898437 -10.30710937 5.68015625 -9.1875 5.125 C-8.10855469 4.59132812 -7.02960938 4.05765625 -5.91796875 3.5078125 C-2.92161735 2.02778861 -2.92161735 2.02778861 0 0 Z " fill="#A0A7C6" transform="translate(327,242)"></path><path d="M0 0 C0.66 0.33 1.32 0.66 2 1 C-3.91616249 5.83610013 -10.22682887 10.61035338 -18.0625 11.25 C-18.701875 11.1675 -19.34125 11.085 -20 11 C-18 8 -18 8 -16.15234375 7.48046875 C-15.42144531 7.38378906 -14.69054687 7.28710938 -13.9375 7.1875 C-8.38321746 6.15058037 -4.45581972 3.34976518 0 0 Z " fill="#999DAD" transform="translate(323,232)"></path><path d="M0 0 C0.66 0 1.32 0 2 0 C0.4169423 4.2742558 -2.50568404 6.26531794 -6 9 C-8 6 -8 6 -9 3 C-6.64561267 1.57055055 -5.51967567 0.91338739 -2.75 1.375 C-2.1725 1.58125 -1.595 1.7875 -1 2 C-0.67 1.34 -0.34 0.68 0 0 Z " fill="#AAB2D5" transform="translate(329,409)"></path><path d="M0 0 C3.0831351 1.19899698 6.06279492 2.47700477 9 4 C8.34 4.66 7.68 5.32 7 6 C6.67 5.67 6.34 5.34 6 5 C5.67 5.66 5.34 6.32 5 7 C2.67843403 7.40729228 0.3431213 7.74438677 -2 8 C-2 6.68 -2 5.36 -2 4 C-1.01 3.34 -0.02 2.68 1 2 C0.67 1.34 0.34 0.68 0 0 Z " fill="#AFB8DD" transform="translate(189,120)"></path><path d="M0 0 C3.09044468 2.06029645 3.51221697 2.82606287 5 6 C5.66 6.66 6.32 7.32 7 8 C6.01 8 5.02 8 4 8 C4 9.32 4 10.64 4 12 C4.66 12.33 5.32 12.66 6 13 C3.375 17.875 3.375 17.875 0 19 C0.5259375 17.515 0.5259375 17.515 1.0625 16 C2.62596925 10.57189903 1.56570229 5.36812212 0 0 Z " fill="#9CA2BB" transform="translate(313,381)"></path><path d="M0 0 C2.06850491 3.10275737 2.78558082 5.4099217 3.6875 9 C3.95949219 10.051875 4.23148437 11.10375 4.51171875 12.1875 C5 15 5 15 4 18 C4 17.34 4 16.68 4 16 C3.34 16 2.68 16 2 16 C0.25 13.75 0.25 13.75 -1 11 C-0.36959957 9.64914193 0.30251417 8.31747324 1 7 C0.68873287 3.31796085 0.68873287 3.31796085 0 0 Z " fill="#9BA1BA" transform="translate(426,195)"></path><path d="M0 0 C0.33 0.66 0.66 1.32 1 2 C3.02463255 2.65213292 3.02463255 2.65213292 5 3 C5.625 5.375 5.625 5.375 6 8 C5.34 8.66 4.68 9.32 4 10 C3.34 10 2.68 10 2 10 C0.39644899 6.49223216 -0.22036864 3.85645121 0 0 Z " fill="#AAB2D5" transform="translate(161,391)"></path><path d="M0 0 C0.99 0 1.98 0 3 0 C1.51095825 3.89608498 -0.24378713 7.59097018 -2.125 11.3125 C-2.66382813 12.38113281 -3.20265625 13.44976562 -3.7578125 14.55078125 C-4.37269531 15.76314453 -4.37269531 15.76314453 -5 17 C-6.26224414 13.21326759 -5.32806648 11.6717132 -4 8 C-4 7.34 -4 6.68 -4 6 C-3.34 6 -2.68 6 -2 6 C-2 5.01 -2 4.02 -2 3 C-1.34 3 -0.68 3 0 3 C0 2.01 0 1.02 0 0 Z " fill="#ACB0C2" transform="translate(158,267)"></path><path d="M0 0 C2.97 0.495 2.97 0.495 6 1 C5.01 2.485 5.01 2.485 4 4 C3.34 4 2.68 4 2 4 C2 4.66 2 5.32 2 6 C0.35 6.33 -1.3 6.66 -3 7 C-1.125 2.25 -1.125 2.25 0 0 Z " fill="#AFB6D5" transform="translate(170,269)"></path><path d="M0 0 C-1.8125 2 -1.8125 2 -4 4 C-4.99 4 -5.98 4 -7 4 C-7.33 4.66 -7.66 5.32 -8 6 C-8.33 4.68 -8.66 3.36 -9 2 C-10.65 2 -12.3 2 -14 2 C-14 1.67 -14 1.34 -14 1 C-9.23692563 0.04738513 -4.8333472 -0.08333357 0 0 Z " fill="#A2A8C2" transform="translate(228,63)"></path><path d="M0 0 C0.66 1.32 1.32 2.64 2 4 C1.34 4 0.68 4 0 4 C-0.33 5.32 -0.66 6.64 -1 8 C-0.34 8.33 0.32 8.66 1 9 C1.33 9.66 1.66 10.32 2 11 C0.02 11.66 -1.96 12.32 -4 13 C-3.40895235 8.15340923 -2.02055843 4.39251833 0 0 Z " fill="#969BB4" transform="translate(75,189)"></path><path d="M0 0 C2.875 -0.125 2.875 -0.125 6 0 C6.66 0.66 7.32 1.32 8 2 C5.36 3.65 2.72 5.3 0 7 C-0.33 5.68 -0.66 4.36 -1 3 C-0.34 3 0.32 3 1 3 C0.67 2.01 0.34 1.02 0 0 Z " fill="#A5ADCE" transform="translate(169,251)"></path><path d="M0 0 C0 0.66 0 1.32 0 2 C-0.99 2 -1.98 2 -3 2 C-2.67 2.99 -2.34 3.98 -2 5 C-2.99 5.33 -3.98 5.66 -5 6 C-5.66 6.66 -6.32 7.32 -7 8 C-7.99 8 -8.98 8 -10 8 C-8.48502075 3.75805811 -4.70198172 0 0 0 Z " fill="#A7ACC5" transform="translate(179,74)"></path><path d="M0 0 C2.97526665 2.55022856 4.50122302 5.40293526 6 9 C5.67 9.99 5.34 10.98 5 12 C4.938125 11.071875 4.938125 11.071875 4.875 10.125 C4.58625 9.42375 4.2975 8.7225 4 8 C1.00384054 6.6954344 1.00384054 6.6954344 -2 6 C-1.67 5.38125 -1.34 4.7625 -1 4.125 C0.14193235 2.08981656 0.14193235 2.08981656 0 0 Z " fill="#9BA1BA" transform="translate(418,177)"></path><path d="M0 0 C1 2 1 2 1 6 C-1.31 7.32 -3.62 8.64 -6 10 C-4.6302836 6.00499382 -2.74277578 3.19990508 0 0 Z " fill="#ADB0C1" transform="translate(342,224)"></path><path d="M0 0 C1.32 0.66 2.64 1.32 4 2 C3.34 4.64 2.68 7.28 2 10 C1.67 10 1.34 10 1 10 C0.63883954 8.5225254 0.28624952 7.04295325 -0.0625 5.5625 C-0.25972656 4.73878906 -0.45695312 3.91507812 -0.66015625 3.06640625 C-0.82837891 2.04353516 -0.82837891 2.04353516 -1 1 C-0.67 0.67 -0.34 0.34 0 0 Z " fill="#A2AAC9" transform="translate(425,292)"></path><path d="M0 0 C0.33 0 0.66 0 1 0 C1 1.65 1 3.3 1 5 C2.32 5.33 3.64 5.66 5 6 C4.67 6.66 4.34 7.32 4 8 C3.01 8.33 2.02 8.66 1 9 C0.34 8.67 -0.32 8.34 -1 8 C-0.67 5.36 -0.34 2.72 0 0 Z " fill="#A9B0D0" transform="translate(162,92)"></path><path d="M0 0 C-0.33 1.65 -0.66 3.3 -1 5 C-2.9375 4.6875 -2.9375 4.6875 -5 4 C-5.33 3.01 -5.66 2.02 -6 1 C-3 0 -3 0 0 0 Z " fill="#A0A7C8" transform="translate(111,160)"></path><path d="M0 0 C0.99 0.33 1.98 0.66 3 1 C-1.455 3.97 -1.455 3.97 -6 7 C-6 6.01 -6 5.02 -6 4 C-3.1875 1.75 -3.1875 1.75 0 0 Z " fill="#9FA2B3" transform="translate(181,260)"></path><path d="M0 0 C-0.3125 1.9375 -0.3125 1.9375 -1 4 C-1.99 4.33 -2.98 4.66 -4 5 C-4 4.01 -4 3.02 -4 2 C-5.32 1.67 -6.64 1.34 -8 1 C-5.07175348 0.02391783 -3.04386724 -0.08226668 0 0 Z " fill="#AAB1D5" transform="translate(320,249)"></path><path d="M0 0 C4.75 0.75 4.75 0.75 7 3 C6.01 3 5.02 3 4 3 C3.67 3.66 3.34 4.32 3 5 C2.01 4.67 1.02 4.34 0 4 C0 2.66666667 0 1.33333333 0 0 Z " fill="#9AA0BE" transform="translate(397,160)"></path><path d="M0 0 C-0.33 1.32 -0.66 2.64 -1 4 C-1.66 4 -2.32 4 -3 4 C-3.33 4.66 -3.66 5.32 -4 6 C-4 5.34 -4 4.68 -4 4 C-4.99 3.67 -5.98 3.34 -7 3 C-4.49955934 -0.00052879 -4.2621484 0 0 0 Z " fill="#A9B0CF" transform="translate(293,65)"></path><path d="M0 0 C0.66 0 1.32 0 2 0 C0.75023244 3.65316671 0.32901247 4.78065836 -3 7 C-3 5.35 -3 3.7 -3 2 C-2.01 2 -1.02 2 0 2 C0 1.34 0 0.68 0 0 Z " fill="#A3A8C1" transform="translate(164,260)"></path><path d="M0 0 C2.625 -0.1875 2.625 -0.1875 5 0 C5.33 0.66 5.66 1.32 6 2 C3.36 2.33 0.72 2.66 -2 3 C-1.34 2.01 -0.68 1.02 0 0 Z " fill="#A6ACC6" transform="translate(305,240)"></path><path d="M0 0 C0.99 0.33 1.98 0.66 3 1 C2.67 2.32 2.34 3.64 2 5 C0.68 5 -0.64 5 -2 5 C-1.34 3.35 -0.68 1.7 0 0 Z " fill="#A8AFD0" transform="translate(165,86)"></path></svg>